<?xml version="1.0" encoding="UTF-8" standalone="no"?><!DOCTYPE svg PUBLIC "-//W3C//DTD SVG 1.1//EN" "http://www.w3.org/Graphics/SVG/1.1/DTD/svg11.dtd"><!-- Generated by graphviz version 2.40.1 (20161225.0304)
 --><!-- Title: %0 Pages: 1 --><svg xmlns="http://www.w3.org/2000/svg" xmlns:xlink="http://www.w3.org/1999/xlink" width="411pt" height="404pt" viewBox="0.00 0.00 411.15 404.00">
<g id="graph0" class="graph" transform="scale(1 1) rotate(0) translate(4 400)">
<title>%0</title>
<polygon fill="#ffffff" stroke="transparent" points="-4,4 -4,-400 407.1458,-400 407.1458,4 -4,4"/>
<!-- 0 -->
<g id="node1" class="node">
<title>0</title>
<ellipse fill="none" stroke="#000000" cx="200.5729" cy="-378" rx="33.646" ry="18"/>
<text text-anchor="middle" x="200.5729" y="-373.8" font-family="Times,serif" font-size="14.00" fill="#000000">mult0</text>
</g>
<!-- 1 -->
<g id="node2" class="node">
<title>1</title>
<ellipse fill="none" stroke="#000000" cx="285.5729" cy="-306" rx="31.9224" ry="18"/>
<text text-anchor="middle" x="285.5729" y="-301.8" font-family="Times,serif" font-size="14.00" fill="#000000">sum0</text>
</g>
<!-- 0&#45;&gt;1 -->
<g id="edge1" class="edge">
<title>0-&gt;1</title>
<path fill="none" stroke="#000000" d="M218.5992,-362.7307C230.6255,-352.5437 246.6178,-338.9973 259.959,-327.6965"/>
<polygon fill="#000000" stroke="#000000" points="262.4958,-330.1346 267.8641,-321.0004 257.9714,-324.7933 262.4958,-330.1346"/>
</g>
<!-- 2 -->
<g id="node4" class="node">
<title>2</title>
<ellipse fill="none" stroke="#000000" cx="116.5729" cy="-306" rx="33.646" ry="18"/>
<text text-anchor="middle" x="116.5729" y="-301.8" font-family="Times,serif" font-size="14.00" fill="#000000">mult1</text>
</g>
<!-- 0&#45;&gt;2 -->
<g id="edge2" class="edge">
<title>0-&gt;2</title>
<path fill="none" stroke="#000000" d="M182.7587,-362.7307C171.0335,-352.6805 155.4933,-339.3603 142.4178,-328.1527"/>
<polygon fill="#000000" stroke="#000000" points="144.5214,-325.3461 134.6511,-321.4956 139.9659,-330.6609 144.5214,-325.3461"/>
</g>
<!-- 7 -->
<g id="node3" class="node">
<title>7</title>
<ellipse fill="none" stroke="#000000" cx="285.5729" cy="-234" rx="31.9224" ry="18"/>
<text text-anchor="middle" x="285.5729" y="-229.8" font-family="Times,serif" font-size="14.00" fill="#000000">sum3</text>
</g>
<!-- 1&#45;&gt;7 -->
<g id="edge3" class="edge">
<title>1-&gt;7</title>
<path fill="none" stroke="#000000" d="M285.5729,-287.8314C285.5729,-280.131 285.5729,-270.9743 285.5729,-262.4166"/>
<polygon fill="#000000" stroke="#000000" points="289.073,-262.4132 285.5729,-252.4133 282.073,-262.4133 289.073,-262.4132"/>
</g>
<!-- 13 -->
<g id="node11" class="node">
<title>13</title>
<ellipse fill="none" stroke="#000000" cx="285.5729" cy="-162" rx="31.9224" ry="18"/>
<text text-anchor="middle" x="285.5729" y="-157.8" font-family="Times,serif" font-size="14.00" fill="#000000">sum6</text>
</g>
<!-- 7&#45;&gt;13 -->
<g id="edge4" class="edge">
<title>7-&gt;13</title>
<path fill="none" stroke="#000000" d="M285.5729,-215.8314C285.5729,-208.131 285.5729,-198.9743 285.5729,-190.4166"/>
<polygon fill="#000000" stroke="#000000" points="289.073,-190.4132 285.5729,-180.4133 282.073,-190.4133 289.073,-190.4132"/>
</g>
<!-- 3 -->
<g id="node5" class="node">
<title>3</title>
<ellipse fill="none" stroke="#000000" cx="117.5729" cy="-234" rx="31.9224" ry="18"/>
<text text-anchor="middle" x="117.5729" y="-229.8" font-family="Times,serif" font-size="14.00" fill="#000000">sum1</text>
</g>
<!-- 2&#45;&gt;3 -->
<g id="edge5" class="edge">
<title>2-&gt;3</title>
<path fill="none" stroke="#000000" d="M116.8253,-287.8314C116.9322,-280.131 117.0594,-270.9743 117.1782,-262.4166"/>
<polygon fill="#000000" stroke="#000000" points="120.6779,-262.4609 117.3172,-252.4133 113.6785,-262.3637 120.6779,-262.4609"/>
</g>
<!-- 4 -->
<g id="node7" class="node">
<title>4</title>
<ellipse fill="none" stroke="#000000" cx="33.5729" cy="-234" rx="33.646" ry="18"/>
<text text-anchor="middle" x="33.5729" y="-229.8" font-family="Times,serif" font-size="14.00" fill="#000000">mult2</text>
</g>
<!-- 2&#45;&gt;4 -->
<g id="edge6" class="edge">
<title>2-&gt;4</title>
<path fill="none" stroke="#000000" d="M98.5632,-290.3771C86.9551,-280.3075 71.6911,-267.0663 58.8729,-255.947"/>
<polygon fill="#000000" stroke="#000000" points="61.1098,-253.254 51.2624,-249.3451 56.5228,-258.5418 61.1098,-253.254"/>
</g>
<!-- 9 -->
<g id="node6" class="node">
<title>9</title>
<ellipse fill="none" stroke="#000000" cx="117.5729" cy="-162" rx="31.9224" ry="18"/>
<text text-anchor="middle" x="117.5729" y="-157.8" font-family="Times,serif" font-size="14.00" fill="#000000">sum4</text>
</g>
<!-- 3&#45;&gt;9 -->
<g id="edge7" class="edge">
<title>3-&gt;9</title>
<path fill="none" stroke="#000000" d="M117.5729,-215.8314C117.5729,-208.131 117.5729,-198.9743 117.5729,-190.4166"/>
<polygon fill="#000000" stroke="#000000" points="121.073,-190.4132 117.5729,-180.4133 114.073,-190.4133 121.073,-190.4132"/>
</g>
<!-- 15 -->
<g id="node13" class="node">
<title>15</title>
<ellipse fill="none" stroke="#000000" cx="284.5729" cy="-90" rx="31.9224" ry="18"/>
<text text-anchor="middle" x="284.5729" y="-85.8" font-family="Times,serif" font-size="14.00" fill="#000000">sum7</text>
</g>
<!-- 9&#45;&gt;15 -->
<g id="edge8" class="edge">
<title>9-&gt;15</title>
<path fill="none" stroke="#000000" d="M143.1468,-150.731C148.2531,-148.4927 153.5807,-146.1656 158.5729,-144 163.0508,-142.0575 213.5461,-120.4233 249.2329,-105.1367"/>
<polygon fill="#000000" stroke="#000000" points="251.0411,-108.1698 258.8551,-101.0151 248.2848,-101.7353 251.0411,-108.1698"/>
</g>
<!-- 5 -->
<g id="node8" class="node">
<title>5</title>
<ellipse fill="none" stroke="#000000" cx="34.5729" cy="-162" rx="31.9224" ry="18"/>
<text text-anchor="middle" x="34.5729" y="-157.8" font-family="Times,serif" font-size="14.00" fill="#000000">sum2</text>
</g>
<!-- 4&#45;&gt;5 -->
<g id="edge9" class="edge">
<title>4-&gt;5</title>
<path fill="none" stroke="#000000" d="M33.8253,-215.8314C33.9322,-208.131 34.0594,-198.9743 34.1782,-190.4166"/>
<polygon fill="#000000" stroke="#000000" points="37.6779,-190.4609 34.3172,-180.4133 30.6785,-190.3637 37.6779,-190.4609"/>
</g>
<!-- 11 -->
<g id="node9" class="node">
<title>11</title>
<ellipse fill="none" stroke="#000000" cx="201.5729" cy="-90" rx="31.9224" ry="18"/>
<text text-anchor="middle" x="201.5729" y="-85.8" font-family="Times,serif" font-size="14.00" fill="#000000">sum5</text>
</g>
<!-- 5&#45;&gt;11 -->
<g id="edge10" class="edge">
<title>5-&gt;11</title>
<path fill="none" stroke="#000000" d="M60.3007,-150.9078C88.8239,-138.6104 134.988,-118.7073 166.7356,-105.0197"/>
<polygon fill="#000000" stroke="#000000" points="168.2928,-108.1598 176.09,-100.9867 165.5214,-101.7318 168.2928,-108.1598"/>
</g>
<!-- 17 -->
<g id="node15" class="node">
<title>17</title>
<ellipse fill="none" stroke="#000000" cx="284.5729" cy="-18" rx="31.9224" ry="18"/>
<text text-anchor="middle" x="284.5729" y="-13.8" font-family="Times,serif" font-size="14.00" fill="#000000">sum8</text>
</g>
<!-- 11&#45;&gt;17 -->
<g id="edge11" class="edge">
<title>11-&gt;17</title>
<path fill="none" stroke="#000000" d="M219.1751,-74.7307C230.8395,-64.6121 246.3249,-51.179 259.2991,-39.9243"/>
<polygon fill="#000000" stroke="#000000" points="261.7357,-42.444 266.9961,-33.2473 257.1487,-37.1563 261.7357,-42.444"/>
</g>
<!-- 6 -->
<g id="node10" class="node">
<title>6</title>
<ellipse fill="none" stroke="#000000" cx="201.5729" cy="-306" rx="33.646" ry="18"/>
<text text-anchor="middle" x="201.5729" y="-301.8" font-family="Times,serif" font-size="14.00" fill="#000000">mult3</text>
</g>
<!-- 6&#45;&gt;7 -->
<g id="edge12" class="edge">
<title>6-&gt;7</title>
<path fill="none" stroke="#000000" d="M219.3872,-290.7307C231.1921,-280.6121 246.8641,-267.179 259.9945,-255.9243"/>
<polygon fill="#000000" stroke="#000000" points="262.4696,-258.4127 267.7844,-249.2473 257.914,-253.0979 262.4696,-258.4127"/>
</g>
<!-- 8 -->
<g id="node12" class="node">
<title>8</title>
<ellipse fill="none" stroke="#000000" cx="201.5729" cy="-234" rx="33.646" ry="18"/>
<text text-anchor="middle" x="201.5729" y="-229.8" font-family="Times,serif" font-size="14.00" fill="#000000">mult4</text>
</g>
<!-- 6&#45;&gt;8 -->
<g id="edge13" class="edge">
<title>6-&gt;8</title>
<path fill="none" stroke="#000000" d="M201.5729,-287.8314C201.5729,-280.131 201.5729,-270.9743 201.5729,-262.4166"/>
<polygon fill="#000000" stroke="#000000" points="205.073,-262.4132 201.5729,-252.4133 198.073,-262.4133 205.073,-262.4132"/>
</g>
<!-- 8&#45;&gt;9 -->
<g id="edge14" class="edge">
<title>8-&gt;9</title>
<path fill="none" stroke="#000000" d="M183.7587,-218.7307C171.9537,-208.6121 156.2817,-195.179 143.1513,-183.9243"/>
<polygon fill="#000000" stroke="#000000" points="145.2319,-181.0979 135.3615,-177.2473 140.6763,-186.4127 145.2319,-181.0979"/>
</g>
<!-- 10 -->
<g id="node14" class="node">
<title>10</title>
<ellipse fill="none" stroke="#000000" cx="201.5729" cy="-162" rx="33.646" ry="18"/>
<text text-anchor="middle" x="201.5729" y="-157.8" font-family="Times,serif" font-size="14.00" fill="#000000">mult5</text>
</g>
<!-- 8&#45;&gt;10 -->
<g id="edge15" class="edge">
<title>8-&gt;10</title>
<path fill="none" stroke="#000000" d="M201.5729,-215.8314C201.5729,-208.131 201.5729,-198.9743 201.5729,-190.4166"/>
<polygon fill="#000000" stroke="#000000" points="205.073,-190.4132 201.5729,-180.4133 198.073,-190.4133 205.073,-190.4132"/>
</g>
<!-- 10&#45;&gt;11 -->
<g id="edge16" class="edge">
<title>10-&gt;11</title>
<path fill="none" stroke="#000000" d="M201.5729,-143.8314C201.5729,-136.131 201.5729,-126.9743 201.5729,-118.4166"/>
<polygon fill="#000000" stroke="#000000" points="205.073,-118.4132 201.5729,-108.4133 198.073,-118.4133 205.073,-118.4132"/>
</g>
<!-- 12 -->
<g id="node16" class="node">
<title>12</title>
<ellipse fill="none" stroke="#000000" cx="369.5729" cy="-234" rx="33.646" ry="18"/>
<text text-anchor="middle" x="369.5729" y="-229.8" font-family="Times,serif" font-size="14.00" fill="#000000">mult6</text>
</g>
<!-- 12&#45;&gt;13 -->
<g id="edge17" class="edge">
<title>12-&gt;13</title>
<path fill="none" stroke="#000000" d="M351.7587,-218.7307C339.9537,-208.6121 324.2817,-195.179 311.1513,-183.9243"/>
<polygon fill="#000000" stroke="#000000" points="313.2319,-181.0979 303.3615,-177.2473 308.6763,-186.4127 313.2319,-181.0979"/>
</g>
<!-- 14 -->
<g id="node17" class="node">
<title>14</title>
<ellipse fill="none" stroke="#000000" cx="369.5729" cy="-162" rx="33.646" ry="18"/>
<text text-anchor="middle" x="369.5729" y="-157.8" font-family="Times,serif" font-size="14.00" fill="#000000">mult7</text>
</g>
<!-- 12&#45;&gt;14 -->
<g id="edge18" class="edge">
<title>12-&gt;14</title>
<path fill="none" stroke="#000000" d="M369.5729,-215.8314C369.5729,-208.131 369.5729,-198.9743 369.5729,-190.4166"/>
<polygon fill="#000000" stroke="#000000" points="373.073,-190.4132 369.5729,-180.4133 366.073,-190.4133 373.073,-190.4132"/>
</g>
<!-- 14&#45;&gt;15 -->
<g id="edge19" class="edge">
<title>14-&gt;15</title>
<path fill="none" stroke="#000000" d="M351.5466,-146.7307C339.5204,-136.5437 323.528,-122.9973 310.1868,-111.6965"/>
<polygon fill="#000000" stroke="#000000" points="312.1745,-108.7933 302.2818,-105.0004 307.65,-114.1346 312.1745,-108.7933"/>
</g>
<!-- 16 -->
<g id="node18" class="node">
<title>16</title>
<ellipse fill="none" stroke="#000000" cx="368.5729" cy="-90" rx="33.646" ry="18"/>
<text text-anchor="middle" x="368.5729" y="-85.8" font-family="Times,serif" font-size="14.00" fill="#000000">mult8</text>
</g>
<!-- 14&#45;&gt;16 -->
<g id="edge20" class="edge">
<title>14-&gt;16</title>
<path fill="none" stroke="#000000" d="M369.3206,-143.8314C369.2136,-136.131 369.0865,-126.9743 368.9676,-118.4166"/>
<polygon fill="#000000" stroke="#000000" points="372.4673,-118.3637 368.8287,-108.4133 365.468,-118.4609 372.4673,-118.3637"/>
</g>
<!-- 16&#45;&gt;17 -->
<g id="edge21" class="edge">
<title>16-&gt;17</title>
<path fill="none" stroke="#000000" d="M350.7587,-74.7307C338.9537,-64.6121 323.2817,-51.179 310.1513,-39.9243"/>
<polygon fill="#000000" stroke="#000000" points="312.2319,-37.0979 302.3615,-33.2473 307.6763,-42.4127 312.2319,-37.0979"/>
</g>
</g>
</svg>