<?xml version="1.0" encoding="UTF-8" standalone="no"?>
<!DOCTYPE svg PUBLIC "-//W3C//DTD SVG 1.1//EN"
 "http://www.w3.org/Graphics/SVG/1.1/DTD/svg11.dtd">
<!-- Generated by graphviz version 2.43.0 (0)
 -->
<!-- Title: %3 Pages: 1 -->
<svg width="1660pt" height="692pt"
 viewBox="0.00 0.00 1660.14 692.00" xmlns="http://www.w3.org/2000/svg" xmlns:xlink="http://www.w3.org/1999/xlink">
<g id="graph0" class="graph" transform="scale(1 1) rotate(0) translate(4 688)">
<title>%3</title>
<polygon fill="white" stroke="transparent" points="-4,4 -4,-688 1656.14,-688 1656.14,4 -4,4"/>
<!-- 0 -->
<g id="node1" class="node">
<title>0</title>
<ellipse fill="none" stroke="black" cx="576.3" cy="-666" rx="27" ry="18"/>
<text text-anchor="middle" x="576.3" y="-662.3" font-family="Times,serif" font-size="14.00">0</text>
</g>
<!-- 55 -->
<g id="node56" class="node">
<title>55</title>
<ellipse fill="none" stroke="black" cx="345.3" cy="-594" rx="28.7" ry="18"/>
<text text-anchor="middle" x="345.3" y="-590.3" font-family="Times,serif" font-size="14.00">REG</text>
</g>
<!-- 0&#45;&gt;55 -->
<g id="edge1" class="edge">
<title>0&#45;&gt;55</title>
<path fill="none" stroke="black" d="M552.01,-657.64C511,-645.21 427.87,-620.02 380.48,-605.66"/>
<polygon fill="black" stroke="black" points="381.24,-602.23 370.65,-602.68 379.21,-608.93 381.24,-602.23"/>
</g>
<!-- 56 -->
<g id="node57" class="node">
<title>56</title>
<ellipse fill="none" stroke="black" cx="866.3" cy="-594" rx="28.7" ry="18"/>
<text text-anchor="middle" x="866.3" y="-590.3" font-family="Times,serif" font-size="14.00">REG</text>
</g>
<!-- 0&#45;&gt;56 -->
<g id="edge2" class="edge">
<title>0&#45;&gt;56</title>
<path fill="none" stroke="black" d="M601.65,-659.24C643.37,-649.72 729.05,-629.95 801.3,-612 810.77,-609.64 821,-607.01 830.48,-604.54"/>
<polygon fill="black" stroke="black" points="831.62,-607.86 840.4,-601.93 829.84,-601.09 831.62,-607.86"/>
</g>
<!-- 4 -->
<g id="node2" class="node">
<title>4</title>
<ellipse fill="none" stroke="black" cx="345.3" cy="-450" rx="40.09" ry="18"/>
<text text-anchor="middle" x="345.3" y="-446.3" font-family="Times,serif" font-size="14.00">MULT4</text>
</g>
<!-- 20 -->
<g id="node21" class="node">
<title>20</title>
<ellipse fill="none" stroke="black" cx="444.3" cy="-378" rx="38.19" ry="18"/>
<text text-anchor="middle" x="444.3" y="-374.3" font-family="Times,serif" font-size="14.00">ADD20</text>
</g>
<!-- 4&#45;&gt;20 -->
<g id="edge3" class="edge">
<title>4&#45;&gt;20</title>
<path fill="none" stroke="black" d="M365.81,-434.5C380.15,-424.36 399.49,-410.68 415.39,-399.44"/>
<polygon fill="black" stroke="black" points="417.67,-402.12 423.81,-393.49 413.62,-396.4 417.67,-402.12"/>
</g>
<!-- 5 -->
<g id="node3" class="node">
<title>5</title>
<ellipse fill="none" stroke="black" cx="40.3" cy="-450" rx="40.09" ry="18"/>
<text text-anchor="middle" x="40.3" y="-446.3" font-family="Times,serif" font-size="14.00">MULT5</text>
</g>
<!-- 23 -->
<g id="node24" class="node">
<title>23</title>
<ellipse fill="none" stroke="black" cx="139.3" cy="-378" rx="38.19" ry="18"/>
<text text-anchor="middle" x="139.3" y="-374.3" font-family="Times,serif" font-size="14.00">ADD23</text>
</g>
<!-- 5&#45;&gt;23 -->
<g id="edge4" class="edge">
<title>5&#45;&gt;23</title>
<path fill="none" stroke="black" d="M60.81,-434.5C75.15,-424.36 94.49,-410.68 110.39,-399.44"/>
<polygon fill="black" stroke="black" points="112.67,-402.12 118.81,-393.49 108.62,-396.4 112.67,-402.12"/>
</g>
<!-- 6 -->
<g id="node4" class="node">
<title>6</title>
<ellipse fill="none" stroke="black" cx="866.3" cy="-450" rx="40.09" ry="18"/>
<text text-anchor="middle" x="866.3" y="-446.3" font-family="Times,serif" font-size="14.00">MULT6</text>
</g>
<!-- 26 -->
<g id="node27" class="node">
<title>26</title>
<ellipse fill="none" stroke="black" cx="965.3" cy="-378" rx="38.19" ry="18"/>
<text text-anchor="middle" x="965.3" y="-374.3" font-family="Times,serif" font-size="14.00">ADD26</text>
</g>
<!-- 6&#45;&gt;26 -->
<g id="edge5" class="edge">
<title>6&#45;&gt;26</title>
<path fill="none" stroke="black" d="M886.81,-434.5C901.15,-424.36 920.49,-410.68 936.39,-399.44"/>
<polygon fill="black" stroke="black" points="938.67,-402.12 944.81,-393.49 934.62,-396.4 938.67,-402.12"/>
</g>
<!-- 7 -->
<g id="node5" class="node">
<title>7</title>
<ellipse fill="none" stroke="black" cx="1180.3" cy="-450" rx="40.09" ry="18"/>
<text text-anchor="middle" x="1180.3" y="-446.3" font-family="Times,serif" font-size="14.00">MULT7</text>
</g>
<!-- 29 -->
<g id="node30" class="node">
<title>29</title>
<ellipse fill="none" stroke="black" cx="1231.3" cy="-378" rx="38.19" ry="18"/>
<text text-anchor="middle" x="1231.3" y="-374.3" font-family="Times,serif" font-size="14.00">ADD29</text>
</g>
<!-- 7&#45;&gt;29 -->
<g id="edge6" class="edge">
<title>7&#45;&gt;29</title>
<path fill="none" stroke="black" d="M1192.13,-432.76C1198.5,-424.02 1206.49,-413.05 1213.59,-403.31"/>
<polygon fill="black" stroke="black" points="1216.47,-405.29 1219.53,-395.15 1210.81,-401.17 1216.47,-405.29"/>
</g>
<!-- 1 -->
<g id="node6" class="node">
<title>1</title>
<ellipse fill="none" stroke="black" cx="749.3" cy="-666" rx="27" ry="18"/>
<text text-anchor="middle" x="749.3" y="-662.3" font-family="Times,serif" font-size="14.00">1</text>
</g>
<!-- 57 -->
<g id="node58" class="node">
<title>57</title>
<ellipse fill="none" stroke="black" cx="444.3" cy="-594" rx="28.7" ry="18"/>
<text text-anchor="middle" x="444.3" y="-590.3" font-family="Times,serif" font-size="14.00">REG</text>
</g>
<!-- 1&#45;&gt;57 -->
<g id="edge7" class="edge">
<title>1&#45;&gt;57</title>
<path fill="none" stroke="black" d="M723.65,-659.67C679.67,-650.47 587.08,-630.75 509.3,-612 499.8,-609.71 489.57,-607.1 480.09,-604.63"/>
<polygon fill="black" stroke="black" points="480.74,-601.18 470.18,-602.01 478.95,-607.95 480.74,-601.18"/>
</g>
<!-- 58 -->
<g id="node59" class="node">
<title>58</title>
<ellipse fill="none" stroke="black" cx="969.3" cy="-594" rx="28.7" ry="18"/>
<text text-anchor="middle" x="969.3" y="-590.3" font-family="Times,serif" font-size="14.00">REG</text>
</g>
<!-- 1&#45;&gt;58 -->
<g id="edge8" class="edge">
<title>1&#45;&gt;58</title>
<path fill="none" stroke="black" d="M773.26,-657.38C812.29,-644.96 889.75,-620.31 934.73,-606"/>
<polygon fill="black" stroke="black" points="935.89,-609.3 944.35,-602.94 933.76,-602.63 935.89,-609.3"/>
</g>
<!-- 8 -->
<g id="node7" class="node">
<title>8</title>
<ellipse fill="none" stroke="black" cx="444.3" cy="-450" rx="40.09" ry="18"/>
<text text-anchor="middle" x="444.3" y="-446.3" font-family="Times,serif" font-size="14.00">MULT8</text>
</g>
<!-- 8&#45;&gt;20 -->
<g id="edge9" class="edge">
<title>8&#45;&gt;20</title>
<path fill="none" stroke="black" d="M444.3,-431.7C444.3,-423.98 444.3,-414.71 444.3,-406.11"/>
<polygon fill="black" stroke="black" points="447.8,-406.1 444.3,-396.1 440.8,-406.1 447.8,-406.1"/>
</g>
<!-- 9 -->
<g id="node8" class="node">
<title>9</title>
<ellipse fill="none" stroke="black" cx="139.3" cy="-450" rx="40.09" ry="18"/>
<text text-anchor="middle" x="139.3" y="-446.3" font-family="Times,serif" font-size="14.00">MULT9</text>
</g>
<!-- 9&#45;&gt;23 -->
<g id="edge10" class="edge">
<title>9&#45;&gt;23</title>
<path fill="none" stroke="black" d="M139.3,-431.7C139.3,-423.98 139.3,-414.71 139.3,-406.11"/>
<polygon fill="black" stroke="black" points="142.8,-406.1 139.3,-396.1 135.8,-406.1 142.8,-406.1"/>
</g>
<!-- 10 -->
<g id="node9" class="node">
<title>10</title>
<ellipse fill="none" stroke="black" cx="969.3" cy="-450" rx="44.69" ry="18"/>
<text text-anchor="middle" x="969.3" y="-446.3" font-family="Times,serif" font-size="14.00">MULT10</text>
</g>
<!-- 10&#45;&gt;26 -->
<g id="edge11" class="edge">
<title>10&#45;&gt;26</title>
<path fill="none" stroke="black" d="M968.31,-431.7C967.87,-423.98 967.34,-414.71 966.85,-406.11"/>
<polygon fill="black" stroke="black" points="970.34,-405.89 966.27,-396.1 963.35,-406.29 970.34,-405.89"/>
</g>
<!-- 11 -->
<g id="node10" class="node">
<title>11</title>
<ellipse fill="none" stroke="black" cx="1283.3" cy="-450" rx="44.69" ry="18"/>
<text text-anchor="middle" x="1283.3" y="-446.3" font-family="Times,serif" font-size="14.00">MULT11</text>
</g>
<!-- 11&#45;&gt;29 -->
<g id="edge12" class="edge">
<title>11&#45;&gt;29</title>
<path fill="none" stroke="black" d="M1270.97,-432.41C1264.63,-423.87 1256.76,-413.28 1249.71,-403.79"/>
<polygon fill="black" stroke="black" points="1252.3,-401.41 1243.53,-395.47 1246.68,-405.58 1252.3,-401.41"/>
</g>
<!-- 2 -->
<g id="node11" class="node">
<title>2</title>
<ellipse fill="none" stroke="black" cx="968.3" cy="-666" rx="27" ry="18"/>
<text text-anchor="middle" x="968.3" y="-662.3" font-family="Times,serif" font-size="14.00">2</text>
</g>
<!-- 59 -->
<g id="node60" class="node">
<title>59</title>
<ellipse fill="none" stroke="black" cx="763.3" cy="-594" rx="28.7" ry="18"/>
<text text-anchor="middle" x="763.3" y="-590.3" font-family="Times,serif" font-size="14.00">REG</text>
</g>
<!-- 2&#45;&gt;59 -->
<g id="edge13" class="edge">
<title>2&#45;&gt;59</title>
<path fill="none" stroke="black" d="M944.78,-656.97C908.64,-644.63 839.25,-620.94 797.53,-606.69"/>
<polygon fill="black" stroke="black" points="798.4,-603.29 787.81,-603.37 796.14,-609.91 798.4,-603.29"/>
</g>
<!-- 60 -->
<g id="node61" class="node">
<title>60</title>
<ellipse fill="none" stroke="black" cx="1499.3" cy="-594" rx="28.7" ry="18"/>
<text text-anchor="middle" x="1499.3" y="-590.3" font-family="Times,serif" font-size="14.00">REG</text>
</g>
<!-- 2&#45;&gt;60 -->
<g id="edge14" class="edge">
<title>2&#45;&gt;60</title>
<path fill="none" stroke="black" d="M994.63,-661.53C1081.54,-650.07 1359.5,-613.43 1461.39,-600"/>
<polygon fill="black" stroke="black" points="1462.08,-603.44 1471.53,-598.66 1461.16,-596.5 1462.08,-603.44"/>
</g>
<!-- 12 -->
<g id="node12" class="node">
<title>12</title>
<ellipse fill="none" stroke="black" cx="763.3" cy="-450" rx="44.69" ry="18"/>
<text text-anchor="middle" x="763.3" y="-446.3" font-family="Times,serif" font-size="14.00">MULT12</text>
</g>
<!-- 21 -->
<g id="node22" class="node">
<title>21</title>
<ellipse fill="none" stroke="black" cx="549.3" cy="-378" rx="38.19" ry="18"/>
<text text-anchor="middle" x="549.3" y="-374.3" font-family="Times,serif" font-size="14.00">ADD21</text>
</g>
<!-- 12&#45;&gt;21 -->
<g id="edge15" class="edge">
<title>12&#45;&gt;21</title>
<path fill="none" stroke="black" d="M729.39,-437.91C691.39,-425.48 629.83,-405.34 589.46,-392.14"/>
<polygon fill="black" stroke="black" points="590.52,-388.8 579.93,-389.02 588.34,-395.45 590.52,-388.8"/>
</g>
<!-- 13 -->
<g id="node13" class="node">
<title>13</title>
<ellipse fill="none" stroke="black" cx="655.3" cy="-450" rx="44.69" ry="18"/>
<text text-anchor="middle" x="655.3" y="-446.3" font-family="Times,serif" font-size="14.00">MULT13</text>
</g>
<!-- 24 -->
<g id="node25" class="node">
<title>24</title>
<ellipse fill="none" stroke="black" cx="296.3" cy="-378" rx="38.19" ry="18"/>
<text text-anchor="middle" x="296.3" y="-374.3" font-family="Times,serif" font-size="14.00">ADD24</text>
</g>
<!-- 13&#45;&gt;24 -->
<g id="edge16" class="edge">
<title>13&#45;&gt;24</title>
<path fill="none" stroke="black" d="M622.08,-437.78C615.25,-435.69 608.08,-433.65 601.3,-432 588.78,-428.96 423.82,-400.72 341.86,-386.75"/>
<polygon fill="black" stroke="black" points="342.27,-383.27 331.82,-385.04 341.09,-390.17 342.27,-383.27"/>
</g>
<!-- 14 -->
<g id="node14" class="node">
<title>14</title>
<ellipse fill="none" stroke="black" cx="1499.3" cy="-450" rx="44.69" ry="18"/>
<text text-anchor="middle" x="1499.3" y="-446.3" font-family="Times,serif" font-size="14.00">MULT14</text>
</g>
<!-- 27 -->
<g id="node28" class="node">
<title>27</title>
<ellipse fill="none" stroke="black" cx="1077.3" cy="-378" rx="38.19" ry="18"/>
<text text-anchor="middle" x="1077.3" y="-374.3" font-family="Times,serif" font-size="14.00">ADD27</text>
</g>
<!-- 14&#45;&gt;27 -->
<g id="edge17" class="edge">
<title>14&#45;&gt;27</title>
<path fill="none" stroke="black" d="M1466.41,-437.68C1459.49,-435.57 1452.2,-433.55 1445.3,-432 1331.05,-406.33 1300.13,-413.19 1184.3,-396 1164.11,-393 1141.81,-389.49 1122.82,-386.44"/>
<polygon fill="black" stroke="black" points="1123.36,-382.99 1112.93,-384.85 1122.25,-389.9 1123.36,-382.99"/>
</g>
<!-- 15 -->
<g id="node15" class="node">
<title>15</title>
<ellipse fill="none" stroke="black" cx="1607.3" cy="-450" rx="44.69" ry="18"/>
<text text-anchor="middle" x="1607.3" y="-446.3" font-family="Times,serif" font-size="14.00">MULT15</text>
</g>
<!-- 30 -->
<g id="node31" class="node">
<title>30</title>
<ellipse fill="none" stroke="black" cx="1391.3" cy="-378" rx="38.19" ry="18"/>
<text text-anchor="middle" x="1391.3" y="-374.3" font-family="Times,serif" font-size="14.00">ADD30</text>
</g>
<!-- 15&#45;&gt;30 -->
<g id="edge18" class="edge">
<title>15&#45;&gt;30</title>
<path fill="none" stroke="black" d="M1573.55,-438.06C1535.18,-425.63 1472.59,-405.34 1431.67,-392.08"/>
<polygon fill="black" stroke="black" points="1432.61,-388.71 1422.01,-388.95 1430.45,-395.37 1432.61,-388.71"/>
</g>
<!-- 3 -->
<g id="node16" class="node">
<title>3</title>
<ellipse fill="none" stroke="black" cx="871.3" cy="-666" rx="27" ry="18"/>
<text text-anchor="middle" x="871.3" y="-662.3" font-family="Times,serif" font-size="14.00">3</text>
</g>
<!-- 61 -->
<g id="node62" class="node">
<title>61</title>
<ellipse fill="none" stroke="black" cx="547.3" cy="-594" rx="28.7" ry="18"/>
<text text-anchor="middle" x="547.3" y="-590.3" font-family="Times,serif" font-size="14.00">REG</text>
</g>
<!-- 3&#45;&gt;61 -->
<g id="edge19" class="edge">
<title>3&#45;&gt;61</title>
<path fill="none" stroke="black" d="M845.87,-659.51C788.81,-647.18 650.34,-617.26 583.97,-602.92"/>
<polygon fill="black" stroke="black" points="584.47,-599.45 573.96,-600.76 582.99,-606.29 584.47,-599.45"/>
</g>
<!-- 62 -->
<g id="node63" class="node">
<title>62</title>
<ellipse fill="none" stroke="black" cx="1077.3" cy="-594" rx="28.7" ry="18"/>
<text text-anchor="middle" x="1077.3" y="-590.3" font-family="Times,serif" font-size="14.00">REG</text>
</g>
<!-- 3&#45;&gt;62 -->
<g id="edge20" class="edge">
<title>3&#45;&gt;62</title>
<path fill="none" stroke="black" d="M894.93,-656.97C931.32,-644.6 1001.27,-620.83 1043.16,-606.6"/>
<polygon fill="black" stroke="black" points="1044.32,-609.9 1052.67,-603.37 1042.07,-603.27 1044.32,-609.9"/>
</g>
<!-- 16 -->
<g id="node17" class="node">
<title>16</title>
<ellipse fill="none" stroke="black" cx="547.3" cy="-450" rx="44.69" ry="18"/>
<text text-anchor="middle" x="547.3" y="-446.3" font-family="Times,serif" font-size="14.00">MULT16</text>
</g>
<!-- 16&#45;&gt;21 -->
<g id="edge21" class="edge">
<title>16&#45;&gt;21</title>
<path fill="none" stroke="black" d="M547.79,-431.7C548.01,-423.98 548.28,-414.71 548.52,-406.11"/>
<polygon fill="black" stroke="black" points="552.02,-406.2 548.81,-396.1 545.02,-406 552.02,-406.2"/>
</g>
<!-- 17 -->
<g id="node18" class="node">
<title>17</title>
<ellipse fill="none" stroke="black" cx="242.3" cy="-450" rx="44.69" ry="18"/>
<text text-anchor="middle" x="242.3" y="-446.3" font-family="Times,serif" font-size="14.00">MULT17</text>
</g>
<!-- 17&#45;&gt;24 -->
<g id="edge22" class="edge">
<title>17&#45;&gt;24</title>
<path fill="none" stroke="black" d="M255.09,-432.41C261.75,-423.78 270.02,-413.06 277.4,-403.5"/>
<polygon fill="black" stroke="black" points="280.25,-405.53 283.59,-395.47 274.71,-401.25 280.25,-405.53"/>
</g>
<!-- 18 -->
<g id="node19" class="node">
<title>18</title>
<ellipse fill="none" stroke="black" cx="1077.3" cy="-450" rx="44.69" ry="18"/>
<text text-anchor="middle" x="1077.3" y="-446.3" font-family="Times,serif" font-size="14.00">MULT18</text>
</g>
<!-- 18&#45;&gt;27 -->
<g id="edge23" class="edge">
<title>18&#45;&gt;27</title>
<path fill="none" stroke="black" d="M1077.3,-431.7C1077.3,-423.98 1077.3,-414.71 1077.3,-406.11"/>
<polygon fill="black" stroke="black" points="1080.8,-406.1 1077.3,-396.1 1073.8,-406.1 1080.8,-406.1"/>
</g>
<!-- 19 -->
<g id="node20" class="node">
<title>19</title>
<ellipse fill="none" stroke="black" cx="1391.3" cy="-450" rx="44.69" ry="18"/>
<text text-anchor="middle" x="1391.3" y="-446.3" font-family="Times,serif" font-size="14.00">MULT19</text>
</g>
<!-- 19&#45;&gt;30 -->
<g id="edge24" class="edge">
<title>19&#45;&gt;30</title>
<path fill="none" stroke="black" d="M1391.3,-431.7C1391.3,-423.98 1391.3,-414.71 1391.3,-406.11"/>
<polygon fill="black" stroke="black" points="1394.8,-406.1 1391.3,-396.1 1387.8,-406.1 1394.8,-406.1"/>
</g>
<!-- 22 -->
<g id="node23" class="node">
<title>22</title>
<ellipse fill="none" stroke="black" cx="549.3" cy="-306" rx="38.19" ry="18"/>
<text text-anchor="middle" x="549.3" y="-302.3" font-family="Times,serif" font-size="14.00">ADD22</text>
</g>
<!-- 20&#45;&gt;22 -->
<g id="edge25" class="edge">
<title>20&#45;&gt;22</title>
<path fill="none" stroke="black" d="M465.54,-362.83C481.06,-352.49 502.29,-338.33 519.5,-326.86"/>
<polygon fill="black" stroke="black" points="521.7,-329.6 528.08,-321.14 517.82,-323.78 521.7,-329.6"/>
</g>
<!-- 21&#45;&gt;22 -->
<g id="edge26" class="edge">
<title>21&#45;&gt;22</title>
<path fill="none" stroke="black" d="M549.3,-359.7C549.3,-351.98 549.3,-342.71 549.3,-334.11"/>
<polygon fill="black" stroke="black" points="552.8,-334.1 549.3,-324.1 545.8,-334.1 552.8,-334.1"/>
</g>
<!-- 32 -->
<g id="node33" class="node">
<title>32</title>
<ellipse fill="none" stroke="black" cx="608.3" cy="-234" rx="35.19" ry="18"/>
<text text-anchor="middle" x="608.3" y="-230.3" font-family="Times,serif" font-size="14.00">SLT32</text>
</g>
<!-- 22&#45;&gt;32 -->
<g id="edge27" class="edge">
<title>22&#45;&gt;32</title>
<path fill="none" stroke="black" d="M562.68,-289.12C570.3,-280.08 579.99,-268.58 588.48,-258.52"/>
<polygon fill="black" stroke="black" points="591.19,-260.72 594.96,-250.82 585.84,-256.21 591.19,-260.72"/>
</g>
<!-- 25 -->
<g id="node26" class="node">
<title>25</title>
<ellipse fill="none" stroke="black" cx="296.3" cy="-306" rx="38.19" ry="18"/>
<text text-anchor="middle" x="296.3" y="-302.3" font-family="Times,serif" font-size="14.00">ADD25</text>
</g>
<!-- 23&#45;&gt;25 -->
<g id="edge28" class="edge">
<title>23&#45;&gt;25</title>
<path fill="none" stroke="black" d="M166.29,-364.97C192.2,-353.41 231.53,-335.88 260.14,-323.12"/>
<polygon fill="black" stroke="black" points="261.69,-326.26 269.4,-318.99 258.84,-319.87 261.69,-326.26"/>
</g>
<!-- 24&#45;&gt;25 -->
<g id="edge29" class="edge">
<title>24&#45;&gt;25</title>
<path fill="none" stroke="black" d="M296.3,-359.7C296.3,-351.98 296.3,-342.71 296.3,-334.11"/>
<polygon fill="black" stroke="black" points="299.8,-334.1 296.3,-324.1 292.8,-334.1 299.8,-334.1"/>
</g>
<!-- 25&#45;&gt;32 -->
<g id="edge30" class="edge">
<title>25&#45;&gt;32</title>
<path fill="none" stroke="black" d="M330.28,-297.38C387.88,-284.45 504.48,-258.29 566.8,-244.31"/>
<polygon fill="black" stroke="black" points="567.7,-247.7 576.69,-242.09 566.17,-240.87 567.7,-247.7"/>
</g>
<!-- 28 -->
<g id="node29" class="node">
<title>28</title>
<ellipse fill="none" stroke="black" cx="965.3" cy="-306" rx="38.19" ry="18"/>
<text text-anchor="middle" x="965.3" y="-302.3" font-family="Times,serif" font-size="14.00">ADD28</text>
</g>
<!-- 26&#45;&gt;28 -->
<g id="edge31" class="edge">
<title>26&#45;&gt;28</title>
<path fill="none" stroke="black" d="M965.3,-359.7C965.3,-351.98 965.3,-342.71 965.3,-334.11"/>
<polygon fill="black" stroke="black" points="968.8,-334.1 965.3,-324.1 961.8,-334.1 968.8,-334.1"/>
</g>
<!-- 27&#45;&gt;28 -->
<g id="edge32" class="edge">
<title>27&#45;&gt;28</title>
<path fill="none" stroke="black" d="M1055.17,-363.17C1038.22,-352.58 1014.64,-337.84 995.88,-326.11"/>
<polygon fill="black" stroke="black" points="997.71,-323.13 987.38,-320.8 994,-329.07 997.71,-323.13"/>
</g>
<!-- 34 -->
<g id="node35" class="node">
<title>34</title>
<ellipse fill="none" stroke="black" cx="847.3" cy="-234" rx="35.19" ry="18"/>
<text text-anchor="middle" x="847.3" y="-230.3" font-family="Times,serif" font-size="14.00">SLT34</text>
</g>
<!-- 28&#45;&gt;34 -->
<g id="edge33" class="edge">
<title>28&#45;&gt;34</title>
<path fill="none" stroke="black" d="M942.54,-291.5C924.31,-280.69 898.53,-265.39 878.39,-253.44"/>
<polygon fill="black" stroke="black" points="879.96,-250.31 869.58,-248.22 876.39,-256.33 879.96,-250.31"/>
</g>
<!-- 31 -->
<g id="node32" class="node">
<title>31</title>
<ellipse fill="none" stroke="black" cx="1231.3" cy="-306" rx="38.19" ry="18"/>
<text text-anchor="middle" x="1231.3" y="-302.3" font-family="Times,serif" font-size="14.00">ADD31</text>
</g>
<!-- 29&#45;&gt;31 -->
<g id="edge34" class="edge">
<title>29&#45;&gt;31</title>
<path fill="none" stroke="black" d="M1231.3,-359.7C1231.3,-351.98 1231.3,-342.71 1231.3,-334.11"/>
<polygon fill="black" stroke="black" points="1234.8,-334.1 1231.3,-324.1 1227.8,-334.1 1234.8,-334.1"/>
</g>
<!-- 30&#45;&gt;31 -->
<g id="edge35" class="edge">
<title>30&#45;&gt;31</title>
<path fill="none" stroke="black" d="M1364.15,-365.13C1337.64,-353.53 1297.11,-335.79 1267.78,-322.96"/>
<polygon fill="black" stroke="black" points="1268.87,-319.62 1258.3,-318.82 1266.06,-326.03 1268.87,-319.62"/>
</g>
<!-- 31&#45;&gt;34 -->
<g id="edge36" class="edge">
<title>31&#45;&gt;34</title>
<path fill="none" stroke="black" d="M1196.2,-298.6C1125.56,-285.72 966.44,-256.72 889.94,-242.77"/>
<polygon fill="black" stroke="black" points="890.18,-239.26 879.72,-240.91 888.93,-246.15 890.18,-239.26"/>
</g>
<!-- 33 -->
<g id="node34" class="node">
<title>33</title>
<ellipse fill="none" stroke="black" cx="637.3" cy="-162" rx="40.09" ry="18"/>
<text text-anchor="middle" x="637.3" y="-158.3" font-family="Times,serif" font-size="14.00">MUX33</text>
</g>
<!-- 32&#45;&gt;33 -->
<g id="edge37" class="edge">
<title>32&#45;&gt;33</title>
<path fill="none" stroke="black" d="M615.32,-216.05C618.66,-207.97 622.75,-198.12 626.48,-189.11"/>
<polygon fill="black" stroke="black" points="629.75,-190.37 630.34,-179.79 623.28,-187.69 629.75,-190.37"/>
</g>
<!-- 36 -->
<g id="node37" class="node">
<title>36</title>
<ellipse fill="none" stroke="black" cx="745.3" cy="-162" rx="35.19" ry="18"/>
<text text-anchor="middle" x="745.3" y="-158.3" font-family="Times,serif" font-size="14.00">SLT36</text>
</g>
<!-- 32&#45;&gt;36 -->
<g id="edge38" class="edge">
<title>32&#45;&gt;36</title>
<path fill="none" stroke="black" d="M632.47,-220.65C654.68,-209.3 687.77,-192.39 712.38,-179.82"/>
<polygon fill="black" stroke="black" points="714.05,-182.9 721.36,-175.23 710.86,-176.66 714.05,-182.9"/>
</g>
<!-- 37 -->
<g id="node38" class="node">
<title>37</title>
<ellipse fill="none" stroke="black" cx="745.3" cy="-90" rx="40.09" ry="18"/>
<text text-anchor="middle" x="745.3" y="-86.3" font-family="Times,serif" font-size="14.00">MUX37</text>
</g>
<!-- 33&#45;&gt;37 -->
<g id="edge39" class="edge">
<title>33&#45;&gt;37</title>
<path fill="none" stroke="black" d="M659.15,-146.83C675.11,-136.49 696.95,-122.33 714.65,-110.86"/>
<polygon fill="black" stroke="black" points="716.99,-113.52 723.47,-105.14 713.18,-107.65 716.99,-113.52"/>
</g>
<!-- 35 -->
<g id="node36" class="node">
<title>35</title>
<ellipse fill="none" stroke="black" cx="845.3" cy="-162" rx="40.09" ry="18"/>
<text text-anchor="middle" x="845.3" y="-158.3" font-family="Times,serif" font-size="14.00">MUX35</text>
</g>
<!-- 34&#45;&gt;35 -->
<g id="edge40" class="edge">
<title>34&#45;&gt;35</title>
<path fill="none" stroke="black" d="M846.8,-215.7C846.58,-207.98 846.32,-198.71 846.07,-190.11"/>
<polygon fill="black" stroke="black" points="849.57,-190 845.79,-180.1 842.57,-190.2 849.57,-190"/>
</g>
<!-- 34&#45;&gt;36 -->
<g id="edge41" class="edge">
<title>34&#45;&gt;36</title>
<path fill="none" stroke="black" d="M827.14,-219.17C811.92,-208.72 790.81,-194.24 773.85,-182.59"/>
<polygon fill="black" stroke="black" points="775.63,-179.57 765.41,-176.8 771.67,-185.35 775.63,-179.57"/>
</g>
<!-- 35&#45;&gt;37 -->
<g id="edge42" class="edge">
<title>35&#45;&gt;37</title>
<path fill="none" stroke="black" d="M824.58,-146.5C810.1,-136.36 790.56,-122.68 774.5,-111.44"/>
<polygon fill="black" stroke="black" points="776.19,-108.35 765.99,-105.49 772.18,-114.09 776.19,-108.35"/>
</g>
<!-- 36&#45;&gt;37 -->
<g id="edge43" class="edge">
<title>36&#45;&gt;37</title>
<path fill="none" stroke="black" d="M745.3,-143.7C745.3,-135.98 745.3,-126.71 745.3,-118.11"/>
<polygon fill="black" stroke="black" points="748.8,-118.1 745.3,-108.1 741.8,-118.1 748.8,-118.1"/>
</g>
<!-- 38 -->
<g id="node39" class="node">
<title>38</title>
<ellipse fill="none" stroke="black" cx="745.3" cy="-18" rx="27" ry="18"/>
<text text-anchor="middle" x="745.3" y="-14.3" font-family="Times,serif" font-size="14.00">K</text>
</g>
<!-- 37&#45;&gt;38 -->
<g id="edge44" class="edge">
<title>37&#45;&gt;38</title>
<path fill="none" stroke="black" d="M745.3,-71.7C745.3,-63.98 745.3,-54.71 745.3,-46.11"/>
<polygon fill="black" stroke="black" points="748.8,-46.1 745.3,-36.1 741.8,-46.1 748.8,-46.1"/>
</g>
<!-- 39 -->
<g id="node40" class="node">
<title>39</title>
<ellipse fill="none" stroke="black" cx="345.3" cy="-522" rx="27.9" ry="18"/>
<text text-anchor="middle" x="345.3" y="-518.3" font-family="Times,serif" font-size="14.00">SUB</text>
</g>
<!-- 39&#45;&gt;4 -->
<g id="edge45" class="edge">
<title>39&#45;&gt;4</title>
<path fill="none" stroke="black" d="M345.3,-503.7C345.3,-495.98 345.3,-486.71 345.3,-478.11"/>
<polygon fill="black" stroke="black" points="348.8,-478.1 345.3,-468.1 341.8,-478.1 348.8,-478.1"/>
</g>
<!-- 40 -->
<g id="node41" class="node">
<title>40</title>
<ellipse fill="none" stroke="black" cx="51.3" cy="-522" rx="27.9" ry="18"/>
<text text-anchor="middle" x="51.3" y="-518.3" font-family="Times,serif" font-size="14.00">SUB</text>
</g>
<!-- 40&#45;&gt;5 -->
<g id="edge46" class="edge">
<title>40&#45;&gt;5</title>
<path fill="none" stroke="black" d="M48.63,-504.05C47.42,-496.35 45.96,-487.03 44.6,-478.36"/>
<polygon fill="black" stroke="black" points="48.02,-477.61 43.01,-468.28 41.11,-478.7 48.02,-477.61"/>
</g>
<!-- 41 -->
<g id="node42" class="node">
<title>41</title>
<ellipse fill="none" stroke="black" cx="866.3" cy="-522" rx="27.9" ry="18"/>
<text text-anchor="middle" x="866.3" y="-518.3" font-family="Times,serif" font-size="14.00">SUB</text>
</g>
<!-- 41&#45;&gt;6 -->
<g id="edge47" class="edge">
<title>41&#45;&gt;6</title>
<path fill="none" stroke="black" d="M866.3,-503.7C866.3,-495.98 866.3,-486.71 866.3,-478.11"/>
<polygon fill="black" stroke="black" points="869.8,-478.1 866.3,-468.1 862.8,-478.1 869.8,-478.1"/>
</g>
<!-- 42 -->
<g id="node43" class="node">
<title>42</title>
<ellipse fill="none" stroke="black" cx="1166.3" cy="-522" rx="27.9" ry="18"/>
<text text-anchor="middle" x="1166.3" y="-518.3" font-family="Times,serif" font-size="14.00">SUB</text>
</g>
<!-- 42&#45;&gt;7 -->
<g id="edge48" class="edge">
<title>42&#45;&gt;7</title>
<path fill="none" stroke="black" d="M1169.69,-504.05C1171.23,-496.35 1173.09,-487.03 1174.82,-478.36"/>
<polygon fill="black" stroke="black" points="1178.31,-478.77 1176.84,-468.28 1171.45,-477.39 1178.31,-478.77"/>
</g>
<!-- 43 -->
<g id="node44" class="node">
<title>43</title>
<ellipse fill="none" stroke="black" cx="444.3" cy="-522" rx="27.9" ry="18"/>
<text text-anchor="middle" x="444.3" y="-518.3" font-family="Times,serif" font-size="14.00">SUB</text>
</g>
<!-- 43&#45;&gt;8 -->
<g id="edge49" class="edge">
<title>43&#45;&gt;8</title>
<path fill="none" stroke="black" d="M444.3,-503.7C444.3,-495.98 444.3,-486.71 444.3,-478.11"/>
<polygon fill="black" stroke="black" points="447.8,-478.1 444.3,-468.1 440.8,-478.1 447.8,-478.1"/>
</g>
<!-- 44 -->
<g id="node45" class="node">
<title>44</title>
<ellipse fill="none" stroke="black" cx="166.3" cy="-522" rx="27.9" ry="18"/>
<text text-anchor="middle" x="166.3" y="-518.3" font-family="Times,serif" font-size="14.00">SUB</text>
</g>
<!-- 44&#45;&gt;9 -->
<g id="edge50" class="edge">
<title>44&#45;&gt;9</title>
<path fill="none" stroke="black" d="M159.9,-504.41C156.78,-496.34 152.96,-486.43 149.46,-477.35"/>
<polygon fill="black" stroke="black" points="152.7,-476.03 145.84,-467.96 146.17,-478.55 152.7,-476.03"/>
</g>
<!-- 45 -->
<g id="node46" class="node">
<title>45</title>
<ellipse fill="none" stroke="black" cx="969.3" cy="-522" rx="27.9" ry="18"/>
<text text-anchor="middle" x="969.3" y="-518.3" font-family="Times,serif" font-size="14.00">SUB</text>
</g>
<!-- 45&#45;&gt;10 -->
<g id="edge51" class="edge">
<title>45&#45;&gt;10</title>
<path fill="none" stroke="black" d="M969.3,-503.7C969.3,-495.98 969.3,-486.71 969.3,-478.11"/>
<polygon fill="black" stroke="black" points="972.8,-478.1 969.3,-468.1 965.8,-478.1 972.8,-478.1"/>
</g>
<!-- 46 -->
<g id="node47" class="node">
<title>46</title>
<ellipse fill="none" stroke="black" cx="1262.3" cy="-522" rx="27.9" ry="18"/>
<text text-anchor="middle" x="1262.3" y="-518.3" font-family="Times,serif" font-size="14.00">SUB</text>
</g>
<!-- 46&#45;&gt;11 -->
<g id="edge52" class="edge">
<title>46&#45;&gt;11</title>
<path fill="none" stroke="black" d="M1267.38,-504.05C1269.72,-496.26 1272.55,-486.82 1275.17,-478.08"/>
<polygon fill="black" stroke="black" points="1278.59,-478.86 1278.11,-468.28 1271.89,-476.85 1278.59,-478.86"/>
</g>
<!-- 47 -->
<g id="node48" class="node">
<title>47</title>
<ellipse fill="none" stroke="black" cx="763.3" cy="-522" rx="27.9" ry="18"/>
<text text-anchor="middle" x="763.3" y="-518.3" font-family="Times,serif" font-size="14.00">SUB</text>
</g>
<!-- 47&#45;&gt;12 -->
<g id="edge53" class="edge">
<title>47&#45;&gt;12</title>
<path fill="none" stroke="black" d="M763.3,-503.7C763.3,-495.98 763.3,-486.71 763.3,-478.11"/>
<polygon fill="black" stroke="black" points="766.8,-478.1 763.3,-468.1 759.8,-478.1 766.8,-478.1"/>
</g>
<!-- 48 -->
<g id="node49" class="node">
<title>48</title>
<ellipse fill="none" stroke="black" cx="672.3" cy="-522" rx="27.9" ry="18"/>
<text text-anchor="middle" x="672.3" y="-518.3" font-family="Times,serif" font-size="14.00">SUB</text>
</g>
<!-- 48&#45;&gt;13 -->
<g id="edge54" class="edge">
<title>48&#45;&gt;13</title>
<path fill="none" stroke="black" d="M668.18,-504.05C666.29,-496.26 664,-486.82 661.87,-478.08"/>
<polygon fill="black" stroke="black" points="665.25,-477.17 659.49,-468.28 658.45,-478.82 665.25,-477.17"/>
</g>
<!-- 49 -->
<g id="node50" class="node">
<title>49</title>
<ellipse fill="none" stroke="black" cx="1499.3" cy="-522" rx="27.9" ry="18"/>
<text text-anchor="middle" x="1499.3" y="-518.3" font-family="Times,serif" font-size="14.00">SUB</text>
</g>
<!-- 49&#45;&gt;14 -->
<g id="edge55" class="edge">
<title>49&#45;&gt;14</title>
<path fill="none" stroke="black" d="M1499.3,-503.7C1499.3,-495.98 1499.3,-486.71 1499.3,-478.11"/>
<polygon fill="black" stroke="black" points="1502.8,-478.1 1499.3,-468.1 1495.8,-478.1 1502.8,-478.1"/>
</g>
<!-- 50 -->
<g id="node51" class="node">
<title>50</title>
<ellipse fill="none" stroke="black" cx="1590.3" cy="-522" rx="27.9" ry="18"/>
<text text-anchor="middle" x="1590.3" y="-518.3" font-family="Times,serif" font-size="14.00">SUB</text>
</g>
<!-- 50&#45;&gt;15 -->
<g id="edge56" class="edge">
<title>50&#45;&gt;15</title>
<path fill="none" stroke="black" d="M1594.41,-504.05C1596.3,-496.26 1598.6,-486.82 1600.72,-478.08"/>
<polygon fill="black" stroke="black" points="1604.14,-478.82 1603.1,-468.28 1597.34,-477.17 1604.14,-478.82"/>
</g>
<!-- 51 -->
<g id="node52" class="node">
<title>51</title>
<ellipse fill="none" stroke="black" cx="547.3" cy="-522" rx="27.9" ry="18"/>
<text text-anchor="middle" x="547.3" y="-518.3" font-family="Times,serif" font-size="14.00">SUB</text>
</g>
<!-- 51&#45;&gt;16 -->
<g id="edge57" class="edge">
<title>51&#45;&gt;16</title>
<path fill="none" stroke="black" d="M547.3,-503.7C547.3,-495.98 547.3,-486.71 547.3,-478.11"/>
<polygon fill="black" stroke="black" points="550.8,-478.1 547.3,-468.1 543.8,-478.1 550.8,-478.1"/>
</g>
<!-- 52 -->
<g id="node53" class="node">
<title>52</title>
<ellipse fill="none" stroke="black" cx="261.3" cy="-522" rx="27.9" ry="18"/>
<text text-anchor="middle" x="261.3" y="-518.3" font-family="Times,serif" font-size="14.00">SUB</text>
</g>
<!-- 52&#45;&gt;17 -->
<g id="edge58" class="edge">
<title>52&#45;&gt;17</title>
<path fill="none" stroke="black" d="M256.7,-504.05C254.58,-496.26 252.02,-486.82 249.65,-478.08"/>
<polygon fill="black" stroke="black" points="252.98,-477.01 246.99,-468.28 246.23,-478.84 252.98,-477.01"/>
</g>
<!-- 53 -->
<g id="node54" class="node">
<title>53</title>
<ellipse fill="none" stroke="black" cx="1077.3" cy="-522" rx="27.9" ry="18"/>
<text text-anchor="middle" x="1077.3" y="-518.3" font-family="Times,serif" font-size="14.00">SUB</text>
</g>
<!-- 53&#45;&gt;18 -->
<g id="edge59" class="edge">
<title>53&#45;&gt;18</title>
<path fill="none" stroke="black" d="M1077.3,-503.7C1077.3,-495.98 1077.3,-486.71 1077.3,-478.11"/>
<polygon fill="black" stroke="black" points="1080.8,-478.1 1077.3,-468.1 1073.8,-478.1 1080.8,-478.1"/>
</g>
<!-- 54 -->
<g id="node55" class="node">
<title>54</title>
<ellipse fill="none" stroke="black" cx="1364.3" cy="-522" rx="27.9" ry="18"/>
<text text-anchor="middle" x="1364.3" y="-518.3" font-family="Times,serif" font-size="14.00">SUB</text>
</g>
<!-- 54&#45;&gt;19 -->
<g id="edge60" class="edge">
<title>54&#45;&gt;19</title>
<path fill="none" stroke="black" d="M1370.7,-504.41C1373.81,-496.34 1377.63,-486.43 1381.13,-477.35"/>
<polygon fill="black" stroke="black" points="1384.42,-478.55 1384.76,-467.96 1377.89,-476.03 1384.42,-478.55"/>
</g>
<!-- 55&#45;&gt;39 -->
<g id="edge61" class="edge">
<title>55&#45;&gt;39</title>
<path fill="none" stroke="black" d="M345.3,-575.7C345.3,-567.98 345.3,-558.71 345.3,-550.11"/>
<polygon fill="black" stroke="black" points="348.8,-550.1 345.3,-540.1 341.8,-550.1 348.8,-550.1"/>
</g>
<!-- 55&#45;&gt;40 -->
<g id="edge62" class="edge">
<title>55&#45;&gt;40</title>
<path fill="none" stroke="black" d="M318.95,-586.73C266.05,-574.13 146.9,-545.76 87.04,-531.51"/>
<polygon fill="black" stroke="black" points="87.81,-528.1 77.27,-529.18 86.19,-534.91 87.81,-528.1"/>
</g>
<!-- 56&#45;&gt;41 -->
<g id="edge63" class="edge">
<title>56&#45;&gt;41</title>
<path fill="none" stroke="black" d="M866.3,-575.7C866.3,-567.98 866.3,-558.71 866.3,-550.11"/>
<polygon fill="black" stroke="black" points="869.8,-550.1 866.3,-540.1 862.8,-550.1 869.8,-550.1"/>
</g>
<!-- 56&#45;&gt;42 -->
<g id="edge64" class="edge">
<title>56&#45;&gt;42</title>
<path fill="none" stroke="black" d="M892.14,-585.85C904.03,-582.66 918.33,-578.97 931.3,-576 1012.1,-557.5 1034.09,-560.92 1114.3,-540 1120.24,-538.45 1126.51,-536.6 1132.54,-534.69"/>
<polygon fill="black" stroke="black" points="1133.97,-537.91 1142.4,-531.49 1131.81,-531.25 1133.97,-537.91"/>
</g>
<!-- 57&#45;&gt;43 -->
<g id="edge65" class="edge">
<title>57&#45;&gt;43</title>
<path fill="none" stroke="black" d="M444.3,-575.7C444.3,-567.98 444.3,-558.71 444.3,-550.11"/>
<polygon fill="black" stroke="black" points="447.8,-550.1 444.3,-540.1 440.8,-550.1 447.8,-550.1"/>
</g>
<!-- 57&#45;&gt;44 -->
<g id="edge66" class="edge">
<title>57&#45;&gt;44</title>
<path fill="none" stroke="black" d="M418.85,-585.61C407.93,-582.51 395.02,-578.96 383.3,-576 313.04,-558.27 294.43,-558.2 224.3,-540 216.67,-538.02 208.53,-535.74 200.83,-533.5"/>
<polygon fill="black" stroke="black" points="201.62,-530.09 191.04,-530.62 199.64,-536.81 201.62,-530.09"/>
</g>
<!-- 58&#45;&gt;45 -->
<g id="edge67" class="edge">
<title>58&#45;&gt;45</title>
<path fill="none" stroke="black" d="M969.3,-575.7C969.3,-567.98 969.3,-558.71 969.3,-550.11"/>
<polygon fill="black" stroke="black" points="972.8,-550.1 969.3,-540.1 965.8,-550.1 972.8,-550.1"/>
</g>
<!-- 58&#45;&gt;46 -->
<g id="edge68" class="edge">
<title>58&#45;&gt;46</title>
<path fill="none" stroke="black" d="M995.52,-586.48C1008.65,-583.26 1024.8,-579.35 1039.3,-576 1112,-559.19 1130.96,-558.34 1203.3,-540 1211.22,-537.99 1219.68,-535.66 1227.66,-533.38"/>
<polygon fill="black" stroke="black" points="1228.79,-536.7 1237.42,-530.55 1226.84,-529.98 1228.79,-536.7"/>
</g>
<!-- 59&#45;&gt;47 -->
<g id="edge69" class="edge">
<title>59&#45;&gt;47</title>
<path fill="none" stroke="black" d="M763.3,-575.7C763.3,-567.98 763.3,-558.71 763.3,-550.11"/>
<polygon fill="black" stroke="black" points="766.8,-550.1 763.3,-540.1 759.8,-550.1 766.8,-550.1"/>
</g>
<!-- 59&#45;&gt;48 -->
<g id="edge70" class="edge">
<title>59&#45;&gt;48</title>
<path fill="none" stroke="black" d="M745.75,-579.5C732.07,-568.98 712.88,-554.22 697.54,-542.42"/>
<polygon fill="black" stroke="black" points="699.54,-539.54 689.48,-536.22 695.27,-545.09 699.54,-539.54"/>
</g>
<!-- 60&#45;&gt;49 -->
<g id="edge71" class="edge">
<title>60&#45;&gt;49</title>
<path fill="none" stroke="black" d="M1499.3,-575.7C1499.3,-567.98 1499.3,-558.71 1499.3,-550.11"/>
<polygon fill="black" stroke="black" points="1502.8,-550.1 1499.3,-540.1 1495.8,-550.1 1502.8,-550.1"/>
</g>
<!-- 60&#45;&gt;50 -->
<g id="edge72" class="edge">
<title>60&#45;&gt;50</title>
<path fill="none" stroke="black" d="M1516.84,-579.5C1530.53,-568.98 1549.72,-554.22 1565.05,-542.42"/>
<polygon fill="black" stroke="black" points="1567.32,-545.09 1573.11,-536.22 1563.05,-539.54 1567.32,-545.09"/>
</g>
<!-- 61&#45;&gt;51 -->
<g id="edge73" class="edge">
<title>61&#45;&gt;51</title>
<path fill="none" stroke="black" d="M547.3,-575.7C547.3,-567.98 547.3,-558.71 547.3,-550.11"/>
<polygon fill="black" stroke="black" points="550.8,-550.1 547.3,-540.1 543.8,-550.1 550.8,-550.1"/>
</g>
<!-- 61&#45;&gt;52 -->
<g id="edge74" class="edge">
<title>61&#45;&gt;52</title>
<path fill="none" stroke="black" d="M521.44,-585.91C509.55,-582.73 495.24,-579.03 482.3,-576 405.4,-558 384.29,-561.49 308.3,-540 303.64,-538.68 298.77,-537.13 294.02,-535.51"/>
<polygon fill="black" stroke="black" points="295.11,-532.18 284.51,-532.14 292.77,-538.78 295.11,-532.18"/>
</g>
<!-- 62&#45;&gt;53 -->
<g id="edge75" class="edge">
<title>62&#45;&gt;53</title>
<path fill="none" stroke="black" d="M1077.3,-575.7C1077.3,-567.98 1077.3,-558.71 1077.3,-550.11"/>
<polygon fill="black" stroke="black" points="1080.8,-550.1 1077.3,-540.1 1073.8,-550.1 1080.8,-550.1"/>
</g>
<!-- 62&#45;&gt;54 -->
<g id="edge76" class="edge">
<title>62&#45;&gt;54</title>
<path fill="none" stroke="black" d="M1103.65,-586.9C1145.28,-577.22 1228.76,-557.64 1299.3,-540 1309.04,-537.56 1319.58,-534.84 1329.28,-532.31"/>
<polygon fill="black" stroke="black" points="1330.23,-535.67 1339.02,-529.75 1328.46,-528.9 1330.23,-535.67"/>
</g>
</g>
</svg>
