<?xml version="1.0" encoding="UTF-8" standalone="no"?>
<!DOCTYPE svg PUBLIC "-//W3C//DTD SVG 1.1//EN"
 "http://www.w3.org/Graphics/SVG/1.1/DTD/svg11.dtd">
<!-- Generated by graphviz version 2.43.0 (0)
 -->
<!-- Title: G Pages: 1 -->
<svg width="566pt" height="548pt"
 viewBox="0.00 0.00 566.00 548.00" xmlns="http://www.w3.org/2000/svg" xmlns:xlink="http://www.w3.org/1999/xlink">
<g id="graph0" class="graph" transform="scale(1 1) rotate(0) translate(4 544)">
<title>G</title>
<polygon fill="white" stroke="transparent" points="-4,4 -4,-544 562,-544 562,4 -4,4"/>
<!-- 0 -->
<g id="node1" class="node">
<title>0</title>
<ellipse fill="none" stroke="black" cx="171" cy="-450" rx="27" ry="18"/>
<text text-anchor="middle" x="171" y="-446.3" font-family="Times,serif" font-size="14.00">0</text>
</g>
<!-- 3 -->
<g id="node4" class="node">
<title>3</title>
<ellipse fill="none" stroke="black" cx="171" cy="-378" rx="27" ry="18"/>
<text text-anchor="middle" x="171" y="-374.3" font-family="Times,serif" font-size="14.00">3</text>
</g>
<!-- 0&#45;&gt;3 -->
<g id="edge1" class="edge">
<title>0&#45;&gt;3</title>
<path fill="none" stroke="black" d="M171,-431.7C171,-423.98 171,-414.71 171,-406.11"/>
<polygon fill="black" stroke="black" points="174.5,-406.1 171,-396.1 167.5,-406.1 174.5,-406.1"/>
</g>
<!-- 1 -->
<g id="node2" class="node">
<title>1</title>
<ellipse fill="none" stroke="black" cx="328" cy="-450" rx="27" ry="18"/>
<text text-anchor="middle" x="328" y="-446.3" font-family="Times,serif" font-size="14.00">1</text>
</g>
<!-- 4 -->
<g id="node5" class="node">
<title>4</title>
<ellipse fill="none" stroke="black" cx="328" cy="-378" rx="27" ry="18"/>
<text text-anchor="middle" x="328" y="-374.3" font-family="Times,serif" font-size="14.00">4</text>
</g>
<!-- 1&#45;&gt;4 -->
<g id="edge2" class="edge">
<title>1&#45;&gt;4</title>
<path fill="none" stroke="black" d="M328,-431.7C328,-423.98 328,-414.71 328,-406.11"/>
<polygon fill="black" stroke="black" points="331.5,-406.1 328,-396.1 324.5,-406.1 331.5,-406.1"/>
</g>
<!-- 2 -->
<g id="node3" class="node">
<title>2</title>
<ellipse fill="none" stroke="black" cx="459" cy="-90" rx="27" ry="18"/>
<text text-anchor="middle" x="459" y="-86.3" font-family="Times,serif" font-size="14.00">2</text>
</g>
<!-- 10 -->
<g id="node11" class="node">
<title>10</title>
<ellipse fill="none" stroke="black" cx="423" cy="-18" rx="27" ry="18"/>
<text text-anchor="middle" x="423" y="-14.3" font-family="Times,serif" font-size="14.00">10</text>
</g>
<!-- 2&#45;&gt;10 -->
<g id="edge3" class="edge">
<title>2&#45;&gt;10</title>
<path fill="none" stroke="black" d="M450.65,-72.76C446.29,-64.28 440.85,-53.71 435.96,-44.2"/>
<polygon fill="black" stroke="black" points="438.99,-42.44 431.3,-35.15 432.77,-45.64 438.99,-42.44"/>
</g>
<!-- 13 -->
<g id="node14" class="node">
<title>13</title>
<ellipse fill="none" stroke="black" cx="135" cy="-306" rx="27" ry="18"/>
<text text-anchor="middle" x="135" y="-302.3" font-family="Times,serif" font-size="14.00">13</text>
</g>
<!-- 3&#45;&gt;13 -->
<g id="edge4" class="edge">
<title>3&#45;&gt;13</title>
<path fill="none" stroke="black" d="M162.65,-360.76C158.29,-352.28 152.85,-341.71 147.96,-332.2"/>
<polygon fill="black" stroke="black" points="150.99,-330.44 143.3,-323.15 144.77,-333.64 150.99,-330.44"/>
</g>
<!-- 15 -->
<g id="node16" class="node">
<title>15</title>
<ellipse fill="none" stroke="black" cx="207" cy="-306" rx="27" ry="18"/>
<text text-anchor="middle" x="207" y="-302.3" font-family="Times,serif" font-size="14.00">15</text>
</g>
<!-- 3&#45;&gt;15 -->
<g id="edge5" class="edge">
<title>3&#45;&gt;15</title>
<path fill="none" stroke="black" d="M179.35,-360.76C183.71,-352.28 189.15,-341.71 194.04,-332.2"/>
<polygon fill="black" stroke="black" points="197.23,-333.64 198.7,-323.15 191.01,-330.44 197.23,-333.64"/>
</g>
<!-- 14 -->
<g id="node15" class="node">
<title>14</title>
<ellipse fill="none" stroke="black" cx="279" cy="-306" rx="27" ry="18"/>
<text text-anchor="middle" x="279" y="-302.3" font-family="Times,serif" font-size="14.00">14</text>
</g>
<!-- 4&#45;&gt;14 -->
<g id="edge6" class="edge">
<title>4&#45;&gt;14</title>
<path fill="none" stroke="black" d="M317.13,-361.46C310.84,-352.49 302.81,-341.02 295.74,-330.92"/>
<polygon fill="black" stroke="black" points="298.45,-328.68 289.84,-322.49 292.71,-332.69 298.45,-328.68"/>
</g>
<!-- 16 -->
<g id="node17" class="node">
<title>16</title>
<ellipse fill="none" stroke="black" cx="351" cy="-306" rx="27" ry="18"/>
<text text-anchor="middle" x="351" y="-302.3" font-family="Times,serif" font-size="14.00">16</text>
</g>
<!-- 4&#45;&gt;16 -->
<g id="edge7" class="edge">
<title>4&#45;&gt;16</title>
<path fill="none" stroke="black" d="M333.57,-360.05C336.2,-352.06 339.39,-342.33 342.33,-333.4"/>
<polygon fill="black" stroke="black" points="345.69,-334.38 345.48,-323.79 339.04,-332.2 345.69,-334.38"/>
</g>
<!-- 5 -->
<g id="node6" class="node">
<title>5</title>
<ellipse fill="none" stroke="black" cx="207" cy="-234" rx="27" ry="18"/>
<text text-anchor="middle" x="207" y="-230.3" font-family="Times,serif" font-size="14.00">5</text>
</g>
<!-- 18 -->
<g id="node19" class="node">
<title>18</title>
<ellipse fill="none" stroke="black" cx="171" cy="-162" rx="27" ry="18"/>
<text text-anchor="middle" x="171" y="-158.3" font-family="Times,serif" font-size="14.00">18</text>
</g>
<!-- 5&#45;&gt;18 -->
<g id="edge8" class="edge">
<title>5&#45;&gt;18</title>
<path fill="none" stroke="black" d="M198.65,-216.76C194.29,-208.28 188.85,-197.71 183.96,-188.2"/>
<polygon fill="black" stroke="black" points="186.99,-186.44 179.3,-179.15 180.77,-189.64 186.99,-186.44"/>
</g>
<!-- 20 -->
<g id="node21" class="node">
<title>20</title>
<ellipse fill="none" stroke="black" cx="243" cy="-162" rx="27" ry="18"/>
<text text-anchor="middle" x="243" y="-158.3" font-family="Times,serif" font-size="14.00">20</text>
</g>
<!-- 5&#45;&gt;20 -->
<g id="edge9" class="edge">
<title>5&#45;&gt;20</title>
<path fill="none" stroke="black" d="M215.35,-216.76C219.71,-208.28 225.15,-197.71 230.04,-188.2"/>
<polygon fill="black" stroke="black" points="233.23,-189.64 234.7,-179.15 227.01,-186.44 233.23,-189.64"/>
</g>
<!-- 6 -->
<g id="node7" class="node">
<title>6</title>
<ellipse fill="none" stroke="black" cx="333" cy="-234" rx="27" ry="18"/>
<text text-anchor="middle" x="333" y="-230.3" font-family="Times,serif" font-size="14.00">6</text>
</g>
<!-- 19 -->
<g id="node20" class="node">
<title>19</title>
<ellipse fill="none" stroke="black" cx="315" cy="-162" rx="27" ry="18"/>
<text text-anchor="middle" x="315" y="-158.3" font-family="Times,serif" font-size="14.00">19</text>
</g>
<!-- 6&#45;&gt;19 -->
<g id="edge10" class="edge">
<title>6&#45;&gt;19</title>
<path fill="none" stroke="black" d="M328.64,-216.05C326.61,-208.14 324.14,-198.54 321.86,-189.69"/>
<polygon fill="black" stroke="black" points="325.2,-188.6 319.32,-179.79 318.42,-190.35 325.2,-188.6"/>
</g>
<!-- 21 -->
<g id="node22" class="node">
<title>21</title>
<ellipse fill="none" stroke="black" cx="387" cy="-162" rx="27" ry="18"/>
<text text-anchor="middle" x="387" y="-158.3" font-family="Times,serif" font-size="14.00">21</text>
</g>
<!-- 6&#45;&gt;21 -->
<g id="edge11" class="edge">
<title>6&#45;&gt;21</title>
<path fill="none" stroke="black" d="M344.98,-217.46C351.98,-208.4 360.94,-196.79 368.79,-186.61"/>
<polygon fill="black" stroke="black" points="371.71,-188.55 375.05,-178.49 366.17,-184.27 371.71,-188.55"/>
</g>
<!-- 7 -->
<g id="node8" class="node">
<title>7</title>
<ellipse fill="none" stroke="black" cx="171" cy="-90" rx="27" ry="18"/>
<text text-anchor="middle" x="171" y="-86.3" font-family="Times,serif" font-size="14.00">7</text>
</g>
<!-- 9 -->
<g id="node10" class="node">
<title>9</title>
<ellipse fill="none" stroke="black" cx="135" cy="-18" rx="27" ry="18"/>
<text text-anchor="middle" x="135" y="-14.3" font-family="Times,serif" font-size="14.00">9</text>
</g>
<!-- 7&#45;&gt;9 -->
<g id="edge12" class="edge">
<title>7&#45;&gt;9</title>
<path fill="none" stroke="black" d="M162.65,-72.76C158.29,-64.28 152.85,-53.71 147.96,-44.2"/>
<polygon fill="black" stroke="black" points="150.99,-42.44 143.3,-35.15 144.77,-45.64 150.99,-42.44"/>
</g>
<!-- 8 -->
<g id="node9" class="node">
<title>8</title>
<ellipse fill="none" stroke="black" cx="387" cy="-90" rx="27" ry="18"/>
<text text-anchor="middle" x="387" y="-86.3" font-family="Times,serif" font-size="14.00">8</text>
</g>
<!-- 8&#45;&gt;10 -->
<g id="edge13" class="edge">
<title>8&#45;&gt;10</title>
<path fill="none" stroke="black" d="M395.35,-72.76C399.71,-64.28 405.15,-53.71 410.04,-44.2"/>
<polygon fill="black" stroke="black" points="413.23,-45.64 414.7,-35.15 407.01,-42.44 413.23,-45.64"/>
</g>
<!-- 11 -->
<g id="node12" class="node">
<title>11</title>
<ellipse fill="none" stroke="black" cx="99" cy="-90" rx="27" ry="18"/>
<text text-anchor="middle" x="99" y="-86.3" font-family="Times,serif" font-size="14.00">11</text>
</g>
<!-- 11&#45;&gt;9 -->
<g id="edge14" class="edge">
<title>11&#45;&gt;9</title>
<path fill="none" stroke="black" d="M107.35,-72.76C111.71,-64.28 117.15,-53.71 122.04,-44.2"/>
<polygon fill="black" stroke="black" points="125.23,-45.64 126.7,-35.15 119.01,-42.44 125.23,-45.64"/>
</g>
<!-- 12 -->
<g id="node13" class="node">
<title>12</title>
<ellipse fill="none" stroke="black" cx="27" cy="-162" rx="27" ry="18"/>
<text text-anchor="middle" x="27" y="-158.3" font-family="Times,serif" font-size="14.00">12</text>
</g>
<!-- 12&#45;&gt;11 -->
<g id="edge15" class="edge">
<title>12&#45;&gt;11</title>
<path fill="none" stroke="black" d="M41.57,-146.83C51.75,-136.94 65.52,-123.55 77.03,-112.36"/>
<polygon fill="black" stroke="black" points="79.47,-114.87 84.2,-105.38 74.59,-109.85 79.47,-114.87"/>
</g>
<!-- 13&#45;&gt;5 -->
<g id="edge16" class="edge">
<title>13&#45;&gt;5</title>
<path fill="none" stroke="black" d="M149.57,-290.83C159.75,-280.94 173.52,-267.55 185.03,-256.36"/>
<polygon fill="black" stroke="black" points="187.47,-258.87 192.2,-249.38 182.59,-253.85 187.47,-258.87"/>
</g>
<!-- 14&#45;&gt;5 -->
<g id="edge17" class="edge">
<title>14&#45;&gt;5</title>
<path fill="none" stroke="black" d="M264.43,-290.83C254.25,-280.94 240.48,-267.55 228.97,-256.36"/>
<polygon fill="black" stroke="black" points="231.41,-253.85 221.8,-249.38 226.53,-258.87 231.41,-253.85"/>
</g>
<!-- 15&#45;&gt;6 -->
<g id="edge18" class="edge">
<title>15&#45;&gt;6</title>
<path fill="none" stroke="black" d="M227.24,-293.75C248,-282.22 280.48,-264.18 303.98,-251.12"/>
<polygon fill="black" stroke="black" points="305.76,-254.13 312.81,-246.22 302.36,-248.02 305.76,-254.13"/>
</g>
<!-- 16&#45;&gt;6 -->
<g id="edge19" class="edge">
<title>16&#45;&gt;6</title>
<path fill="none" stroke="black" d="M346.64,-288.05C344.61,-280.14 342.14,-270.54 339.86,-261.69"/>
<polygon fill="black" stroke="black" points="343.2,-260.6 337.32,-251.79 336.42,-262.35 343.2,-260.6"/>
</g>
<!-- 17 -->
<g id="node18" class="node">
<title>17</title>
<ellipse fill="none" stroke="black" cx="99" cy="-162" rx="27" ry="18"/>
<text text-anchor="middle" x="99" y="-158.3" font-family="Times,serif" font-size="14.00">17</text>
</g>
<!-- 17&#45;&gt;11 -->
<g id="edge20" class="edge">
<title>17&#45;&gt;11</title>
<path fill="none" stroke="black" d="M99,-143.7C99,-135.98 99,-126.71 99,-118.11"/>
<polygon fill="black" stroke="black" points="102.5,-118.1 99,-108.1 95.5,-118.1 102.5,-118.1"/>
</g>
<!-- 18&#45;&gt;7 -->
<g id="edge21" class="edge">
<title>18&#45;&gt;7</title>
<path fill="none" stroke="black" d="M171,-143.7C171,-135.98 171,-126.71 171,-118.11"/>
<polygon fill="black" stroke="black" points="174.5,-118.1 171,-108.1 167.5,-118.1 174.5,-118.1"/>
</g>
<!-- 19&#45;&gt;7 -->
<g id="edge22" class="edge">
<title>19&#45;&gt;7</title>
<path fill="none" stroke="black" d="M293.75,-150.67C269.4,-138.83 229.28,-119.33 201.57,-105.86"/>
<polygon fill="black" stroke="black" points="202.86,-102.6 192.33,-101.37 199.8,-108.89 202.86,-102.6"/>
</g>
<!-- 20&#45;&gt;8 -->
<g id="edge23" class="edge">
<title>20&#45;&gt;8</title>
<path fill="none" stroke="black" d="M264.25,-150.67C288.6,-138.83 328.72,-119.33 356.43,-105.86"/>
<polygon fill="black" stroke="black" points="358.2,-108.89 365.67,-101.37 355.14,-102.6 358.2,-108.89"/>
</g>
<!-- 21&#45;&gt;8 -->
<g id="edge24" class="edge">
<title>21&#45;&gt;8</title>
<path fill="none" stroke="black" d="M387,-143.7C387,-135.98 387,-126.71 387,-118.11"/>
<polygon fill="black" stroke="black" points="390.5,-118.1 387,-108.1 383.5,-118.1 390.5,-118.1"/>
</g>
<!-- 22 -->
<g id="node23" class="node">
<title>22</title>
<ellipse fill="none" stroke="black" cx="144" cy="-522" rx="27" ry="18"/>
<text text-anchor="middle" x="144" y="-518.3" font-family="Times,serif" font-size="14.00">22</text>
</g>
<!-- 22&#45;&gt;0 -->
<g id="edge25" class="edge">
<title>22&#45;&gt;0</title>
<path fill="none" stroke="black" d="M150.4,-504.41C153.51,-496.34 157.33,-486.43 160.83,-477.35"/>
<polygon fill="black" stroke="black" points="164.13,-478.55 164.46,-467.96 157.6,-476.03 164.13,-478.55"/>
</g>
<!-- 23 -->
<g id="node24" class="node">
<title>23</title>
<ellipse fill="none" stroke="black" cx="216" cy="-522" rx="27" ry="18"/>
<text text-anchor="middle" x="216" y="-518.3" font-family="Times,serif" font-size="14.00">23</text>
</g>
<!-- 23&#45;&gt;0 -->
<g id="edge26" class="edge">
<title>23&#45;&gt;0</title>
<path fill="none" stroke="black" d="M205.79,-505.12C200.15,-496.34 193.03,-485.26 186.7,-475.42"/>
<polygon fill="black" stroke="black" points="189.52,-473.34 181.17,-466.82 183.63,-477.13 189.52,-473.34"/>
</g>
<!-- 24 -->
<g id="node25" class="node">
<title>24</title>
<ellipse fill="none" stroke="black" cx="310" cy="-522" rx="27" ry="18"/>
<text text-anchor="middle" x="310" y="-518.3" font-family="Times,serif" font-size="14.00">24</text>
</g>
<!-- 24&#45;&gt;1 -->
<g id="edge27" class="edge">
<title>24&#45;&gt;1</title>
<path fill="none" stroke="black" d="M314.36,-504.05C316.39,-496.14 318.86,-486.54 321.14,-477.69"/>
<polygon fill="black" stroke="black" points="324.58,-478.35 323.68,-467.79 317.8,-476.6 324.58,-478.35"/>
</g>
<!-- 25 -->
<g id="node26" class="node">
<title>25</title>
<ellipse fill="none" stroke="black" cx="382" cy="-522" rx="27" ry="18"/>
<text text-anchor="middle" x="382" y="-518.3" font-family="Times,serif" font-size="14.00">25</text>
</g>
<!-- 25&#45;&gt;1 -->
<g id="edge28" class="edge">
<title>25&#45;&gt;1</title>
<path fill="none" stroke="black" d="M370.02,-505.46C363.02,-496.4 354.06,-484.79 346.21,-474.61"/>
<polygon fill="black" stroke="black" points="348.83,-472.27 339.95,-466.49 343.29,-476.55 348.83,-472.27"/>
</g>
<!-- 26 -->
<g id="node27" class="node">
<title>26</title>
<ellipse fill="none" stroke="black" cx="459" cy="-162" rx="27" ry="18"/>
<text text-anchor="middle" x="459" y="-158.3" font-family="Times,serif" font-size="14.00">26</text>
</g>
<!-- 26&#45;&gt;2 -->
<g id="edge29" class="edge">
<title>26&#45;&gt;2</title>
<path fill="none" stroke="black" d="M459,-143.7C459,-135.98 459,-126.71 459,-118.11"/>
<polygon fill="black" stroke="black" points="462.5,-118.1 459,-108.1 455.5,-118.1 462.5,-118.1"/>
</g>
<!-- 27 -->
<g id="node28" class="node">
<title>27</title>
<ellipse fill="none" stroke="black" cx="531" cy="-162" rx="27" ry="18"/>
<text text-anchor="middle" x="531" y="-158.3" font-family="Times,serif" font-size="14.00">27</text>
</g>
<!-- 27&#45;&gt;2 -->
<g id="edge30" class="edge">
<title>27&#45;&gt;2</title>
<path fill="none" stroke="black" d="M516.43,-146.83C506.25,-136.94 492.48,-123.55 480.97,-112.36"/>
<polygon fill="black" stroke="black" points="483.41,-109.85 473.8,-105.38 478.53,-114.87 483.41,-109.85"/>
</g>
</g>
</svg>
