<?xml version="1.0" encoding="UTF-8" standalone="no"?>
<!DOCTYPE svg PUBLIC "-//W3C//DTD SVG 1.1//EN"
 "http://www.w3.org/Graphics/SVG/1.1/DTD/svg11.dtd">
<!-- Generated by graphviz version 2.43.0 (0)
 -->
<!-- Title: G Pages: 1 -->
<svg width="1533pt" height="620pt"
 viewBox="0.00 0.00 1533.00 620.00" xmlns="http://www.w3.org/2000/svg" xmlns:xlink="http://www.w3.org/1999/xlink">
<g id="graph0" class="graph" transform="scale(1 1) rotate(0) translate(4 616)">
<title>G</title>
<polygon fill="white" stroke="transparent" points="-4,4 -4,-616 1529,-616 1529,4 -4,4"/>
<!-- 0 -->
<g id="node1" class="node">
<title>0</title>
<ellipse fill="none" stroke="black" cx="117" cy="-450" rx="27" ry="18"/>
<text text-anchor="middle" x="117" y="-446.3" font-family="Times,serif" font-size="14.00">0</text>
</g>
<!-- 22 -->
<g id="node23" class="node">
<title>22</title>
<ellipse fill="none" stroke="black" cx="153" cy="-378" rx="27" ry="18"/>
<text text-anchor="middle" x="153" y="-374.3" font-family="Times,serif" font-size="14.00">22</text>
</g>
<!-- 0&#45;&gt;22 -->
<g id="edge1" class="edge">
<title>0&#45;&gt;22</title>
<path fill="none" stroke="black" d="M125.35,-432.76C129.71,-424.28 135.15,-413.71 140.04,-404.2"/>
<polygon fill="black" stroke="black" points="143.23,-405.64 144.7,-395.15 137.01,-402.44 143.23,-405.64"/>
</g>
<!-- 1 -->
<g id="node2" class="node">
<title>1</title>
<ellipse fill="none" stroke="black" cx="711" cy="-450" rx="27" ry="18"/>
<text text-anchor="middle" x="711" y="-446.3" font-family="Times,serif" font-size="14.00">1</text>
</g>
<!-- 3 -->
<g id="node4" class="node">
<title>3</title>
<ellipse fill="none" stroke="black" cx="747" cy="-378" rx="27" ry="18"/>
<text text-anchor="middle" x="747" y="-374.3" font-family="Times,serif" font-size="14.00">3</text>
</g>
<!-- 1&#45;&gt;3 -->
<g id="edge2" class="edge">
<title>1&#45;&gt;3</title>
<path fill="none" stroke="black" d="M719.35,-432.76C723.71,-424.28 729.15,-413.71 734.04,-404.2"/>
<polygon fill="black" stroke="black" points="737.23,-405.64 738.7,-395.15 731.01,-402.44 737.23,-405.64"/>
</g>
<!-- 2 -->
<g id="node3" class="node">
<title>2</title>
<ellipse fill="none" stroke="black" cx="783" cy="-450" rx="27" ry="18"/>
<text text-anchor="middle" x="783" y="-446.3" font-family="Times,serif" font-size="14.00">2</text>
</g>
<!-- 2&#45;&gt;3 -->
<g id="edge3" class="edge">
<title>2&#45;&gt;3</title>
<path fill="none" stroke="black" d="M774.65,-432.76C770.29,-424.28 764.85,-413.71 759.96,-404.2"/>
<polygon fill="black" stroke="black" points="762.99,-402.44 755.3,-395.15 756.77,-405.64 762.99,-402.44"/>
</g>
<!-- 6 -->
<g id="node7" class="node">
<title>6</title>
<ellipse fill="none" stroke="black" cx="891" cy="-306" rx="27" ry="18"/>
<text text-anchor="middle" x="891" y="-302.3" font-family="Times,serif" font-size="14.00">6</text>
</g>
<!-- 3&#45;&gt;6 -->
<g id="edge6" class="edge">
<title>3&#45;&gt;6</title>
<path fill="none" stroke="black" d="M768.25,-366.67C792.6,-354.83 832.72,-335.33 860.43,-321.86"/>
<polygon fill="black" stroke="black" points="862.2,-324.89 869.67,-317.37 859.14,-318.6 862.2,-324.89"/>
</g>
<!-- 26 -->
<g id="node27" class="node">
<title>26</title>
<ellipse fill="none" stroke="black" cx="747" cy="-306" rx="27" ry="18"/>
<text text-anchor="middle" x="747" y="-302.3" font-family="Times,serif" font-size="14.00">26</text>
</g>
<!-- 3&#45;&gt;26 -->
<g id="edge5" class="edge">
<title>3&#45;&gt;26</title>
<path fill="none" stroke="black" d="M747,-359.7C747,-351.98 747,-342.71 747,-334.11"/>
<polygon fill="black" stroke="black" points="750.5,-334.1 747,-324.1 743.5,-334.1 750.5,-334.1"/>
</g>
<!-- 27 -->
<g id="node28" class="node">
<title>27</title>
<ellipse fill="none" stroke="black" cx="315" cy="-306" rx="27" ry="18"/>
<text text-anchor="middle" x="315" y="-302.3" font-family="Times,serif" font-size="14.00">27</text>
</g>
<!-- 3&#45;&gt;27 -->
<g id="edge4" class="edge">
<title>3&#45;&gt;27</title>
<path fill="none" stroke="black" d="M719.99,-376.23C655.08,-373.79 485.71,-363.78 351,-324 349.06,-323.43 347.1,-322.76 345.13,-322.04"/>
<polygon fill="black" stroke="black" points="346.09,-318.64 335.51,-318.01 343.39,-325.1 346.09,-318.64"/>
</g>
<!-- 4 -->
<g id="node5" class="node">
<title>4</title>
<ellipse fill="none" stroke="black" cx="567" cy="-594" rx="27" ry="18"/>
<text text-anchor="middle" x="567" y="-590.3" font-family="Times,serif" font-size="14.00">4</text>
</g>
<!-- 5 -->
<g id="node6" class="node">
<title>5</title>
<ellipse fill="none" stroke="black" cx="891" cy="-378" rx="27" ry="18"/>
<text text-anchor="middle" x="891" y="-374.3" font-family="Times,serif" font-size="14.00">5</text>
</g>
<!-- 5&#45;&gt;6 -->
<g id="edge7" class="edge">
<title>5&#45;&gt;6</title>
<path fill="none" stroke="black" d="M891,-359.7C891,-351.98 891,-342.71 891,-334.11"/>
<polygon fill="black" stroke="black" points="894.5,-334.1 891,-324.1 887.5,-334.1 894.5,-334.1"/>
</g>
<!-- 50 -->
<g id="node51" class="node">
<title>50</title>
<ellipse fill="none" stroke="black" cx="891" cy="-234" rx="27" ry="18"/>
<text text-anchor="middle" x="891" y="-230.3" font-family="Times,serif" font-size="14.00">50</text>
</g>
<!-- 6&#45;&gt;50 -->
<g id="edge8" class="edge">
<title>6&#45;&gt;50</title>
<path fill="none" stroke="black" d="M891,-287.7C891,-279.98 891,-270.71 891,-262.11"/>
<polygon fill="black" stroke="black" points="894.5,-262.1 891,-252.1 887.5,-262.1 894.5,-262.1"/>
</g>
<!-- 53 -->
<g id="node54" class="node">
<title>53</title>
<ellipse fill="none" stroke="black" cx="1179" cy="-234" rx="27" ry="18"/>
<text text-anchor="middle" x="1179" y="-230.3" font-family="Times,serif" font-size="14.00">53</text>
</g>
<!-- 6&#45;&gt;53 -->
<g id="edge9" class="edge">
<title>6&#45;&gt;53</title>
<path fill="none" stroke="black" d="M917.29,-301.54C963.72,-294.98 1062.91,-278.92 1143,-252 1144.92,-251.36 1146.86,-250.64 1148.81,-249.87"/>
<polygon fill="black" stroke="black" points="1150.6,-252.91 1158.4,-245.74 1147.83,-246.48 1150.6,-252.91"/>
</g>
<!-- 7 -->
<g id="node8" class="node">
<title>7</title>
<ellipse fill="none" stroke="black" cx="1300" cy="-378" rx="27" ry="18"/>
<text text-anchor="middle" x="1300" y="-374.3" font-family="Times,serif" font-size="14.00">7</text>
</g>
<!-- 9 -->
<g id="node10" class="node">
<title>9</title>
<ellipse fill="none" stroke="black" cx="1264" cy="-306" rx="27" ry="18"/>
<text text-anchor="middle" x="1264" y="-302.3" font-family="Times,serif" font-size="14.00">9</text>
</g>
<!-- 7&#45;&gt;9 -->
<g id="edge10" class="edge">
<title>7&#45;&gt;9</title>
<path fill="none" stroke="black" d="M1291.65,-360.76C1287.29,-352.28 1281.85,-341.71 1276.96,-332.2"/>
<polygon fill="black" stroke="black" points="1279.99,-330.44 1272.3,-323.15 1273.77,-333.64 1279.99,-330.44"/>
</g>
<!-- 8 -->
<g id="node9" class="node">
<title>8</title>
<ellipse fill="none" stroke="black" cx="1228" cy="-378" rx="27" ry="18"/>
<text text-anchor="middle" x="1228" y="-374.3" font-family="Times,serif" font-size="14.00">8</text>
</g>
<!-- 8&#45;&gt;9 -->
<g id="edge11" class="edge">
<title>8&#45;&gt;9</title>
<path fill="none" stroke="black" d="M1236.35,-360.76C1240.71,-352.28 1246.15,-341.71 1251.04,-332.2"/>
<polygon fill="black" stroke="black" points="1254.23,-333.64 1255.7,-323.15 1248.01,-330.44 1254.23,-333.64"/>
</g>
<!-- 51 -->
<g id="node52" class="node">
<title>51</title>
<ellipse fill="none" stroke="black" cx="1251" cy="-234" rx="27" ry="18"/>
<text text-anchor="middle" x="1251" y="-230.3" font-family="Times,serif" font-size="14.00">51</text>
</g>
<!-- 9&#45;&gt;51 -->
<g id="edge13" class="edge">
<title>9&#45;&gt;51</title>
<path fill="none" stroke="black" d="M1260.85,-288.05C1259.42,-280.35 1257.69,-271.03 1256.08,-262.36"/>
<polygon fill="black" stroke="black" points="1259.48,-261.47 1254.21,-252.28 1252.59,-262.75 1259.48,-261.47"/>
</g>
<!-- 52 -->
<g id="node53" class="node">
<title>52</title>
<ellipse fill="none" stroke="black" cx="1467" cy="-234" rx="27" ry="18"/>
<text text-anchor="middle" x="1467" y="-230.3" font-family="Times,serif" font-size="14.00">52</text>
</g>
<!-- 9&#45;&gt;52 -->
<g id="edge12" class="edge">
<title>9&#45;&gt;52</title>
<path fill="none" stroke="black" d="M1288.7,-298.28C1321.61,-289.08 1381.45,-271.46 1431,-252 1432.83,-251.28 1434.7,-250.51 1436.58,-249.71"/>
<polygon fill="black" stroke="black" points="1438.19,-252.83 1445.89,-245.55 1435.33,-246.44 1438.19,-252.83"/>
</g>
<!-- 10 -->
<g id="node11" class="node">
<title>10</title>
<ellipse fill="none" stroke="black" cx="1498" cy="-378" rx="27" ry="18"/>
<text text-anchor="middle" x="1498" y="-374.3" font-family="Times,serif" font-size="14.00">10</text>
</g>
<!-- 13 -->
<g id="node14" class="node">
<title>13</title>
<ellipse fill="none" stroke="black" cx="1453" cy="-306" rx="27" ry="18"/>
<text text-anchor="middle" x="1453" y="-302.3" font-family="Times,serif" font-size="14.00">13</text>
</g>
<!-- 10&#45;&gt;13 -->
<g id="edge14" class="edge">
<title>10&#45;&gt;13</title>
<path fill="none" stroke="black" d="M1487.79,-361.12C1482.15,-352.34 1475.03,-341.26 1468.7,-331.42"/>
<polygon fill="black" stroke="black" points="1471.52,-329.34 1463.17,-322.82 1465.63,-333.13 1471.52,-329.34"/>
</g>
<!-- 11 -->
<g id="node12" class="node">
<title>11</title>
<ellipse fill="none" stroke="black" cx="189" cy="-450" rx="27" ry="18"/>
<text text-anchor="middle" x="189" y="-446.3" font-family="Times,serif" font-size="14.00">11</text>
</g>
<!-- 11&#45;&gt;22 -->
<g id="edge15" class="edge">
<title>11&#45;&gt;22</title>
<path fill="none" stroke="black" d="M180.65,-432.76C176.29,-424.28 170.85,-413.71 165.96,-404.2"/>
<polygon fill="black" stroke="black" points="168.99,-402.44 161.3,-395.15 162.77,-405.64 168.99,-402.44"/>
</g>
<!-- 12 -->
<g id="node13" class="node">
<title>12</title>
<ellipse fill="none" stroke="black" cx="1426" cy="-378" rx="27" ry="18"/>
<text text-anchor="middle" x="1426" y="-374.3" font-family="Times,serif" font-size="14.00">12</text>
</g>
<!-- 12&#45;&gt;13 -->
<g id="edge16" class="edge">
<title>12&#45;&gt;13</title>
<path fill="none" stroke="black" d="M1432.4,-360.41C1435.51,-352.34 1439.33,-342.43 1442.83,-333.35"/>
<polygon fill="black" stroke="black" points="1446.13,-334.55 1446.46,-323.96 1439.6,-332.03 1446.13,-334.55"/>
</g>
<!-- 13&#45;&gt;51 -->
<g id="edge18" class="edge">
<title>13&#45;&gt;51</title>
<path fill="none" stroke="black" d="M1428.46,-298.27C1395.74,-289.04 1336.26,-271.4 1287,-252 1285.17,-251.28 1283.3,-250.51 1281.42,-249.7"/>
<polygon fill="black" stroke="black" points="1282.67,-246.43 1272.12,-245.54 1279.81,-252.82 1282.67,-246.43"/>
</g>
<!-- 13&#45;&gt;52 -->
<g id="edge17" class="edge">
<title>13&#45;&gt;52</title>
<path fill="none" stroke="black" d="M1456.39,-288.05C1457.93,-280.35 1459.79,-271.03 1461.53,-262.36"/>
<polygon fill="black" stroke="black" points="1465.02,-262.77 1463.54,-252.28 1458.15,-261.39 1465.02,-262.77"/>
</g>
<!-- 14 -->
<g id="node15" class="node">
<title>14</title>
<ellipse fill="none" stroke="black" cx="1120" cy="-378" rx="27" ry="18"/>
<text text-anchor="middle" x="1120" y="-374.3" font-family="Times,serif" font-size="14.00">14</text>
</g>
<!-- 16 -->
<g id="node17" class="node">
<title>16</title>
<ellipse fill="none" stroke="black" cx="1084" cy="-306" rx="27" ry="18"/>
<text text-anchor="middle" x="1084" y="-302.3" font-family="Times,serif" font-size="14.00">16</text>
</g>
<!-- 14&#45;&gt;16 -->
<g id="edge19" class="edge">
<title>14&#45;&gt;16</title>
<path fill="none" stroke="black" d="M1111.65,-360.76C1107.29,-352.28 1101.85,-341.71 1096.96,-332.2"/>
<polygon fill="black" stroke="black" points="1099.99,-330.44 1092.3,-323.15 1093.77,-333.64 1099.99,-330.44"/>
</g>
<!-- 15 -->
<g id="node16" class="node">
<title>15</title>
<ellipse fill="none" stroke="black" cx="1048" cy="-378" rx="27" ry="18"/>
<text text-anchor="middle" x="1048" y="-374.3" font-family="Times,serif" font-size="14.00">15</text>
</g>
<!-- 15&#45;&gt;16 -->
<g id="edge20" class="edge">
<title>15&#45;&gt;16</title>
<path fill="none" stroke="black" d="M1056.35,-360.76C1060.71,-352.28 1066.15,-341.71 1071.04,-332.2"/>
<polygon fill="black" stroke="black" points="1074.23,-333.64 1075.7,-323.15 1068.01,-330.44 1074.23,-333.64"/>
</g>
<!-- 16&#45;&gt;50 -->
<g id="edge21" class="edge">
<title>16&#45;&gt;50</title>
<path fill="none" stroke="black" d="M1059.75,-297.77C1028.63,-288.28 973.16,-270.62 927,-252 925.17,-251.26 923.31,-250.48 921.43,-249.67"/>
<polygon fill="black" stroke="black" points="922.69,-246.4 912.14,-245.48 919.82,-252.78 922.69,-246.4"/>
</g>
<!-- 16&#45;&gt;53 -->
<g id="edge22" class="edge">
<title>16&#45;&gt;53</title>
<path fill="none" stroke="black" d="M1101.42,-292.16C1115.93,-281.47 1136.79,-266.1 1153.23,-253.99"/>
<polygon fill="black" stroke="black" points="1155.39,-256.74 1161.36,-247.99 1151.24,-251.11 1155.39,-256.74"/>
</g>
<!-- 17 -->
<g id="node18" class="node">
<title>17</title>
<ellipse fill="none" stroke="black" cx="243" cy="-522" rx="27" ry="18"/>
<text text-anchor="middle" x="243" y="-518.3" font-family="Times,serif" font-size="14.00">17</text>
</g>
<!-- 18 -->
<g id="node19" class="node">
<title>18</title>
<ellipse fill="none" stroke="black" cx="315" cy="-450" rx="27" ry="18"/>
<text text-anchor="middle" x="315" y="-446.3" font-family="Times,serif" font-size="14.00">18</text>
</g>
<!-- 17&#45;&gt;18 -->
<g id="edge23" class="edge">
<title>17&#45;&gt;18</title>
<path fill="none" stroke="black" d="M257.57,-506.83C267.75,-496.94 281.52,-483.55 293.03,-472.36"/>
<polygon fill="black" stroke="black" points="295.47,-474.87 300.2,-465.38 290.59,-469.85 295.47,-474.87"/>
</g>
<!-- 21 -->
<g id="node22" class="node">
<title>21</title>
<ellipse fill="none" stroke="black" cx="387" cy="-378" rx="27" ry="18"/>
<text text-anchor="middle" x="387" y="-374.3" font-family="Times,serif" font-size="14.00">21</text>
</g>
<!-- 18&#45;&gt;21 -->
<g id="edge25" class="edge">
<title>18&#45;&gt;21</title>
<path fill="none" stroke="black" d="M329.57,-434.83C339.75,-424.94 353.52,-411.55 365.03,-400.36"/>
<polygon fill="black" stroke="black" points="367.47,-402.87 372.2,-393.38 362.59,-397.85 367.47,-402.87"/>
</g>
<!-- 23 -->
<g id="node24" class="node">
<title>23</title>
<ellipse fill="none" stroke="black" cx="315" cy="-378" rx="27" ry="18"/>
<text text-anchor="middle" x="315" y="-374.3" font-family="Times,serif" font-size="14.00">23</text>
</g>
<!-- 18&#45;&gt;23 -->
<g id="edge24" class="edge">
<title>18&#45;&gt;23</title>
<path fill="none" stroke="black" d="M315,-431.7C315,-423.98 315,-414.71 315,-406.11"/>
<polygon fill="black" stroke="black" points="318.5,-406.1 315,-396.1 311.5,-406.1 318.5,-406.1"/>
</g>
<!-- 19 -->
<g id="node20" class="node">
<title>19</title>
<ellipse fill="none" stroke="black" cx="387" cy="-522" rx="27" ry="18"/>
<text text-anchor="middle" x="387" y="-518.3" font-family="Times,serif" font-size="14.00">19</text>
</g>
<!-- 20 -->
<g id="node21" class="node">
<title>20</title>
<ellipse fill="none" stroke="black" cx="387" cy="-450" rx="27" ry="18"/>
<text text-anchor="middle" x="387" y="-446.3" font-family="Times,serif" font-size="14.00">20</text>
</g>
<!-- 19&#45;&gt;20 -->
<g id="edge26" class="edge">
<title>19&#45;&gt;20</title>
<path fill="none" stroke="black" d="M387,-503.7C387,-495.98 387,-486.71 387,-478.11"/>
<polygon fill="black" stroke="black" points="390.5,-478.1 387,-468.1 383.5,-478.1 390.5,-478.1"/>
</g>
<!-- 20&#45;&gt;21 -->
<g id="edge28" class="edge">
<title>20&#45;&gt;21</title>
<path fill="none" stroke="black" d="M387,-431.7C387,-423.98 387,-414.71 387,-406.11"/>
<polygon fill="black" stroke="black" points="390.5,-406.1 387,-396.1 383.5,-406.1 390.5,-406.1"/>
</g>
<!-- 20&#45;&gt;23 -->
<g id="edge27" class="edge">
<title>20&#45;&gt;23</title>
<path fill="none" stroke="black" d="M372.43,-434.83C362.25,-424.94 348.48,-411.55 336.97,-400.36"/>
<polygon fill="black" stroke="black" points="339.41,-397.85 329.8,-393.38 334.53,-402.87 339.41,-397.85"/>
</g>
<!-- 24 -->
<g id="node25" class="node">
<title>24</title>
<ellipse fill="none" stroke="black" cx="99" cy="-306" rx="27" ry="18"/>
<text text-anchor="middle" x="99" y="-302.3" font-family="Times,serif" font-size="14.00">24</text>
</g>
<!-- 21&#45;&gt;24 -->
<g id="edge29" class="edge">
<title>21&#45;&gt;24</title>
<path fill="none" stroke="black" d="M366.45,-366.11C361.5,-363.82 356.15,-361.61 351,-360 258.11,-330.94 227.89,-353.06 135,-324 133.07,-323.4 131.11,-322.71 129.16,-321.96"/>
<polygon fill="black" stroke="black" points="130.12,-318.57 119.55,-317.89 127.39,-325.02 130.12,-318.57"/>
</g>
<!-- 25 -->
<g id="node26" class="node">
<title>25</title>
<ellipse fill="none" stroke="black" cx="531" cy="-306" rx="27" ry="18"/>
<text text-anchor="middle" x="531" y="-302.3" font-family="Times,serif" font-size="14.00">25</text>
</g>
<!-- 21&#45;&gt;25 -->
<g id="edge30" class="edge">
<title>21&#45;&gt;25</title>
<path fill="none" stroke="black" d="M408.25,-366.67C432.6,-354.83 472.72,-335.33 500.43,-321.86"/>
<polygon fill="black" stroke="black" points="502.2,-324.89 509.67,-317.37 499.14,-318.6 502.2,-324.89"/>
</g>
<!-- 22&#45;&gt;24 -->
<g id="edge31" class="edge">
<title>22&#45;&gt;24</title>
<path fill="none" stroke="black" d="M141.02,-361.46C134.02,-352.4 125.06,-340.79 117.21,-330.61"/>
<polygon fill="black" stroke="black" points="119.83,-328.27 110.95,-322.49 114.29,-332.55 119.83,-328.27"/>
</g>
<!-- 22&#45;&gt;25 -->
<g id="edge32" class="edge">
<title>22&#45;&gt;25</title>
<path fill="none" stroke="black" d="M179.24,-373.38C254.03,-362.99 464.84,-333.25 495,-324 496.93,-323.41 498.89,-322.73 500.85,-321.99"/>
<polygon fill="black" stroke="black" points="502.61,-325.05 510.47,-317.94 499.89,-318.6 502.61,-325.05"/>
</g>
<!-- 23&#45;&gt;27 -->
<g id="edge33" class="edge">
<title>23&#45;&gt;27</title>
<path fill="none" stroke="black" d="M315,-359.7C315,-351.98 315,-342.71 315,-334.11"/>
<polygon fill="black" stroke="black" points="318.5,-334.1 315,-324.1 311.5,-334.1 318.5,-334.1"/>
</g>
<!-- 29 -->
<g id="node30" class="node">
<title>29</title>
<ellipse fill="none" stroke="black" cx="99" cy="-234" rx="27" ry="18"/>
<text text-anchor="middle" x="99" y="-230.3" font-family="Times,serif" font-size="14.00">29</text>
</g>
<!-- 24&#45;&gt;29 -->
<g id="edge34" class="edge">
<title>24&#45;&gt;29</title>
<path fill="none" stroke="black" d="M99,-287.7C99,-279.98 99,-270.71 99,-262.11"/>
<polygon fill="black" stroke="black" points="102.5,-262.1 99,-252.1 95.5,-262.1 102.5,-262.1"/>
</g>
<!-- 31 -->
<g id="node32" class="node">
<title>31</title>
<ellipse fill="none" stroke="black" cx="171" cy="-234" rx="27" ry="18"/>
<text text-anchor="middle" x="171" y="-230.3" font-family="Times,serif" font-size="14.00">31</text>
</g>
<!-- 24&#45;&gt;31 -->
<g id="edge35" class="edge">
<title>24&#45;&gt;31</title>
<path fill="none" stroke="black" d="M113.57,-290.83C123.75,-280.94 137.52,-267.55 149.03,-256.36"/>
<polygon fill="black" stroke="black" points="151.47,-258.87 156.2,-249.38 146.59,-253.85 151.47,-258.87"/>
</g>
<!-- 34 -->
<g id="node35" class="node">
<title>34</title>
<ellipse fill="none" stroke="black" cx="531" cy="-234" rx="27" ry="18"/>
<text text-anchor="middle" x="531" y="-230.3" font-family="Times,serif" font-size="14.00">34</text>
</g>
<!-- 25&#45;&gt;34 -->
<g id="edge36" class="edge">
<title>25&#45;&gt;34</title>
<path fill="none" stroke="black" d="M531,-287.7C531,-279.98 531,-270.71 531,-262.11"/>
<polygon fill="black" stroke="black" points="534.5,-262.1 531,-252.1 527.5,-262.1 534.5,-262.1"/>
</g>
<!-- 36 -->
<g id="node37" class="node">
<title>36</title>
<ellipse fill="none" stroke="black" cx="603" cy="-234" rx="27" ry="18"/>
<text text-anchor="middle" x="603" y="-230.3" font-family="Times,serif" font-size="14.00">36</text>
</g>
<!-- 25&#45;&gt;36 -->
<g id="edge37" class="edge">
<title>25&#45;&gt;36</title>
<path fill="none" stroke="black" d="M545.57,-290.83C555.75,-280.94 569.52,-267.55 581.03,-256.36"/>
<polygon fill="black" stroke="black" points="583.47,-258.87 588.2,-249.38 578.59,-253.85 583.47,-258.87"/>
</g>
<!-- 38 -->
<g id="node39" class="node">
<title>38</title>
<ellipse fill="none" stroke="black" cx="675" cy="-234" rx="27" ry="18"/>
<text text-anchor="middle" x="675" y="-230.3" font-family="Times,serif" font-size="14.00">38</text>
</g>
<!-- 26&#45;&gt;38 -->
<g id="edge38" class="edge">
<title>26&#45;&gt;38</title>
<path fill="none" stroke="black" d="M732.43,-290.83C722.25,-280.94 708.48,-267.55 696.97,-256.36"/>
<polygon fill="black" stroke="black" points="699.41,-253.85 689.8,-249.38 694.53,-258.87 699.41,-253.85"/>
</g>
<!-- 40 -->
<g id="node41" class="node">
<title>40</title>
<ellipse fill="none" stroke="black" cx="747" cy="-234" rx="27" ry="18"/>
<text text-anchor="middle" x="747" y="-230.3" font-family="Times,serif" font-size="14.00">40</text>
</g>
<!-- 26&#45;&gt;40 -->
<g id="edge39" class="edge">
<title>26&#45;&gt;40</title>
<path fill="none" stroke="black" d="M747,-287.7C747,-279.98 747,-270.71 747,-262.11"/>
<polygon fill="black" stroke="black" points="750.5,-262.1 747,-252.1 743.5,-262.1 750.5,-262.1"/>
</g>
<!-- 42 -->
<g id="node43" class="node">
<title>42</title>
<ellipse fill="none" stroke="black" cx="243" cy="-234" rx="27" ry="18"/>
<text text-anchor="middle" x="243" y="-230.3" font-family="Times,serif" font-size="14.00">42</text>
</g>
<!-- 27&#45;&gt;42 -->
<g id="edge40" class="edge">
<title>27&#45;&gt;42</title>
<path fill="none" stroke="black" d="M300.43,-290.83C290.25,-280.94 276.48,-267.55 264.97,-256.36"/>
<polygon fill="black" stroke="black" points="267.41,-253.85 257.8,-249.38 262.53,-258.87 267.41,-253.85"/>
</g>
<!-- 45 -->
<g id="node46" class="node">
<title>45</title>
<ellipse fill="none" stroke="black" cx="315" cy="-234" rx="27" ry="18"/>
<text text-anchor="middle" x="315" y="-230.3" font-family="Times,serif" font-size="14.00">45</text>
</g>
<!-- 27&#45;&gt;45 -->
<g id="edge41" class="edge">
<title>27&#45;&gt;45</title>
<path fill="none" stroke="black" d="M315,-287.7C315,-279.98 315,-270.71 315,-262.11"/>
<polygon fill="black" stroke="black" points="318.5,-262.1 315,-252.1 311.5,-262.1 318.5,-262.1"/>
</g>
<!-- 28 -->
<g id="node29" class="node">
<title>28</title>
<ellipse fill="none" stroke="black" cx="27" cy="-306" rx="27" ry="18"/>
<text text-anchor="middle" x="27" y="-302.3" font-family="Times,serif" font-size="14.00">28</text>
</g>
<!-- 28&#45;&gt;29 -->
<g id="edge42" class="edge">
<title>28&#45;&gt;29</title>
<path fill="none" stroke="black" d="M41.57,-290.83C51.75,-280.94 65.52,-267.55 77.03,-256.36"/>
<polygon fill="black" stroke="black" points="79.47,-258.87 84.2,-249.38 74.59,-253.85 79.47,-258.87"/>
</g>
<!-- 46 -->
<g id="node47" class="node">
<title>46</title>
<ellipse fill="none" stroke="black" cx="171" cy="-162" rx="27" ry="18"/>
<text text-anchor="middle" x="171" y="-158.3" font-family="Times,serif" font-size="14.00">46</text>
</g>
<!-- 29&#45;&gt;46 -->
<g id="edge43" class="edge">
<title>29&#45;&gt;46</title>
<path fill="none" stroke="black" d="M113.57,-218.83C123.75,-208.94 137.52,-195.55 149.03,-184.36"/>
<polygon fill="black" stroke="black" points="151.47,-186.87 156.2,-177.38 146.59,-181.85 151.47,-186.87"/>
</g>
<!-- 30 -->
<g id="node31" class="node">
<title>30</title>
<ellipse fill="none" stroke="black" cx="171" cy="-306" rx="27" ry="18"/>
<text text-anchor="middle" x="171" y="-302.3" font-family="Times,serif" font-size="14.00">30</text>
</g>
<!-- 30&#45;&gt;31 -->
<g id="edge44" class="edge">
<title>30&#45;&gt;31</title>
<path fill="none" stroke="black" d="M171,-287.7C171,-279.98 171,-270.71 171,-262.11"/>
<polygon fill="black" stroke="black" points="174.5,-262.1 171,-252.1 167.5,-262.1 174.5,-262.1"/>
</g>
<!-- 49 -->
<g id="node50" class="node">
<title>49</title>
<ellipse fill="none" stroke="black" cx="279" cy="-162" rx="27" ry="18"/>
<text text-anchor="middle" x="279" y="-158.3" font-family="Times,serif" font-size="14.00">49</text>
</g>
<!-- 31&#45;&gt;49 -->
<g id="edge45" class="edge">
<title>31&#45;&gt;49</title>
<path fill="none" stroke="black" d="M189.81,-220.81C207,-209.67 232.62,-193.06 251.99,-180.5"/>
<polygon fill="black" stroke="black" points="253.92,-183.43 260.4,-175.05 250.11,-177.56 253.92,-183.43"/>
</g>
<!-- 32 -->
<g id="node33" class="node">
<title>32</title>
<ellipse fill="none" stroke="black" cx="459" cy="-306" rx="27" ry="18"/>
<text text-anchor="middle" x="459" y="-302.3" font-family="Times,serif" font-size="14.00">32</text>
</g>
<!-- 32&#45;&gt;34 -->
<g id="edge46" class="edge">
<title>32&#45;&gt;34</title>
<path fill="none" stroke="black" d="M473.57,-290.83C483.75,-280.94 497.52,-267.55 509.03,-256.36"/>
<polygon fill="black" stroke="black" points="511.47,-258.87 516.2,-249.38 506.59,-253.85 511.47,-258.87"/>
</g>
<!-- 33 -->
<g id="node34" class="node">
<title>33</title>
<ellipse fill="none" stroke="black" cx="279" cy="-594" rx="27" ry="18"/>
<text text-anchor="middle" x="279" y="-590.3" font-family="Times,serif" font-size="14.00">33</text>
</g>
<!-- 55 -->
<g id="node56" class="node">
<title>55</title>
<ellipse fill="none" stroke="black" cx="315" cy="-522" rx="27" ry="18"/>
<text text-anchor="middle" x="315" y="-518.3" font-family="Times,serif" font-size="14.00">55</text>
</g>
<!-- 33&#45;&gt;55 -->
<g id="edge47" class="edge">
<title>33&#45;&gt;55</title>
<path fill="none" stroke="black" d="M287.35,-576.76C291.71,-568.28 297.15,-557.71 302.04,-548.2"/>
<polygon fill="black" stroke="black" points="305.23,-549.64 306.7,-539.15 299.01,-546.44 305.23,-549.64"/>
</g>
<!-- 47 -->
<g id="node48" class="node">
<title>47</title>
<ellipse fill="none" stroke="black" cx="603" cy="-162" rx="27" ry="18"/>
<text text-anchor="middle" x="603" y="-158.3" font-family="Times,serif" font-size="14.00">47</text>
</g>
<!-- 34&#45;&gt;47 -->
<g id="edge48" class="edge">
<title>34&#45;&gt;47</title>
<path fill="none" stroke="black" d="M545.57,-218.83C555.75,-208.94 569.52,-195.55 581.03,-184.36"/>
<polygon fill="black" stroke="black" points="583.47,-186.87 588.2,-177.38 578.59,-181.85 583.47,-186.87"/>
</g>
<!-- 35 -->
<g id="node36" class="node">
<title>35</title>
<ellipse fill="none" stroke="black" cx="603" cy="-306" rx="27" ry="18"/>
<text text-anchor="middle" x="603" y="-302.3" font-family="Times,serif" font-size="14.00">35</text>
</g>
<!-- 35&#45;&gt;36 -->
<g id="edge49" class="edge">
<title>35&#45;&gt;36</title>
<path fill="none" stroke="black" d="M603,-287.7C603,-279.98 603,-270.71 603,-262.11"/>
<polygon fill="black" stroke="black" points="606.5,-262.1 603,-252.1 599.5,-262.1 606.5,-262.1"/>
</g>
<!-- 48 -->
<g id="node49" class="node">
<title>48</title>
<ellipse fill="none" stroke="black" cx="675" cy="-162" rx="27" ry="18"/>
<text text-anchor="middle" x="675" y="-158.3" font-family="Times,serif" font-size="14.00">48</text>
</g>
<!-- 36&#45;&gt;48 -->
<g id="edge50" class="edge">
<title>36&#45;&gt;48</title>
<path fill="none" stroke="black" d="M617.57,-218.83C627.75,-208.94 641.52,-195.55 653.03,-184.36"/>
<polygon fill="black" stroke="black" points="655.47,-186.87 660.2,-177.38 650.59,-181.85 655.47,-186.87"/>
</g>
<!-- 37 -->
<g id="node38" class="node">
<title>37</title>
<ellipse fill="none" stroke="black" cx="675" cy="-306" rx="27" ry="18"/>
<text text-anchor="middle" x="675" y="-302.3" font-family="Times,serif" font-size="14.00">37</text>
</g>
<!-- 37&#45;&gt;38 -->
<g id="edge51" class="edge">
<title>37&#45;&gt;38</title>
<path fill="none" stroke="black" d="M675,-287.7C675,-279.98 675,-270.71 675,-262.11"/>
<polygon fill="black" stroke="black" points="678.5,-262.1 675,-252.1 671.5,-262.1 678.5,-262.1"/>
</g>
<!-- 38&#45;&gt;47 -->
<g id="edge52" class="edge">
<title>38&#45;&gt;47</title>
<path fill="none" stroke="black" d="M660.43,-218.83C650.25,-208.94 636.48,-195.55 624.97,-184.36"/>
<polygon fill="black" stroke="black" points="627.41,-181.85 617.8,-177.38 622.53,-186.87 627.41,-181.85"/>
</g>
<!-- 39 -->
<g id="node40" class="node">
<title>39</title>
<ellipse fill="none" stroke="black" cx="819" cy="-306" rx="27" ry="18"/>
<text text-anchor="middle" x="819" y="-302.3" font-family="Times,serif" font-size="14.00">39</text>
</g>
<!-- 39&#45;&gt;40 -->
<g id="edge53" class="edge">
<title>39&#45;&gt;40</title>
<path fill="none" stroke="black" d="M804.43,-290.83C794.25,-280.94 780.48,-267.55 768.97,-256.36"/>
<polygon fill="black" stroke="black" points="771.41,-253.85 761.8,-249.38 766.53,-258.87 771.41,-253.85"/>
</g>
<!-- 40&#45;&gt;48 -->
<g id="edge54" class="edge">
<title>40&#45;&gt;48</title>
<path fill="none" stroke="black" d="M732.43,-218.83C722.25,-208.94 708.48,-195.55 696.97,-184.36"/>
<polygon fill="black" stroke="black" points="699.41,-181.85 689.8,-177.38 694.53,-186.87 699.41,-181.85"/>
</g>
<!-- 41 -->
<g id="node42" class="node">
<title>41</title>
<ellipse fill="none" stroke="black" cx="243" cy="-306" rx="27" ry="18"/>
<text text-anchor="middle" x="243" y="-302.3" font-family="Times,serif" font-size="14.00">41</text>
</g>
<!-- 41&#45;&gt;42 -->
<g id="edge55" class="edge">
<title>41&#45;&gt;42</title>
<path fill="none" stroke="black" d="M243,-287.7C243,-279.98 243,-270.71 243,-262.11"/>
<polygon fill="black" stroke="black" points="246.5,-262.1 243,-252.1 239.5,-262.1 246.5,-262.1"/>
</g>
<!-- 42&#45;&gt;46 -->
<g id="edge56" class="edge">
<title>42&#45;&gt;46</title>
<path fill="none" stroke="black" d="M228.43,-218.83C218.25,-208.94 204.48,-195.55 192.97,-184.36"/>
<polygon fill="black" stroke="black" points="195.41,-181.85 185.8,-177.38 190.53,-186.87 195.41,-181.85"/>
</g>
<!-- 43 -->
<g id="node44" class="node">
<title>43</title>
<ellipse fill="none" stroke="black" cx="387" cy="-306" rx="27" ry="18"/>
<text text-anchor="middle" x="387" y="-302.3" font-family="Times,serif" font-size="14.00">43</text>
</g>
<!-- 43&#45;&gt;45 -->
<g id="edge57" class="edge">
<title>43&#45;&gt;45</title>
<path fill="none" stroke="black" d="M372.43,-290.83C362.25,-280.94 348.48,-267.55 336.97,-256.36"/>
<polygon fill="black" stroke="black" points="339.41,-253.85 329.8,-249.38 334.53,-258.87 339.41,-253.85"/>
</g>
<!-- 44 -->
<g id="node45" class="node">
<title>44</title>
<ellipse fill="none" stroke="black" cx="351" cy="-594" rx="27" ry="18"/>
<text text-anchor="middle" x="351" y="-590.3" font-family="Times,serif" font-size="14.00">44</text>
</g>
<!-- 44&#45;&gt;55 -->
<g id="edge58" class="edge">
<title>44&#45;&gt;55</title>
<path fill="none" stroke="black" d="M342.65,-576.76C338.29,-568.28 332.85,-557.71 327.96,-548.2"/>
<polygon fill="black" stroke="black" points="330.99,-546.44 323.3,-539.15 324.77,-549.64 330.99,-546.44"/>
</g>
<!-- 45&#45;&gt;49 -->
<g id="edge59" class="edge">
<title>45&#45;&gt;49</title>
<path fill="none" stroke="black" d="M306.65,-216.76C302.29,-208.28 296.85,-197.71 291.96,-188.2"/>
<polygon fill="black" stroke="black" points="294.99,-186.44 287.3,-179.15 288.77,-189.64 294.99,-186.44"/>
</g>
<!-- 72 -->
<g id="node73" class="node">
<title>72</title>
<ellipse fill="none" stroke="black" cx="171" cy="-90" rx="27" ry="18"/>
<text text-anchor="middle" x="171" y="-86.3" font-family="Times,serif" font-size="14.00">72</text>
</g>
<!-- 46&#45;&gt;72 -->
<g id="edge60" class="edge">
<title>46&#45;&gt;72</title>
<path fill="none" stroke="black" d="M171,-143.7C171,-135.98 171,-126.71 171,-118.11"/>
<polygon fill="black" stroke="black" points="174.5,-118.1 171,-108.1 167.5,-118.1 174.5,-118.1"/>
</g>
<!-- 73 -->
<g id="node74" class="node">
<title>73</title>
<ellipse fill="none" stroke="black" cx="603" cy="-90" rx="27" ry="18"/>
<text text-anchor="middle" x="603" y="-86.3" font-family="Times,serif" font-size="14.00">73</text>
</g>
<!-- 47&#45;&gt;73 -->
<g id="edge61" class="edge">
<title>47&#45;&gt;73</title>
<path fill="none" stroke="black" d="M603,-143.7C603,-135.98 603,-126.71 603,-118.11"/>
<polygon fill="black" stroke="black" points="606.5,-118.1 603,-108.1 599.5,-118.1 606.5,-118.1"/>
</g>
<!-- 74 -->
<g id="node75" class="node">
<title>74</title>
<ellipse fill="none" stroke="black" cx="675" cy="-90" rx="27" ry="18"/>
<text text-anchor="middle" x="675" y="-86.3" font-family="Times,serif" font-size="14.00">74</text>
</g>
<!-- 48&#45;&gt;74 -->
<g id="edge62" class="edge">
<title>48&#45;&gt;74</title>
<path fill="none" stroke="black" d="M675,-143.7C675,-135.98 675,-126.71 675,-118.11"/>
<polygon fill="black" stroke="black" points="678.5,-118.1 675,-108.1 671.5,-118.1 678.5,-118.1"/>
</g>
<!-- 75 -->
<g id="node76" class="node">
<title>75</title>
<ellipse fill="none" stroke="black" cx="279" cy="-90" rx="27" ry="18"/>
<text text-anchor="middle" x="279" y="-86.3" font-family="Times,serif" font-size="14.00">75</text>
</g>
<!-- 49&#45;&gt;75 -->
<g id="edge63" class="edge">
<title>49&#45;&gt;75</title>
<path fill="none" stroke="black" d="M279,-143.7C279,-135.98 279,-126.71 279,-118.11"/>
<polygon fill="black" stroke="black" points="282.5,-118.1 279,-108.1 275.5,-118.1 282.5,-118.1"/>
</g>
<!-- 56 -->
<g id="node57" class="node">
<title>56</title>
<ellipse fill="none" stroke="black" cx="891" cy="-162" rx="27" ry="18"/>
<text text-anchor="middle" x="891" y="-158.3" font-family="Times,serif" font-size="14.00">56</text>
</g>
<!-- 50&#45;&gt;56 -->
<g id="edge64" class="edge">
<title>50&#45;&gt;56</title>
<path fill="none" stroke="black" d="M891,-215.7C891,-207.98 891,-198.71 891,-190.11"/>
<polygon fill="black" stroke="black" points="894.5,-190.1 891,-180.1 887.5,-190.1 894.5,-190.1"/>
</g>
<!-- 58 -->
<g id="node59" class="node">
<title>58</title>
<ellipse fill="none" stroke="black" cx="963" cy="-162" rx="27" ry="18"/>
<text text-anchor="middle" x="963" y="-158.3" font-family="Times,serif" font-size="14.00">58</text>
</g>
<!-- 50&#45;&gt;58 -->
<g id="edge65" class="edge">
<title>50&#45;&gt;58</title>
<path fill="none" stroke="black" d="M905.57,-218.83C915.75,-208.94 929.52,-195.55 941.03,-184.36"/>
<polygon fill="black" stroke="black" points="943.47,-186.87 948.2,-177.38 938.59,-181.85 943.47,-186.87"/>
</g>
<!-- 60 -->
<g id="node61" class="node">
<title>60</title>
<ellipse fill="none" stroke="black" cx="1035" cy="-162" rx="27" ry="18"/>
<text text-anchor="middle" x="1035" y="-158.3" font-family="Times,serif" font-size="14.00">60</text>
</g>
<!-- 51&#45;&gt;60 -->
<g id="edge67" class="edge">
<title>51&#45;&gt;60</title>
<path fill="none" stroke="black" d="M1229.97,-222.23C1225.13,-219.98 1219.95,-217.77 1215,-216 1152.87,-193.81 1133.13,-202.19 1071,-180 1069.14,-179.34 1067.26,-178.61 1065.37,-177.84"/>
<polygon fill="black" stroke="black" points="1066.59,-174.56 1056.03,-173.77 1063.8,-180.98 1066.59,-174.56"/>
</g>
<!-- 62 -->
<g id="node63" class="node">
<title>62</title>
<ellipse fill="none" stroke="black" cx="1107" cy="-162" rx="27" ry="18"/>
<text text-anchor="middle" x="1107" y="-158.3" font-family="Times,serif" font-size="14.00">62</text>
</g>
<!-- 51&#45;&gt;62 -->
<g id="edge66" class="edge">
<title>51&#45;&gt;62</title>
<path fill="none" stroke="black" d="M1229.75,-222.67C1205.4,-210.83 1165.28,-191.33 1137.57,-177.86"/>
<polygon fill="black" stroke="black" points="1138.86,-174.6 1128.33,-173.37 1135.8,-180.89 1138.86,-174.6"/>
</g>
<!-- 64 -->
<g id="node65" class="node">
<title>64</title>
<ellipse fill="none" stroke="black" cx="1395" cy="-162" rx="27" ry="18"/>
<text text-anchor="middle" x="1395" y="-158.3" font-family="Times,serif" font-size="14.00">64</text>
</g>
<!-- 52&#45;&gt;64 -->
<g id="edge68" class="edge">
<title>52&#45;&gt;64</title>
<path fill="none" stroke="black" d="M1452.43,-218.83C1442.25,-208.94 1428.48,-195.55 1416.97,-184.36"/>
<polygon fill="black" stroke="black" points="1419.41,-181.85 1409.8,-177.38 1414.53,-186.87 1419.41,-181.85"/>
</g>
<!-- 67 -->
<g id="node68" class="node">
<title>67</title>
<ellipse fill="none" stroke="black" cx="1323" cy="-162" rx="27" ry="18"/>
<text text-anchor="middle" x="1323" y="-158.3" font-family="Times,serif" font-size="14.00">67</text>
</g>
<!-- 53&#45;&gt;67 -->
<g id="edge69" class="edge">
<title>53&#45;&gt;67</title>
<path fill="none" stroke="black" d="M1200.25,-222.67C1224.6,-210.83 1264.72,-191.33 1292.43,-177.86"/>
<polygon fill="black" stroke="black" points="1294.2,-180.89 1301.67,-173.37 1291.14,-174.6 1294.2,-180.89"/>
</g>
<!-- 54 -->
<g id="node55" class="node">
<title>54</title>
<ellipse fill="none" stroke="black" cx="819" cy="-234" rx="27" ry="18"/>
<text text-anchor="middle" x="819" y="-230.3" font-family="Times,serif" font-size="14.00">54</text>
</g>
<!-- 54&#45;&gt;56 -->
<g id="edge70" class="edge">
<title>54&#45;&gt;56</title>
<path fill="none" stroke="black" d="M833.57,-218.83C843.75,-208.94 857.52,-195.55 869.03,-184.36"/>
<polygon fill="black" stroke="black" points="871.47,-186.87 876.2,-177.38 866.59,-181.85 871.47,-186.87"/>
</g>
<!-- 55&#45;&gt;18 -->
<g id="edge71" class="edge">
<title>55&#45;&gt;18</title>
<path fill="none" stroke="black" d="M315,-503.7C315,-495.98 315,-486.71 315,-478.11"/>
<polygon fill="black" stroke="black" points="318.5,-478.1 315,-468.1 311.5,-478.1 318.5,-478.1"/>
</g>
<!-- 68 -->
<g id="node69" class="node">
<title>68</title>
<ellipse fill="none" stroke="black" cx="891" cy="-90" rx="27" ry="18"/>
<text text-anchor="middle" x="891" y="-86.3" font-family="Times,serif" font-size="14.00">68</text>
</g>
<!-- 56&#45;&gt;68 -->
<g id="edge72" class="edge">
<title>56&#45;&gt;68</title>
<path fill="none" stroke="black" d="M891,-143.7C891,-135.98 891,-126.71 891,-118.11"/>
<polygon fill="black" stroke="black" points="894.5,-118.1 891,-108.1 887.5,-118.1 894.5,-118.1"/>
</g>
<!-- 57 -->
<g id="node58" class="node">
<title>57</title>
<ellipse fill="none" stroke="black" cx="963" cy="-234" rx="27" ry="18"/>
<text text-anchor="middle" x="963" y="-230.3" font-family="Times,serif" font-size="14.00">57</text>
</g>
<!-- 57&#45;&gt;58 -->
<g id="edge73" class="edge">
<title>57&#45;&gt;58</title>
<path fill="none" stroke="black" d="M963,-215.7C963,-207.98 963,-198.71 963,-190.11"/>
<polygon fill="black" stroke="black" points="966.5,-190.1 963,-180.1 959.5,-190.1 966.5,-190.1"/>
</g>
<!-- 69 -->
<g id="node70" class="node">
<title>69</title>
<ellipse fill="none" stroke="black" cx="1035" cy="-90" rx="27" ry="18"/>
<text text-anchor="middle" x="1035" y="-86.3" font-family="Times,serif" font-size="14.00">69</text>
</g>
<!-- 58&#45;&gt;69 -->
<g id="edge74" class="edge">
<title>58&#45;&gt;69</title>
<path fill="none" stroke="black" d="M977.57,-146.83C987.75,-136.94 1001.52,-123.55 1013.03,-112.36"/>
<polygon fill="black" stroke="black" points="1015.47,-114.87 1020.2,-105.38 1010.59,-109.85 1015.47,-114.87"/>
</g>
<!-- 59 -->
<g id="node60" class="node">
<title>59</title>
<ellipse fill="none" stroke="black" cx="1035" cy="-234" rx="27" ry="18"/>
<text text-anchor="middle" x="1035" y="-230.3" font-family="Times,serif" font-size="14.00">59</text>
</g>
<!-- 59&#45;&gt;60 -->
<g id="edge75" class="edge">
<title>59&#45;&gt;60</title>
<path fill="none" stroke="black" d="M1035,-215.7C1035,-207.98 1035,-198.71 1035,-190.11"/>
<polygon fill="black" stroke="black" points="1038.5,-190.1 1035,-180.1 1031.5,-190.1 1038.5,-190.1"/>
</g>
<!-- 60&#45;&gt;68 -->
<g id="edge76" class="edge">
<title>60&#45;&gt;68</title>
<path fill="none" stroke="black" d="M1013.75,-150.67C989.4,-138.83 949.28,-119.33 921.57,-105.86"/>
<polygon fill="black" stroke="black" points="922.86,-102.6 912.33,-101.37 919.8,-108.89 922.86,-102.6"/>
</g>
<!-- 61 -->
<g id="node62" class="node">
<title>61</title>
<ellipse fill="none" stroke="black" cx="1107" cy="-234" rx="27" ry="18"/>
<text text-anchor="middle" x="1107" y="-230.3" font-family="Times,serif" font-size="14.00">61</text>
</g>
<!-- 61&#45;&gt;62 -->
<g id="edge77" class="edge">
<title>61&#45;&gt;62</title>
<path fill="none" stroke="black" d="M1107,-215.7C1107,-207.98 1107,-198.71 1107,-190.11"/>
<polygon fill="black" stroke="black" points="1110.5,-190.1 1107,-180.1 1103.5,-190.1 1110.5,-190.1"/>
</g>
<!-- 62&#45;&gt;69 -->
<g id="edge78" class="edge">
<title>62&#45;&gt;69</title>
<path fill="none" stroke="black" d="M1092.43,-146.83C1082.25,-136.94 1068.48,-123.55 1056.97,-112.36"/>
<polygon fill="black" stroke="black" points="1059.41,-109.85 1049.8,-105.38 1054.53,-114.87 1059.41,-109.85"/>
</g>
<!-- 63 -->
<g id="node64" class="node">
<title>63</title>
<ellipse fill="none" stroke="black" cx="1395" cy="-234" rx="27" ry="18"/>
<text text-anchor="middle" x="1395" y="-230.3" font-family="Times,serif" font-size="14.00">63</text>
</g>
<!-- 63&#45;&gt;64 -->
<g id="edge79" class="edge">
<title>63&#45;&gt;64</title>
<path fill="none" stroke="black" d="M1395,-215.7C1395,-207.98 1395,-198.71 1395,-190.11"/>
<polygon fill="black" stroke="black" points="1398.5,-190.1 1395,-180.1 1391.5,-190.1 1398.5,-190.1"/>
</g>
<!-- 70 -->
<g id="node71" class="node">
<title>70</title>
<ellipse fill="none" stroke="black" cx="1323" cy="-90" rx="27" ry="18"/>
<text text-anchor="middle" x="1323" y="-86.3" font-family="Times,serif" font-size="14.00">70</text>
</g>
<!-- 64&#45;&gt;70 -->
<g id="edge80" class="edge">
<title>64&#45;&gt;70</title>
<path fill="none" stroke="black" d="M1380.43,-146.83C1370.25,-136.94 1356.48,-123.55 1344.97,-112.36"/>
<polygon fill="black" stroke="black" points="1347.41,-109.85 1337.8,-105.38 1342.53,-114.87 1347.41,-109.85"/>
</g>
<!-- 71 -->
<g id="node72" class="node">
<title>71</title>
<ellipse fill="none" stroke="black" cx="1395" cy="-90" rx="27" ry="18"/>
<text text-anchor="middle" x="1395" y="-86.3" font-family="Times,serif" font-size="14.00">71</text>
</g>
<!-- 64&#45;&gt;71 -->
<g id="edge81" class="edge">
<title>64&#45;&gt;71</title>
<path fill="none" stroke="black" d="M1395,-143.7C1395,-135.98 1395,-126.71 1395,-118.11"/>
<polygon fill="black" stroke="black" points="1398.5,-118.1 1395,-108.1 1391.5,-118.1 1398.5,-118.1"/>
</g>
<!-- 65 -->
<g id="node66" class="node">
<title>65</title>
<ellipse fill="none" stroke="black" cx="1323" cy="-234" rx="27" ry="18"/>
<text text-anchor="middle" x="1323" y="-230.3" font-family="Times,serif" font-size="14.00">65</text>
</g>
<!-- 65&#45;&gt;67 -->
<g id="edge82" class="edge">
<title>65&#45;&gt;67</title>
<path fill="none" stroke="black" d="M1323,-215.7C1323,-207.98 1323,-198.71 1323,-190.11"/>
<polygon fill="black" stroke="black" points="1326.5,-190.1 1323,-180.1 1319.5,-190.1 1326.5,-190.1"/>
</g>
<!-- 66 -->
<g id="node67" class="node">
<title>66</title>
<ellipse fill="none" stroke="black" cx="423" cy="-594" rx="27" ry="18"/>
<text text-anchor="middle" x="423" y="-590.3" font-family="Times,serif" font-size="14.00">66</text>
</g>
<!-- 81 -->
<g id="node82" class="node">
<title>81</title>
<ellipse fill="none" stroke="black" cx="459" cy="-522" rx="27" ry="18"/>
<text text-anchor="middle" x="459" y="-518.3" font-family="Times,serif" font-size="14.00">81</text>
</g>
<!-- 66&#45;&gt;81 -->
<g id="edge83" class="edge">
<title>66&#45;&gt;81</title>
<path fill="none" stroke="black" d="M431.35,-576.76C435.71,-568.28 441.15,-557.71 446.04,-548.2"/>
<polygon fill="black" stroke="black" points="449.23,-549.64 450.7,-539.15 443.01,-546.44 449.23,-549.64"/>
</g>
<!-- 67&#45;&gt;70 -->
<g id="edge84" class="edge">
<title>67&#45;&gt;70</title>
<path fill="none" stroke="black" d="M1323,-143.7C1323,-135.98 1323,-126.71 1323,-118.11"/>
<polygon fill="black" stroke="black" points="1326.5,-118.1 1323,-108.1 1319.5,-118.1 1326.5,-118.1"/>
</g>
<!-- 67&#45;&gt;71 -->
<g id="edge85" class="edge">
<title>67&#45;&gt;71</title>
<path fill="none" stroke="black" d="M1337.57,-146.83C1347.75,-136.94 1361.52,-123.55 1373.03,-112.36"/>
<polygon fill="black" stroke="black" points="1375.47,-114.87 1380.2,-105.38 1370.59,-109.85 1375.47,-114.87"/>
</g>
<!-- 76 -->
<g id="node77" class="node">
<title>76</title>
<ellipse fill="none" stroke="black" cx="891" cy="-18" rx="27" ry="18"/>
<text text-anchor="middle" x="891" y="-14.3" font-family="Times,serif" font-size="14.00">76</text>
</g>
<!-- 68&#45;&gt;76 -->
<g id="edge86" class="edge">
<title>68&#45;&gt;76</title>
<path fill="none" stroke="black" d="M891,-71.7C891,-63.98 891,-54.71 891,-46.11"/>
<polygon fill="black" stroke="black" points="894.5,-46.1 891,-36.1 887.5,-46.1 894.5,-46.1"/>
</g>
<!-- 78 -->
<g id="node79" class="node">
<title>78</title>
<ellipse fill="none" stroke="black" cx="1035" cy="-18" rx="27" ry="18"/>
<text text-anchor="middle" x="1035" y="-14.3" font-family="Times,serif" font-size="14.00">78</text>
</g>
<!-- 69&#45;&gt;78 -->
<g id="edge87" class="edge">
<title>69&#45;&gt;78</title>
<path fill="none" stroke="black" d="M1035,-71.7C1035,-63.98 1035,-54.71 1035,-46.11"/>
<polygon fill="black" stroke="black" points="1038.5,-46.1 1035,-36.1 1031.5,-46.1 1038.5,-46.1"/>
</g>
<!-- 79 -->
<g id="node80" class="node">
<title>79</title>
<ellipse fill="none" stroke="black" cx="1323" cy="-18" rx="27" ry="18"/>
<text text-anchor="middle" x="1323" y="-14.3" font-family="Times,serif" font-size="14.00">79</text>
</g>
<!-- 70&#45;&gt;79 -->
<g id="edge88" class="edge">
<title>70&#45;&gt;79</title>
<path fill="none" stroke="black" d="M1323,-71.7C1323,-63.98 1323,-54.71 1323,-46.11"/>
<polygon fill="black" stroke="black" points="1326.5,-46.1 1323,-36.1 1319.5,-46.1 1326.5,-46.1"/>
</g>
<!-- 80 -->
<g id="node81" class="node">
<title>80</title>
<ellipse fill="none" stroke="black" cx="1395" cy="-18" rx="27" ry="18"/>
<text text-anchor="middle" x="1395" y="-14.3" font-family="Times,serif" font-size="14.00">80</text>
</g>
<!-- 71&#45;&gt;80 -->
<g id="edge89" class="edge">
<title>71&#45;&gt;80</title>
<path fill="none" stroke="black" d="M1395,-71.7C1395,-63.98 1395,-54.71 1395,-46.11"/>
<polygon fill="black" stroke="black" points="1398.5,-46.1 1395,-36.1 1391.5,-46.1 1398.5,-46.1"/>
</g>
<!-- 77 -->
<g id="node78" class="node">
<title>77</title>
<ellipse fill="none" stroke="black" cx="495" cy="-594" rx="27" ry="18"/>
<text text-anchor="middle" x="495" y="-590.3" font-family="Times,serif" font-size="14.00">77</text>
</g>
<!-- 77&#45;&gt;81 -->
<g id="edge90" class="edge">
<title>77&#45;&gt;81</title>
<path fill="none" stroke="black" d="M486.65,-576.76C482.29,-568.28 476.85,-557.71 471.96,-548.2"/>
<polygon fill="black" stroke="black" points="474.99,-546.44 467.3,-539.15 468.77,-549.64 474.99,-546.44"/>
</g>
<!-- 81&#45;&gt;20 -->
<g id="edge91" class="edge">
<title>81&#45;&gt;20</title>
<path fill="none" stroke="black" d="M444.43,-506.83C434.25,-496.94 420.48,-483.55 408.97,-472.36"/>
<polygon fill="black" stroke="black" points="411.41,-469.85 401.8,-465.38 406.53,-474.87 411.41,-469.85"/>
</g>
</g>
</svg>
