<?xml version="1.0" encoding="UTF-8" standalone="no"?>
<!DOCTYPE svg PUBLIC "-//W3C//DTD SVG 1.1//EN"
 "http://www.w3.org/Graphics/SVG/1.1/DTD/svg11.dtd">
<!-- Generated by graphviz version 2.43.0 (0)
 -->
<!-- Title: G Pages: 1 -->
<svg width="1034pt" height="548pt"
 viewBox="0.00 0.00 1034.00 548.00" xmlns="http://www.w3.org/2000/svg" xmlns:xlink="http://www.w3.org/1999/xlink">
<g id="graph0" class="graph" transform="scale(1 1) rotate(0) translate(4 544)">
<title>G</title>
<polygon fill="white" stroke="transparent" points="-4,4 -4,-544 1030,-544 1030,4 -4,4"/>
<!-- 0 -->
<g id="node1" class="node">
<title>0</title>
<ellipse fill="none" stroke="black" cx="387" cy="-450" rx="27" ry="18"/>
<text text-anchor="middle" x="387" y="-446.3" font-family="Times,serif" font-size="14.00">0</text>
</g>
<!-- 10 -->
<g id="node11" class="node">
<title>10</title>
<ellipse fill="none" stroke="black" cx="387" cy="-378" rx="27" ry="18"/>
<text text-anchor="middle" x="387" y="-374.3" font-family="Times,serif" font-size="14.00">10</text>
</g>
<!-- 0&#45;&gt;10 -->
<g id="edge1" class="edge">
<title>0&#45;&gt;10</title>
<path fill="none" stroke="black" d="M387,-431.7C387,-423.98 387,-414.71 387,-406.11"/>
<polygon fill="black" stroke="black" points="390.5,-406.1 387,-396.1 383.5,-406.1 390.5,-406.1"/>
</g>
<!-- 62 -->
<g id="node63" class="node">
<title>62</title>
<ellipse fill="none" stroke="black" cx="459" cy="-378" rx="27" ry="18"/>
<text text-anchor="middle" x="459" y="-374.3" font-family="Times,serif" font-size="14.00">62</text>
</g>
<!-- 0&#45;&gt;62 -->
<g id="edge2" class="edge">
<title>0&#45;&gt;62</title>
<path fill="none" stroke="black" d="M401.57,-434.83C411.75,-424.94 425.52,-411.55 437.03,-400.36"/>
<polygon fill="black" stroke="black" points="439.47,-402.87 444.2,-393.38 434.59,-397.85 439.47,-402.87"/>
</g>
<!-- 1 -->
<g id="node2" class="node">
<title>1</title>
<ellipse fill="none" stroke="black" cx="99" cy="-450" rx="27" ry="18"/>
<text text-anchor="middle" x="99" y="-446.3" font-family="Times,serif" font-size="14.00">1</text>
</g>
<!-- 9 -->
<g id="node10" class="node">
<title>9</title>
<ellipse fill="none" stroke="black" cx="99" cy="-378" rx="27" ry="18"/>
<text text-anchor="middle" x="99" y="-374.3" font-family="Times,serif" font-size="14.00">9</text>
</g>
<!-- 1&#45;&gt;9 -->
<g id="edge3" class="edge">
<title>1&#45;&gt;9</title>
<path fill="none" stroke="black" d="M99,-431.7C99,-423.98 99,-414.71 99,-406.11"/>
<polygon fill="black" stroke="black" points="102.5,-406.1 99,-396.1 95.5,-406.1 102.5,-406.1"/>
</g>
<!-- 63 -->
<g id="node64" class="node">
<title>63</title>
<ellipse fill="none" stroke="black" cx="225" cy="-378" rx="27" ry="18"/>
<text text-anchor="middle" x="225" y="-374.3" font-family="Times,serif" font-size="14.00">63</text>
</g>
<!-- 1&#45;&gt;63 -->
<g id="edge4" class="edge">
<title>1&#45;&gt;63</title>
<path fill="none" stroke="black" d="M119.24,-437.75C140,-426.22 172.48,-408.18 195.98,-395.12"/>
<polygon fill="black" stroke="black" points="197.76,-398.13 204.81,-390.22 194.36,-392.02 197.76,-398.13"/>
</g>
<!-- 2 -->
<g id="node3" class="node">
<title>2</title>
<ellipse fill="none" stroke="black" cx="207" cy="-450" rx="27" ry="18"/>
<text text-anchor="middle" x="207" y="-446.3" font-family="Times,serif" font-size="14.00">2</text>
</g>
<!-- 2&#45;&gt;9 -->
<g id="edge5" class="edge">
<title>2&#45;&gt;9</title>
<path fill="none" stroke="black" d="M188.19,-436.81C171,-425.67 145.38,-409.06 126.01,-396.5"/>
<polygon fill="black" stroke="black" points="127.89,-393.56 117.6,-391.05 124.08,-399.43 127.89,-393.56"/>
</g>
<!-- 2&#45;&gt;63 -->
<g id="edge6" class="edge">
<title>2&#45;&gt;63</title>
<path fill="none" stroke="black" d="M211.36,-432.05C213.39,-424.14 215.86,-414.54 218.14,-405.69"/>
<polygon fill="black" stroke="black" points="221.58,-406.35 220.68,-395.79 214.8,-404.6 221.58,-406.35"/>
</g>
<!-- 3 -->
<g id="node4" class="node">
<title>3</title>
<ellipse fill="none" stroke="black" cx="459" cy="-450" rx="27" ry="18"/>
<text text-anchor="middle" x="459" y="-446.3" font-family="Times,serif" font-size="14.00">3</text>
</g>
<!-- 3&#45;&gt;10 -->
<g id="edge8" class="edge">
<title>3&#45;&gt;10</title>
<path fill="none" stroke="black" d="M444.43,-434.83C434.25,-424.94 420.48,-411.55 408.97,-400.36"/>
<polygon fill="black" stroke="black" points="411.41,-397.85 401.8,-393.38 406.53,-402.87 411.41,-397.85"/>
</g>
<!-- 3&#45;&gt;62 -->
<g id="edge7" class="edge">
<title>3&#45;&gt;62</title>
<path fill="none" stroke="black" d="M459,-431.7C459,-423.98 459,-414.71 459,-406.11"/>
<polygon fill="black" stroke="black" points="462.5,-406.1 459,-396.1 455.5,-406.1 462.5,-406.1"/>
</g>
<!-- 4 -->
<g id="node5" class="node">
<title>4</title>
<ellipse fill="none" stroke="black" cx="711" cy="-306" rx="27" ry="18"/>
<text text-anchor="middle" x="711" y="-302.3" font-family="Times,serif" font-size="14.00">4</text>
</g>
<!-- 5 -->
<g id="node6" class="node">
<title>5</title>
<ellipse fill="none" stroke="black" cx="603" cy="-234" rx="27" ry="18"/>
<text text-anchor="middle" x="603" y="-230.3" font-family="Times,serif" font-size="14.00">5</text>
</g>
<!-- 4&#45;&gt;5 -->
<g id="edge10" class="edge">
<title>4&#45;&gt;5</title>
<path fill="none" stroke="black" d="M692.19,-292.81C675,-281.67 649.38,-265.06 630.01,-252.5"/>
<polygon fill="black" stroke="black" points="631.89,-249.56 621.6,-247.05 628.08,-255.43 631.89,-249.56"/>
</g>
<!-- 58 -->
<g id="node59" class="node">
<title>58</title>
<ellipse fill="none" stroke="black" cx="711" cy="-234" rx="27" ry="18"/>
<text text-anchor="middle" x="711" y="-230.3" font-family="Times,serif" font-size="14.00">58</text>
</g>
<!-- 4&#45;&gt;58 -->
<g id="edge9" class="edge">
<title>4&#45;&gt;58</title>
<path fill="none" stroke="black" d="M711,-287.7C711,-279.98 711,-270.71 711,-262.11"/>
<polygon fill="black" stroke="black" points="714.5,-262.1 711,-252.1 707.5,-262.1 714.5,-262.1"/>
</g>
<!-- 39 -->
<g id="node40" class="node">
<title>39</title>
<ellipse fill="none" stroke="black" cx="495" cy="-162" rx="27" ry="18"/>
<text text-anchor="middle" x="495" y="-158.3" font-family="Times,serif" font-size="14.00">39</text>
</g>
<!-- 5&#45;&gt;39 -->
<g id="edge12" class="edge">
<title>5&#45;&gt;39</title>
<path fill="none" stroke="black" d="M584.19,-220.81C567,-209.67 541.38,-193.06 522.01,-180.5"/>
<polygon fill="black" stroke="black" points="523.89,-177.56 513.6,-175.05 520.08,-183.43 523.89,-177.56"/>
</g>
<!-- 40 -->
<g id="node41" class="node">
<title>40</title>
<ellipse fill="none" stroke="black" cx="567" cy="-162" rx="27" ry="18"/>
<text text-anchor="middle" x="567" y="-158.3" font-family="Times,serif" font-size="14.00">40</text>
</g>
<!-- 5&#45;&gt;40 -->
<g id="edge11" class="edge">
<title>5&#45;&gt;40</title>
<path fill="none" stroke="black" d="M594.65,-216.76C590.29,-208.28 584.85,-197.71 579.96,-188.2"/>
<polygon fill="black" stroke="black" points="582.99,-186.44 575.3,-179.15 576.77,-189.64 582.99,-186.44"/>
</g>
<!-- 6 -->
<g id="node7" class="node">
<title>6</title>
<ellipse fill="none" stroke="black" cx="783" cy="-234" rx="27" ry="18"/>
<text text-anchor="middle" x="783" y="-230.3" font-family="Times,serif" font-size="14.00">6</text>
</g>
<!-- 45 -->
<g id="node46" class="node">
<title>45</title>
<ellipse fill="none" stroke="black" cx="639" cy="-162" rx="27" ry="18"/>
<text text-anchor="middle" x="639" y="-158.3" font-family="Times,serif" font-size="14.00">45</text>
</g>
<!-- 6&#45;&gt;45 -->
<g id="edge13" class="edge">
<title>6&#45;&gt;45</title>
<path fill="none" stroke="black" d="M761.75,-222.67C737.4,-210.83 697.28,-191.33 669.57,-177.86"/>
<polygon fill="black" stroke="black" points="670.86,-174.6 660.33,-173.37 667.8,-180.89 670.86,-174.6"/>
</g>
<!-- 46 -->
<g id="node47" class="node">
<title>46</title>
<ellipse fill="none" stroke="black" cx="783" cy="-162" rx="27" ry="18"/>
<text text-anchor="middle" x="783" y="-158.3" font-family="Times,serif" font-size="14.00">46</text>
</g>
<!-- 6&#45;&gt;46 -->
<g id="edge14" class="edge">
<title>6&#45;&gt;46</title>
<path fill="none" stroke="black" d="M783,-215.7C783,-207.98 783,-198.71 783,-190.11"/>
<polygon fill="black" stroke="black" points="786.5,-190.1 783,-180.1 779.5,-190.1 786.5,-190.1"/>
</g>
<!-- 7 -->
<g id="node8" class="node">
<title>7</title>
<ellipse fill="none" stroke="black" cx="927" cy="-90" rx="27" ry="18"/>
<text text-anchor="middle" x="927" y="-86.3" font-family="Times,serif" font-size="14.00">7</text>
</g>
<!-- 15 -->
<g id="node16" class="node">
<title>15</title>
<ellipse fill="none" stroke="black" cx="927" cy="-18" rx="27" ry="18"/>
<text text-anchor="middle" x="927" y="-14.3" font-family="Times,serif" font-size="14.00">15</text>
</g>
<!-- 7&#45;&gt;15 -->
<g id="edge15" class="edge">
<title>7&#45;&gt;15</title>
<path fill="none" stroke="black" d="M927,-71.7C927,-63.98 927,-54.71 927,-46.11"/>
<polygon fill="black" stroke="black" points="930.5,-46.1 927,-36.1 923.5,-46.1 930.5,-46.1"/>
</g>
<!-- 8 -->
<g id="node9" class="node">
<title>8</title>
<ellipse fill="none" stroke="black" cx="639" cy="-90" rx="27" ry="18"/>
<text text-anchor="middle" x="639" y="-86.3" font-family="Times,serif" font-size="14.00">8</text>
</g>
<!-- 16 -->
<g id="node17" class="node">
<title>16</title>
<ellipse fill="none" stroke="black" cx="639" cy="-18" rx="27" ry="18"/>
<text text-anchor="middle" x="639" y="-14.3" font-family="Times,serif" font-size="14.00">16</text>
</g>
<!-- 8&#45;&gt;16 -->
<g id="edge16" class="edge">
<title>8&#45;&gt;16</title>
<path fill="none" stroke="black" d="M639,-71.7C639,-63.98 639,-54.71 639,-46.11"/>
<polygon fill="black" stroke="black" points="642.5,-46.1 639,-36.1 635.5,-46.1 642.5,-46.1"/>
</g>
<!-- 51 -->
<g id="node52" class="node">
<title>51</title>
<ellipse fill="none" stroke="black" cx="99" cy="-306" rx="27" ry="18"/>
<text text-anchor="middle" x="99" y="-302.3" font-family="Times,serif" font-size="14.00">51</text>
</g>
<!-- 9&#45;&gt;51 -->
<g id="edge17" class="edge">
<title>9&#45;&gt;51</title>
<path fill="none" stroke="black" d="M99,-359.7C99,-351.98 99,-342.71 99,-334.11"/>
<polygon fill="black" stroke="black" points="102.5,-334.1 99,-324.1 95.5,-334.1 102.5,-334.1"/>
</g>
<!-- 52 -->
<g id="node53" class="node">
<title>52</title>
<ellipse fill="none" stroke="black" cx="171" cy="-306" rx="27" ry="18"/>
<text text-anchor="middle" x="171" y="-302.3" font-family="Times,serif" font-size="14.00">52</text>
</g>
<!-- 10&#45;&gt;52 -->
<g id="edge18" class="edge">
<title>10&#45;&gt;52</title>
<path fill="none" stroke="black" d="M361.85,-370.91C326.68,-362.1 261.04,-344.57 207,-324 205.16,-323.3 203.28,-322.54 201.4,-321.75"/>
<polygon fill="black" stroke="black" points="202.64,-318.48 192.08,-317.62 199.81,-324.88 202.64,-318.48"/>
</g>
<!-- 11 -->
<g id="node12" class="node">
<title>11</title>
<ellipse fill="none" stroke="black" cx="279" cy="-234" rx="27" ry="18"/>
<text text-anchor="middle" x="279" y="-230.3" font-family="Times,serif" font-size="14.00">11</text>
</g>
<!-- 17 -->
<g id="node18" class="node">
<title>17</title>
<ellipse fill="none" stroke="black" cx="279" cy="-162" rx="27" ry="18"/>
<text text-anchor="middle" x="279" y="-158.3" font-family="Times,serif" font-size="14.00">17</text>
</g>
<!-- 11&#45;&gt;17 -->
<g id="edge19" class="edge">
<title>11&#45;&gt;17</title>
<path fill="none" stroke="black" d="M279,-215.7C279,-207.98 279,-198.71 279,-190.11"/>
<polygon fill="black" stroke="black" points="282.5,-190.1 279,-180.1 275.5,-190.1 282.5,-190.1"/>
</g>
<!-- 12 -->
<g id="node13" class="node">
<title>12</title>
<ellipse fill="none" stroke="black" cx="99" cy="-234" rx="27" ry="18"/>
<text text-anchor="middle" x="99" y="-230.3" font-family="Times,serif" font-size="14.00">12</text>
</g>
<!-- 20 -->
<g id="node21" class="node">
<title>20</title>
<ellipse fill="none" stroke="black" cx="99" cy="-162" rx="27" ry="18"/>
<text text-anchor="middle" x="99" y="-158.3" font-family="Times,serif" font-size="14.00">20</text>
</g>
<!-- 12&#45;&gt;20 -->
<g id="edge20" class="edge">
<title>12&#45;&gt;20</title>
<path fill="none" stroke="black" d="M99,-215.7C99,-207.98 99,-198.71 99,-190.11"/>
<polygon fill="black" stroke="black" points="102.5,-190.1 99,-180.1 95.5,-190.1 102.5,-190.1"/>
</g>
<!-- 13 -->
<g id="node14" class="node">
<title>13</title>
<ellipse fill="none" stroke="black" cx="549" cy="-18" rx="27" ry="18"/>
<text text-anchor="middle" x="549" y="-14.3" font-family="Times,serif" font-size="14.00">13</text>
</g>
<!-- 14 -->
<g id="node15" class="node">
<title>14</title>
<ellipse fill="none" stroke="black" cx="747" cy="-18" rx="27" ry="18"/>
<text text-anchor="middle" x="747" y="-14.3" font-family="Times,serif" font-size="14.00">14</text>
</g>
<!-- 18 -->
<g id="node19" class="node">
<title>18</title>
<ellipse fill="none" stroke="black" cx="405" cy="-162" rx="27" ry="18"/>
<text text-anchor="middle" x="405" y="-158.3" font-family="Times,serif" font-size="14.00">18</text>
</g>
<!-- 19 -->
<g id="node20" class="node">
<title>19</title>
<ellipse fill="none" stroke="black" cx="171" cy="-162" rx="27" ry="18"/>
<text text-anchor="middle" x="171" y="-158.3" font-family="Times,serif" font-size="14.00">19</text>
</g>
<!-- 21 -->
<g id="node22" class="node">
<title>21</title>
<ellipse fill="none" stroke="black" cx="567" cy="-378" rx="27" ry="18"/>
<text text-anchor="middle" x="567" y="-374.3" font-family="Times,serif" font-size="14.00">21</text>
</g>
<!-- 53 -->
<g id="node54" class="node">
<title>53</title>
<ellipse fill="none" stroke="black" cx="639" cy="-306" rx="27" ry="18"/>
<text text-anchor="middle" x="639" y="-302.3" font-family="Times,serif" font-size="14.00">53</text>
</g>
<!-- 21&#45;&gt;53 -->
<g id="edge21" class="edge">
<title>21&#45;&gt;53</title>
<path fill="none" stroke="black" d="M581.57,-362.83C591.75,-352.94 605.52,-339.55 617.03,-328.36"/>
<polygon fill="black" stroke="black" points="619.47,-330.87 624.2,-321.38 614.59,-325.85 619.47,-330.87"/>
</g>
<!-- 22 -->
<g id="node23" class="node">
<title>22</title>
<ellipse fill="none" stroke="black" cx="639" cy="-378" rx="27" ry="18"/>
<text text-anchor="middle" x="639" y="-374.3" font-family="Times,serif" font-size="14.00">22</text>
</g>
<!-- 22&#45;&gt;53 -->
<g id="edge22" class="edge">
<title>22&#45;&gt;53</title>
<path fill="none" stroke="black" d="M639,-359.7C639,-351.98 639,-342.71 639,-334.11"/>
<polygon fill="black" stroke="black" points="642.5,-334.1 639,-324.1 635.5,-334.1 642.5,-334.1"/>
</g>
<!-- 23 -->
<g id="node24" class="node">
<title>23</title>
<ellipse fill="none" stroke="black" cx="639" cy="-522" rx="27" ry="18"/>
<text text-anchor="middle" x="639" y="-518.3" font-family="Times,serif" font-size="14.00">23</text>
</g>
<!-- 54 -->
<g id="node55" class="node">
<title>54</title>
<ellipse fill="none" stroke="black" cx="711" cy="-450" rx="27" ry="18"/>
<text text-anchor="middle" x="711" y="-446.3" font-family="Times,serif" font-size="14.00">54</text>
</g>
<!-- 23&#45;&gt;54 -->
<g id="edge23" class="edge">
<title>23&#45;&gt;54</title>
<path fill="none" stroke="black" d="M653.57,-506.83C663.75,-496.94 677.52,-483.55 689.03,-472.36"/>
<polygon fill="black" stroke="black" points="691.47,-474.87 696.2,-465.38 686.59,-469.85 691.47,-474.87"/>
</g>
<!-- 24 -->
<g id="node25" class="node">
<title>24</title>
<ellipse fill="none" stroke="black" cx="711" cy="-522" rx="27" ry="18"/>
<text text-anchor="middle" x="711" y="-518.3" font-family="Times,serif" font-size="14.00">24</text>
</g>
<!-- 24&#45;&gt;54 -->
<g id="edge24" class="edge">
<title>24&#45;&gt;54</title>
<path fill="none" stroke="black" d="M711,-503.7C711,-495.98 711,-486.71 711,-478.11"/>
<polygon fill="black" stroke="black" points="714.5,-478.1 711,-468.1 707.5,-478.1 714.5,-478.1"/>
</g>
<!-- 25 -->
<g id="node26" class="node">
<title>25</title>
<ellipse fill="none" stroke="black" cx="783" cy="-522" rx="27" ry="18"/>
<text text-anchor="middle" x="783" y="-518.3" font-family="Times,serif" font-size="14.00">25</text>
</g>
<!-- 55 -->
<g id="node56" class="node">
<title>55</title>
<ellipse fill="none" stroke="black" cx="783" cy="-450" rx="27" ry="18"/>
<text text-anchor="middle" x="783" y="-446.3" font-family="Times,serif" font-size="14.00">55</text>
</g>
<!-- 25&#45;&gt;55 -->
<g id="edge25" class="edge">
<title>25&#45;&gt;55</title>
<path fill="none" stroke="black" d="M783,-503.7C783,-495.98 783,-486.71 783,-478.11"/>
<polygon fill="black" stroke="black" points="786.5,-478.1 783,-468.1 779.5,-478.1 786.5,-478.1"/>
</g>
<!-- 26 -->
<g id="node27" class="node">
<title>26</title>
<ellipse fill="none" stroke="black" cx="855" cy="-522" rx="27" ry="18"/>
<text text-anchor="middle" x="855" y="-518.3" font-family="Times,serif" font-size="14.00">26</text>
</g>
<!-- 26&#45;&gt;55 -->
<g id="edge26" class="edge">
<title>26&#45;&gt;55</title>
<path fill="none" stroke="black" d="M840.43,-506.83C830.25,-496.94 816.48,-483.55 804.97,-472.36"/>
<polygon fill="black" stroke="black" points="807.41,-469.85 797.8,-465.38 802.53,-474.87 807.41,-469.85"/>
</g>
<!-- 27 -->
<g id="node28" class="node">
<title>27</title>
<ellipse fill="none" stroke="black" cx="855" cy="-378" rx="27" ry="18"/>
<text text-anchor="middle" x="855" y="-374.3" font-family="Times,serif" font-size="14.00">27</text>
</g>
<!-- 56 -->
<g id="node57" class="node">
<title>56</title>
<ellipse fill="none" stroke="black" cx="855" cy="-306" rx="27" ry="18"/>
<text text-anchor="middle" x="855" y="-302.3" font-family="Times,serif" font-size="14.00">56</text>
</g>
<!-- 27&#45;&gt;56 -->
<g id="edge27" class="edge">
<title>27&#45;&gt;56</title>
<path fill="none" stroke="black" d="M855,-359.7C855,-351.98 855,-342.71 855,-334.11"/>
<polygon fill="black" stroke="black" points="858.5,-334.1 855,-324.1 851.5,-334.1 858.5,-334.1"/>
</g>
<!-- 28 -->
<g id="node29" class="node">
<title>28</title>
<ellipse fill="none" stroke="black" cx="927" cy="-378" rx="27" ry="18"/>
<text text-anchor="middle" x="927" y="-374.3" font-family="Times,serif" font-size="14.00">28</text>
</g>
<!-- 28&#45;&gt;56 -->
<g id="edge28" class="edge">
<title>28&#45;&gt;56</title>
<path fill="none" stroke="black" d="M912.43,-362.83C902.25,-352.94 888.48,-339.55 876.97,-328.36"/>
<polygon fill="black" stroke="black" points="879.41,-325.85 869.8,-321.38 874.53,-330.87 879.41,-325.85"/>
</g>
<!-- 29 -->
<g id="node30" class="node">
<title>29</title>
<ellipse fill="none" stroke="black" cx="315" cy="-522" rx="27" ry="18"/>
<text text-anchor="middle" x="315" y="-518.3" font-family="Times,serif" font-size="14.00">29</text>
</g>
<!-- 29&#45;&gt;0 -->
<g id="edge29" class="edge">
<title>29&#45;&gt;0</title>
<path fill="none" stroke="black" d="M329.57,-506.83C339.75,-496.94 353.52,-483.55 365.03,-472.36"/>
<polygon fill="black" stroke="black" points="367.47,-474.87 372.2,-465.38 362.59,-469.85 367.47,-474.87"/>
</g>
<!-- 30 -->
<g id="node31" class="node">
<title>30</title>
<ellipse fill="none" stroke="black" cx="387" cy="-522" rx="27" ry="18"/>
<text text-anchor="middle" x="387" y="-518.3" font-family="Times,serif" font-size="14.00">30</text>
</g>
<!-- 30&#45;&gt;0 -->
<g id="edge30" class="edge">
<title>30&#45;&gt;0</title>
<path fill="none" stroke="black" d="M387,-503.7C387,-495.98 387,-486.71 387,-478.11"/>
<polygon fill="black" stroke="black" points="390.5,-478.1 387,-468.1 383.5,-478.1 390.5,-478.1"/>
</g>
<!-- 31 -->
<g id="node32" class="node">
<title>31</title>
<ellipse fill="none" stroke="black" cx="27" cy="-522" rx="27" ry="18"/>
<text text-anchor="middle" x="27" y="-518.3" font-family="Times,serif" font-size="14.00">31</text>
</g>
<!-- 31&#45;&gt;1 -->
<g id="edge31" class="edge">
<title>31&#45;&gt;1</title>
<path fill="none" stroke="black" d="M41.57,-506.83C51.75,-496.94 65.52,-483.55 77.03,-472.36"/>
<polygon fill="black" stroke="black" points="79.47,-474.87 84.2,-465.38 74.59,-469.85 79.47,-474.87"/>
</g>
<!-- 32 -->
<g id="node33" class="node">
<title>32</title>
<ellipse fill="none" stroke="black" cx="99" cy="-522" rx="27" ry="18"/>
<text text-anchor="middle" x="99" y="-518.3" font-family="Times,serif" font-size="14.00">32</text>
</g>
<!-- 32&#45;&gt;1 -->
<g id="edge32" class="edge">
<title>32&#45;&gt;1</title>
<path fill="none" stroke="black" d="M99,-503.7C99,-495.98 99,-486.71 99,-478.11"/>
<polygon fill="black" stroke="black" points="102.5,-478.1 99,-468.1 95.5,-478.1 102.5,-478.1"/>
</g>
<!-- 33 -->
<g id="node34" class="node">
<title>33</title>
<ellipse fill="none" stroke="black" cx="171" cy="-522" rx="27" ry="18"/>
<text text-anchor="middle" x="171" y="-518.3" font-family="Times,serif" font-size="14.00">33</text>
</g>
<!-- 33&#45;&gt;2 -->
<g id="edge33" class="edge">
<title>33&#45;&gt;2</title>
<path fill="none" stroke="black" d="M179.35,-504.76C183.71,-496.28 189.15,-485.71 194.04,-476.2"/>
<polygon fill="black" stroke="black" points="197.23,-477.64 198.7,-467.15 191.01,-474.44 197.23,-477.64"/>
</g>
<!-- 34 -->
<g id="node35" class="node">
<title>34</title>
<ellipse fill="none" stroke="black" cx="243" cy="-522" rx="27" ry="18"/>
<text text-anchor="middle" x="243" y="-518.3" font-family="Times,serif" font-size="14.00">34</text>
</g>
<!-- 34&#45;&gt;2 -->
<g id="edge34" class="edge">
<title>34&#45;&gt;2</title>
<path fill="none" stroke="black" d="M234.65,-504.76C230.29,-496.28 224.85,-485.71 219.96,-476.2"/>
<polygon fill="black" stroke="black" points="222.99,-474.44 215.3,-467.15 216.77,-477.64 222.99,-474.44"/>
</g>
<!-- 35 -->
<g id="node36" class="node">
<title>35</title>
<ellipse fill="none" stroke="black" cx="459" cy="-522" rx="27" ry="18"/>
<text text-anchor="middle" x="459" y="-518.3" font-family="Times,serif" font-size="14.00">35</text>
</g>
<!-- 35&#45;&gt;3 -->
<g id="edge35" class="edge">
<title>35&#45;&gt;3</title>
<path fill="none" stroke="black" d="M459,-503.7C459,-495.98 459,-486.71 459,-478.11"/>
<polygon fill="black" stroke="black" points="462.5,-478.1 459,-468.1 455.5,-478.1 462.5,-478.1"/>
</g>
<!-- 36 -->
<g id="node37" class="node">
<title>36</title>
<ellipse fill="none" stroke="black" cx="531" cy="-522" rx="27" ry="18"/>
<text text-anchor="middle" x="531" y="-518.3" font-family="Times,serif" font-size="14.00">36</text>
</g>
<!-- 36&#45;&gt;3 -->
<g id="edge36" class="edge">
<title>36&#45;&gt;3</title>
<path fill="none" stroke="black" d="M516.43,-506.83C506.25,-496.94 492.48,-483.55 480.97,-472.36"/>
<polygon fill="black" stroke="black" points="483.41,-469.85 473.8,-465.38 478.53,-474.87 483.41,-469.85"/>
</g>
<!-- 37 -->
<g id="node38" class="node">
<title>37</title>
<ellipse fill="none" stroke="black" cx="711" cy="-378" rx="27" ry="18"/>
<text text-anchor="middle" x="711" y="-374.3" font-family="Times,serif" font-size="14.00">37</text>
</g>
<!-- 37&#45;&gt;4 -->
<g id="edge37" class="edge">
<title>37&#45;&gt;4</title>
<path fill="none" stroke="black" d="M711,-359.7C711,-351.98 711,-342.71 711,-334.11"/>
<polygon fill="black" stroke="black" points="714.5,-334.1 711,-324.1 707.5,-334.1 714.5,-334.1"/>
</g>
<!-- 57 -->
<g id="node58" class="node">
<title>57</title>
<ellipse fill="none" stroke="black" cx="783" cy="-306" rx="27" ry="18"/>
<text text-anchor="middle" x="783" y="-302.3" font-family="Times,serif" font-size="14.00">57</text>
</g>
<!-- 37&#45;&gt;57 -->
<g id="edge38" class="edge">
<title>37&#45;&gt;57</title>
<path fill="none" stroke="black" d="M725.57,-362.83C735.75,-352.94 749.52,-339.55 761.03,-328.36"/>
<polygon fill="black" stroke="black" points="763.47,-330.87 768.2,-321.38 758.59,-325.85 763.47,-330.87"/>
</g>
<!-- 38 -->
<g id="node39" class="node">
<title>38</title>
<ellipse fill="none" stroke="black" cx="783" cy="-378" rx="27" ry="18"/>
<text text-anchor="middle" x="783" y="-374.3" font-family="Times,serif" font-size="14.00">38</text>
</g>
<!-- 38&#45;&gt;4 -->
<g id="edge39" class="edge">
<title>38&#45;&gt;4</title>
<path fill="none" stroke="black" d="M768.43,-362.83C758.25,-352.94 744.48,-339.55 732.97,-328.36"/>
<polygon fill="black" stroke="black" points="735.41,-325.85 725.8,-321.38 730.53,-330.87 735.41,-325.85"/>
</g>
<!-- 38&#45;&gt;57 -->
<g id="edge40" class="edge">
<title>38&#45;&gt;57</title>
<path fill="none" stroke="black" d="M783,-359.7C783,-351.98 783,-342.71 783,-334.11"/>
<polygon fill="black" stroke="black" points="786.5,-334.1 783,-324.1 779.5,-334.1 786.5,-334.1"/>
</g>
<!-- 60 -->
<g id="node61" class="node">
<title>60</title>
<ellipse fill="none" stroke="black" cx="549" cy="-90" rx="27" ry="18"/>
<text text-anchor="middle" x="549" y="-86.3" font-family="Times,serif" font-size="14.00">60</text>
</g>
<!-- 39&#45;&gt;60 -->
<g id="edge41" class="edge">
<title>39&#45;&gt;60</title>
<path fill="none" stroke="black" d="M506.98,-145.46C513.98,-136.4 522.94,-124.79 530.79,-114.61"/>
<polygon fill="black" stroke="black" points="533.71,-116.55 537.05,-106.49 528.17,-112.27 533.71,-116.55"/>
</g>
<!-- 40&#45;&gt;8 -->
<g id="edge42" class="edge">
<title>40&#45;&gt;8</title>
<path fill="none" stroke="black" d="M581.57,-146.83C591.75,-136.94 605.52,-123.55 617.03,-112.36"/>
<polygon fill="black" stroke="black" points="619.47,-114.87 624.2,-105.38 614.59,-109.85 619.47,-114.87"/>
</g>
<!-- 41 -->
<g id="node42" class="node">
<title>41</title>
<ellipse fill="none" stroke="black" cx="711" cy="-162" rx="27" ry="18"/>
<text text-anchor="middle" x="711" y="-158.3" font-family="Times,serif" font-size="14.00">41</text>
</g>
<!-- 61 -->
<g id="node62" class="node">
<title>61</title>
<ellipse fill="none" stroke="black" cx="747" cy="-90" rx="27" ry="18"/>
<text text-anchor="middle" x="747" y="-86.3" font-family="Times,serif" font-size="14.00">61</text>
</g>
<!-- 41&#45;&gt;61 -->
<g id="edge43" class="edge">
<title>41&#45;&gt;61</title>
<path fill="none" stroke="black" d="M719.35,-144.76C723.71,-136.28 729.15,-125.71 734.04,-116.2"/>
<polygon fill="black" stroke="black" points="737.23,-117.64 738.7,-107.15 731.01,-114.44 737.23,-117.64"/>
</g>
<!-- 42 -->
<g id="node43" class="node">
<title>42</title>
<ellipse fill="none" stroke="black" cx="855" cy="-162" rx="27" ry="18"/>
<text text-anchor="middle" x="855" y="-158.3" font-family="Times,serif" font-size="14.00">42</text>
</g>
<!-- 42&#45;&gt;7 -->
<g id="edge44" class="edge">
<title>42&#45;&gt;7</title>
<path fill="none" stroke="black" d="M869.57,-146.83C879.75,-136.94 893.52,-123.55 905.03,-112.36"/>
<polygon fill="black" stroke="black" points="907.47,-114.87 912.2,-105.38 902.59,-109.85 907.47,-114.87"/>
</g>
<!-- 43 -->
<g id="node44" class="node">
<title>43</title>
<ellipse fill="none" stroke="black" cx="927" cy="-162" rx="27" ry="18"/>
<text text-anchor="middle" x="927" y="-158.3" font-family="Times,serif" font-size="14.00">43</text>
</g>
<!-- 43&#45;&gt;61 -->
<g id="edge45" class="edge">
<title>43&#45;&gt;61</title>
<path fill="none" stroke="black" d="M905.82,-150.62C900.99,-148.35 895.84,-146.03 891,-144 853.64,-128.34 809.85,-112.58 780.46,-102.37"/>
<polygon fill="black" stroke="black" points="781.29,-98.95 770.69,-99 779,-105.57 781.29,-98.95"/>
</g>
<!-- 44 -->
<g id="node45" class="node">
<title>44</title>
<ellipse fill="none" stroke="black" cx="999" cy="-162" rx="27" ry="18"/>
<text text-anchor="middle" x="999" y="-158.3" font-family="Times,serif" font-size="14.00">44</text>
</g>
<!-- 44&#45;&gt;7 -->
<g id="edge46" class="edge">
<title>44&#45;&gt;7</title>
<path fill="none" stroke="black" d="M984.43,-146.83C974.25,-136.94 960.48,-123.55 948.97,-112.36"/>
<polygon fill="black" stroke="black" points="951.41,-109.85 941.8,-105.38 946.53,-114.87 951.41,-109.85"/>
</g>
<!-- 45&#45;&gt;60 -->
<g id="edge47" class="edge">
<title>45&#45;&gt;60</title>
<path fill="none" stroke="black" d="M622.07,-147.83C608.5,-137.27 589.24,-122.3 573.91,-110.37"/>
<polygon fill="black" stroke="black" points="575.89,-107.48 565.85,-104.11 571.6,-113.01 575.89,-107.48"/>
</g>
<!-- 46&#45;&gt;8 -->
<g id="edge48" class="edge">
<title>46&#45;&gt;8</title>
<path fill="none" stroke="black" d="M761.75,-150.67C737.4,-138.83 697.28,-119.33 669.57,-105.86"/>
<polygon fill="black" stroke="black" points="670.86,-102.6 660.33,-101.37 667.8,-108.89 670.86,-102.6"/>
</g>
<!-- 47 -->
<g id="node48" class="node">
<title>47</title>
<ellipse fill="none" stroke="black" cx="315" cy="-306" rx="27" ry="18"/>
<text text-anchor="middle" x="315" y="-302.3" font-family="Times,serif" font-size="14.00">47</text>
</g>
<!-- 47&#45;&gt;11 -->
<g id="edge49" class="edge">
<title>47&#45;&gt;11</title>
<path fill="none" stroke="black" d="M306.65,-288.76C302.29,-280.28 296.85,-269.71 291.96,-260.2"/>
<polygon fill="black" stroke="black" points="294.99,-258.44 287.3,-251.15 288.77,-261.64 294.99,-258.44"/>
</g>
<!-- 48 -->
<g id="node49" class="node">
<title>48</title>
<ellipse fill="none" stroke="black" cx="459" cy="-306" rx="27" ry="18"/>
<text text-anchor="middle" x="459" y="-302.3" font-family="Times,serif" font-size="14.00">48</text>
</g>
<!-- 64 -->
<g id="node65" class="node">
<title>64</title>
<ellipse fill="none" stroke="black" cx="405" cy="-234" rx="27" ry="18"/>
<text text-anchor="middle" x="405" y="-230.3" font-family="Times,serif" font-size="14.00">64</text>
</g>
<!-- 48&#45;&gt;64 -->
<g id="edge50" class="edge">
<title>48&#45;&gt;64</title>
<path fill="none" stroke="black" d="M447.02,-289.46C440.02,-280.4 431.06,-268.79 423.21,-258.61"/>
<polygon fill="black" stroke="black" points="425.83,-256.27 416.95,-250.49 420.29,-260.55 425.83,-256.27"/>
</g>
<!-- 49 -->
<g id="node50" class="node">
<title>49</title>
<ellipse fill="none" stroke="black" cx="243" cy="-306" rx="27" ry="18"/>
<text text-anchor="middle" x="243" y="-302.3" font-family="Times,serif" font-size="14.00">49</text>
</g>
<!-- 49&#45;&gt;11 -->
<g id="edge51" class="edge">
<title>49&#45;&gt;11</title>
<path fill="none" stroke="black" d="M251.35,-288.76C255.71,-280.28 261.15,-269.71 266.04,-260.2"/>
<polygon fill="black" stroke="black" points="269.23,-261.64 270.7,-251.15 263.01,-258.44 269.23,-261.64"/>
</g>
<!-- 50 -->
<g id="node51" class="node">
<title>50</title>
<ellipse fill="none" stroke="black" cx="387" cy="-306" rx="27" ry="18"/>
<text text-anchor="middle" x="387" y="-302.3" font-family="Times,serif" font-size="14.00">50</text>
</g>
<!-- 50&#45;&gt;64 -->
<g id="edge52" class="edge">
<title>50&#45;&gt;64</title>
<path fill="none" stroke="black" d="M391.36,-288.05C393.39,-280.14 395.86,-270.54 398.14,-261.69"/>
<polygon fill="black" stroke="black" points="401.58,-262.35 400.68,-251.79 394.8,-260.6 401.58,-262.35"/>
</g>
<!-- 51&#45;&gt;12 -->
<g id="edge53" class="edge">
<title>51&#45;&gt;12</title>
<path fill="none" stroke="black" d="M99,-287.7C99,-279.98 99,-270.71 99,-262.11"/>
<polygon fill="black" stroke="black" points="102.5,-262.1 99,-252.1 95.5,-262.1 102.5,-262.1"/>
</g>
<!-- 65 -->
<g id="node66" class="node">
<title>65</title>
<ellipse fill="none" stroke="black" cx="171" cy="-234" rx="27" ry="18"/>
<text text-anchor="middle" x="171" y="-230.3" font-family="Times,serif" font-size="14.00">65</text>
</g>
<!-- 51&#45;&gt;65 -->
<g id="edge54" class="edge">
<title>51&#45;&gt;65</title>
<path fill="none" stroke="black" d="M113.57,-290.83C123.75,-280.94 137.52,-267.55 149.03,-256.36"/>
<polygon fill="black" stroke="black" points="151.47,-258.87 156.2,-249.38 146.59,-253.85 151.47,-258.87"/>
</g>
<!-- 52&#45;&gt;12 -->
<g id="edge55" class="edge">
<title>52&#45;&gt;12</title>
<path fill="none" stroke="black" d="M156.43,-290.83C146.25,-280.94 132.48,-267.55 120.97,-256.36"/>
<polygon fill="black" stroke="black" points="123.41,-253.85 113.8,-249.38 118.53,-258.87 123.41,-253.85"/>
</g>
<!-- 52&#45;&gt;65 -->
<g id="edge56" class="edge">
<title>52&#45;&gt;65</title>
<path fill="none" stroke="black" d="M171,-287.7C171,-279.98 171,-270.71 171,-262.11"/>
<polygon fill="black" stroke="black" points="174.5,-262.1 171,-252.1 167.5,-262.1 174.5,-262.1"/>
</g>
<!-- 53&#45;&gt;5 -->
<g id="edge57" class="edge">
<title>53&#45;&gt;5</title>
<path fill="none" stroke="black" d="M630.65,-288.76C626.29,-280.28 620.85,-269.71 615.96,-260.2"/>
<polygon fill="black" stroke="black" points="618.99,-258.44 611.3,-251.15 612.77,-261.64 618.99,-258.44"/>
</g>
<!-- 53&#45;&gt;58 -->
<g id="edge58" class="edge">
<title>53&#45;&gt;58</title>
<path fill="none" stroke="black" d="M653.57,-290.83C663.75,-280.94 677.52,-267.55 689.03,-256.36"/>
<polygon fill="black" stroke="black" points="691.47,-258.87 696.2,-249.38 686.59,-253.85 691.47,-258.87"/>
</g>
<!-- 54&#45;&gt;37 -->
<g id="edge59" class="edge">
<title>54&#45;&gt;37</title>
<path fill="none" stroke="black" d="M711,-431.7C711,-423.98 711,-414.71 711,-406.11"/>
<polygon fill="black" stroke="black" points="714.5,-406.1 711,-396.1 707.5,-406.1 714.5,-406.1"/>
</g>
<!-- 55&#45;&gt;38 -->
<g id="edge60" class="edge">
<title>55&#45;&gt;38</title>
<path fill="none" stroke="black" d="M783,-431.7C783,-423.98 783,-414.71 783,-406.11"/>
<polygon fill="black" stroke="black" points="786.5,-406.1 783,-396.1 779.5,-406.1 786.5,-406.1"/>
</g>
<!-- 56&#45;&gt;6 -->
<g id="edge62" class="edge">
<title>56&#45;&gt;6</title>
<path fill="none" stroke="black" d="M840.43,-290.83C830.25,-280.94 816.48,-267.55 804.97,-256.36"/>
<polygon fill="black" stroke="black" points="807.41,-253.85 797.8,-249.38 802.53,-258.87 807.41,-253.85"/>
</g>
<!-- 59 -->
<g id="node60" class="node">
<title>59</title>
<ellipse fill="none" stroke="black" cx="855" cy="-234" rx="27" ry="18"/>
<text text-anchor="middle" x="855" y="-230.3" font-family="Times,serif" font-size="14.00">59</text>
</g>
<!-- 56&#45;&gt;59 -->
<g id="edge61" class="edge">
<title>56&#45;&gt;59</title>
<path fill="none" stroke="black" d="M855,-287.7C855,-279.98 855,-270.71 855,-262.11"/>
<polygon fill="black" stroke="black" points="858.5,-262.1 855,-252.1 851.5,-262.1 858.5,-262.1"/>
</g>
<!-- 57&#45;&gt;6 -->
<g id="edge63" class="edge">
<title>57&#45;&gt;6</title>
<path fill="none" stroke="black" d="M783,-287.7C783,-279.98 783,-270.71 783,-262.11"/>
<polygon fill="black" stroke="black" points="786.5,-262.1 783,-252.1 779.5,-262.1 786.5,-262.1"/>
</g>
<!-- 57&#45;&gt;59 -->
<g id="edge64" class="edge">
<title>57&#45;&gt;59</title>
<path fill="none" stroke="black" d="M797.57,-290.83C807.75,-280.94 821.52,-267.55 833.03,-256.36"/>
<polygon fill="black" stroke="black" points="835.47,-258.87 840.2,-249.38 830.59,-253.85 835.47,-258.87"/>
</g>
<!-- 58&#45;&gt;41 -->
<g id="edge66" class="edge">
<title>58&#45;&gt;41</title>
<path fill="none" stroke="black" d="M711,-215.7C711,-207.98 711,-198.71 711,-190.11"/>
<polygon fill="black" stroke="black" points="714.5,-190.1 711,-180.1 707.5,-190.1 714.5,-190.1"/>
</g>
<!-- 58&#45;&gt;42 -->
<g id="edge65" class="edge">
<title>58&#45;&gt;42</title>
<path fill="none" stroke="black" d="M732.25,-222.67C756.6,-210.83 796.72,-191.33 824.43,-177.86"/>
<polygon fill="black" stroke="black" points="826.2,-180.89 833.67,-173.37 823.14,-174.6 826.2,-180.89"/>
</g>
<!-- 59&#45;&gt;43 -->
<g id="edge68" class="edge">
<title>59&#45;&gt;43</title>
<path fill="none" stroke="black" d="M869.57,-218.83C879.75,-208.94 893.52,-195.55 905.03,-184.36"/>
<polygon fill="black" stroke="black" points="907.47,-186.87 912.2,-177.38 902.59,-181.85 907.47,-186.87"/>
</g>
<!-- 59&#45;&gt;44 -->
<g id="edge67" class="edge">
<title>59&#45;&gt;44</title>
<path fill="none" stroke="black" d="M876.25,-222.67C900.6,-210.83 940.72,-191.33 968.43,-177.86"/>
<polygon fill="black" stroke="black" points="970.2,-180.89 977.67,-173.37 967.14,-174.6 970.2,-180.89"/>
</g>
<!-- 60&#45;&gt;13 -->
<g id="edge69" class="edge">
<title>60&#45;&gt;13</title>
<path fill="none" stroke="black" d="M549,-71.7C549,-63.98 549,-54.71 549,-46.11"/>
<polygon fill="black" stroke="black" points="552.5,-46.1 549,-36.1 545.5,-46.1 552.5,-46.1"/>
</g>
<!-- 61&#45;&gt;14 -->
<g id="edge70" class="edge">
<title>61&#45;&gt;14</title>
<path fill="none" stroke="black" d="M747,-71.7C747,-63.98 747,-54.71 747,-46.11"/>
<polygon fill="black" stroke="black" points="750.5,-46.1 747,-36.1 743.5,-46.1 750.5,-46.1"/>
</g>
<!-- 62&#45;&gt;47 -->
<g id="edge72" class="edge">
<title>62&#45;&gt;47</title>
<path fill="none" stroke="black" d="M437.75,-366.67C413.4,-354.83 373.28,-335.33 345.57,-321.86"/>
<polygon fill="black" stroke="black" points="346.86,-318.6 336.33,-317.37 343.8,-324.89 346.86,-318.6"/>
</g>
<!-- 62&#45;&gt;48 -->
<g id="edge71" class="edge">
<title>62&#45;&gt;48</title>
<path fill="none" stroke="black" d="M459,-359.7C459,-351.98 459,-342.71 459,-334.11"/>
<polygon fill="black" stroke="black" points="462.5,-334.1 459,-324.1 455.5,-334.1 462.5,-334.1"/>
</g>
<!-- 63&#45;&gt;49 -->
<g id="edge74" class="edge">
<title>63&#45;&gt;49</title>
<path fill="none" stroke="black" d="M229.36,-360.05C231.39,-352.14 233.86,-342.54 236.14,-333.69"/>
<polygon fill="black" stroke="black" points="239.58,-334.35 238.68,-323.79 232.8,-332.6 239.58,-334.35"/>
</g>
<!-- 63&#45;&gt;50 -->
<g id="edge73" class="edge">
<title>63&#45;&gt;50</title>
<path fill="none" stroke="black" d="M247.43,-367.91C272.73,-357.57 315.02,-340.05 351,-324 352.8,-323.2 354.64,-322.36 356.5,-321.51"/>
<polygon fill="black" stroke="black" points="358.15,-324.61 365.75,-317.22 355.21,-318.26 358.15,-324.61"/>
</g>
<!-- 64&#45;&gt;18 -->
<g id="edge75" class="edge">
<title>64&#45;&gt;18</title>
<path fill="none" stroke="black" d="M405,-215.7C405,-207.98 405,-198.71 405,-190.11"/>
<polygon fill="black" stroke="black" points="408.5,-190.1 405,-180.1 401.5,-190.1 408.5,-190.1"/>
</g>
<!-- 65&#45;&gt;19 -->
<g id="edge76" class="edge">
<title>65&#45;&gt;19</title>
<path fill="none" stroke="black" d="M171,-215.7C171,-207.98 171,-198.71 171,-190.11"/>
<polygon fill="black" stroke="black" points="174.5,-190.1 171,-180.1 167.5,-190.1 174.5,-190.1"/>
</g>
</g>
</svg>
