<?xml version="1.0" encoding="UTF-8" standalone="no"?>
<!DOCTYPE svg PUBLIC "-//W3C//DTD SVG 1.1//EN"
 "http://www.w3.org/Graphics/SVG/1.1/DTD/svg11.dtd">
<!-- Generated by graphviz version 2.43.0 (0)
 -->
<!-- Title: G Pages: 1 -->
<svg width="651pt" height="1628pt"
 viewBox="0.00 0.00 651.00 1628.00" xmlns="http://www.w3.org/2000/svg" xmlns:xlink="http://www.w3.org/1999/xlink">
<g id="graph0" class="graph" transform="scale(1 1) rotate(0) translate(4 1624)">
<title>G</title>
<polygon fill="white" stroke="transparent" points="-4,4 -4,-1624 647,-1624 647,4 -4,4"/>
<!-- 0 -->
<g id="node1" class="node">
<title>0</title>
<ellipse fill="none" stroke="black" cx="315" cy="-18" rx="27" ry="18"/>
<text text-anchor="middle" x="315" y="-14.3" font-family="Times,serif" font-size="14.00">0</text>
</g>
<!-- 1 -->
<g id="node2" class="node">
<title>1</title>
<ellipse fill="none" stroke="black" cx="580" cy="-1602" rx="27" ry="18"/>
<text text-anchor="middle" x="580" y="-1598.3" font-family="Times,serif" font-size="14.00">1</text>
</g>
<!-- 3 -->
<g id="node4" class="node">
<title>3</title>
<ellipse fill="none" stroke="black" cx="580" cy="-1530" rx="27" ry="18"/>
<text text-anchor="middle" x="580" y="-1526.3" font-family="Times,serif" font-size="14.00">3</text>
</g>
<!-- 1&#45;&gt;3 -->
<g id="edge1" class="edge">
<title>1&#45;&gt;3</title>
<path fill="none" stroke="black" d="M580,-1583.7C580,-1575.98 580,-1566.71 580,-1558.11"/>
<polygon fill="black" stroke="black" points="583.5,-1558.1 580,-1548.1 576.5,-1558.1 583.5,-1558.1"/>
</g>
<!-- 2 -->
<g id="node3" class="node">
<title>2</title>
<ellipse fill="none" stroke="black" cx="315" cy="-90" rx="27" ry="18"/>
<text text-anchor="middle" x="315" y="-86.3" font-family="Times,serif" font-size="14.00">2</text>
</g>
<!-- 2&#45;&gt;0 -->
<g id="edge2" class="edge">
<title>2&#45;&gt;0</title>
<path fill="none" stroke="black" d="M315,-71.7C315,-63.98 315,-54.71 315,-46.11"/>
<polygon fill="black" stroke="black" points="318.5,-46.1 315,-36.1 311.5,-46.1 318.5,-46.1"/>
</g>
<!-- 4 -->
<g id="node5" class="node">
<title>4</title>
<ellipse fill="none" stroke="black" cx="544" cy="-1458" rx="27" ry="18"/>
<text text-anchor="middle" x="544" y="-1454.3" font-family="Times,serif" font-size="14.00">4</text>
</g>
<!-- 3&#45;&gt;4 -->
<g id="edge3" class="edge">
<title>3&#45;&gt;4</title>
<path fill="none" stroke="black" d="M571.65,-1512.76C567.29,-1504.28 561.85,-1493.71 556.96,-1484.2"/>
<polygon fill="black" stroke="black" points="559.99,-1482.44 552.3,-1475.15 553.77,-1485.64 559.99,-1482.44"/>
</g>
<!-- 33 -->
<g id="node34" class="node">
<title>33</title>
<ellipse fill="none" stroke="black" cx="616" cy="-1458" rx="27" ry="18"/>
<text text-anchor="middle" x="616" y="-1454.3" font-family="Times,serif" font-size="14.00">33</text>
</g>
<!-- 3&#45;&gt;33 -->
<g id="edge4" class="edge">
<title>3&#45;&gt;33</title>
<path fill="none" stroke="black" d="M588.35,-1512.76C592.71,-1504.28 598.15,-1493.71 603.04,-1484.2"/>
<polygon fill="black" stroke="black" points="606.23,-1485.64 607.7,-1475.15 600.01,-1482.44 606.23,-1485.64"/>
</g>
<!-- 10 -->
<g id="node11" class="node">
<title>10</title>
<ellipse fill="none" stroke="black" cx="472" cy="-1386" rx="27" ry="18"/>
<text text-anchor="middle" x="472" y="-1382.3" font-family="Times,serif" font-size="14.00">10</text>
</g>
<!-- 4&#45;&gt;10 -->
<g id="edge5" class="edge">
<title>4&#45;&gt;10</title>
<path fill="none" stroke="black" d="M529.43,-1442.83C519.25,-1432.94 505.48,-1419.55 493.97,-1408.36"/>
<polygon fill="black" stroke="black" points="496.41,-1405.85 486.8,-1401.38 491.53,-1410.87 496.41,-1405.85"/>
</g>
<!-- 34 -->
<g id="node35" class="node">
<title>34</title>
<ellipse fill="none" stroke="black" cx="544" cy="-1386" rx="27" ry="18"/>
<text text-anchor="middle" x="544" y="-1382.3" font-family="Times,serif" font-size="14.00">34</text>
</g>
<!-- 4&#45;&gt;34 -->
<g id="edge6" class="edge">
<title>4&#45;&gt;34</title>
<path fill="none" stroke="black" d="M544,-1439.7C544,-1431.98 544,-1422.71 544,-1414.11"/>
<polygon fill="black" stroke="black" points="547.5,-1414.1 544,-1404.1 540.5,-1414.1 547.5,-1414.1"/>
</g>
<!-- 5 -->
<g id="node6" class="node">
<title>5</title>
<ellipse fill="none" stroke="black" cx="153" cy="-810" rx="27" ry="18"/>
<text text-anchor="middle" x="153" y="-806.3" font-family="Times,serif" font-size="14.00">5</text>
</g>
<!-- 6 -->
<g id="node7" class="node">
<title>6</title>
<ellipse fill="none" stroke="black" cx="153" cy="-738" rx="27" ry="18"/>
<text text-anchor="middle" x="153" y="-734.3" font-family="Times,serif" font-size="14.00">6</text>
</g>
<!-- 5&#45;&gt;6 -->
<g id="edge7" class="edge">
<title>5&#45;&gt;6</title>
<path fill="none" stroke="black" d="M153,-791.7C153,-783.98 153,-774.71 153,-766.11"/>
<polygon fill="black" stroke="black" points="156.5,-766.1 153,-756.1 149.5,-766.1 156.5,-766.1"/>
</g>
<!-- 61 -->
<g id="node62" class="node">
<title>61</title>
<ellipse fill="none" stroke="black" cx="225" cy="-738" rx="27" ry="18"/>
<text text-anchor="middle" x="225" y="-734.3" font-family="Times,serif" font-size="14.00">61</text>
</g>
<!-- 5&#45;&gt;61 -->
<g id="edge8" class="edge">
<title>5&#45;&gt;61</title>
<path fill="none" stroke="black" d="M167.57,-794.83C177.75,-784.94 191.52,-771.55 203.03,-760.36"/>
<polygon fill="black" stroke="black" points="205.47,-762.87 210.2,-753.38 200.59,-757.85 205.47,-762.87"/>
</g>
<!-- 7 -->
<g id="node8" class="node">
<title>7</title>
<ellipse fill="none" stroke="black" cx="81" cy="-666" rx="27" ry="18"/>
<text text-anchor="middle" x="81" y="-662.3" font-family="Times,serif" font-size="14.00">7</text>
</g>
<!-- 6&#45;&gt;7 -->
<g id="edge9" class="edge">
<title>6&#45;&gt;7</title>
<path fill="none" stroke="black" d="M138.43,-722.83C128.25,-712.94 114.48,-699.55 102.97,-688.36"/>
<polygon fill="black" stroke="black" points="105.41,-685.85 95.8,-681.38 100.53,-690.87 105.41,-685.85"/>
</g>
<!-- 36 -->
<g id="node37" class="node">
<title>36</title>
<ellipse fill="none" stroke="black" cx="153" cy="-666" rx="27" ry="18"/>
<text text-anchor="middle" x="153" y="-662.3" font-family="Times,serif" font-size="14.00">36</text>
</g>
<!-- 6&#45;&gt;36 -->
<g id="edge10" class="edge">
<title>6&#45;&gt;36</title>
<path fill="none" stroke="black" d="M153,-719.7C153,-711.98 153,-702.71 153,-694.11"/>
<polygon fill="black" stroke="black" points="156.5,-694.1 153,-684.1 149.5,-694.1 156.5,-694.1"/>
</g>
<!-- 8 -->
<g id="node9" class="node">
<title>8</title>
<ellipse fill="none" stroke="black" cx="81" cy="-594" rx="27" ry="18"/>
<text text-anchor="middle" x="81" y="-590.3" font-family="Times,serif" font-size="14.00">8</text>
</g>
<!-- 7&#45;&gt;8 -->
<g id="edge12" class="edge">
<title>7&#45;&gt;8</title>
<path fill="none" stroke="black" d="M81,-647.7C81,-639.98 81,-630.71 81,-622.11"/>
<polygon fill="black" stroke="black" points="84.5,-622.1 81,-612.1 77.5,-622.1 84.5,-622.1"/>
</g>
<!-- 37 -->
<g id="node38" class="node">
<title>37</title>
<ellipse fill="none" stroke="black" cx="153" cy="-594" rx="27" ry="18"/>
<text text-anchor="middle" x="153" y="-590.3" font-family="Times,serif" font-size="14.00">37</text>
</g>
<!-- 7&#45;&gt;37 -->
<g id="edge11" class="edge">
<title>7&#45;&gt;37</title>
<path fill="none" stroke="black" d="M95.57,-650.83C105.75,-640.94 119.52,-627.55 131.03,-616.36"/>
<polygon fill="black" stroke="black" points="133.47,-618.87 138.2,-609.38 128.59,-613.85 133.47,-618.87"/>
</g>
<!-- 9 -->
<g id="node10" class="node">
<title>9</title>
<ellipse fill="none" stroke="black" cx="27" cy="-522" rx="27" ry="18"/>
<text text-anchor="middle" x="27" y="-518.3" font-family="Times,serif" font-size="14.00">9</text>
</g>
<!-- 8&#45;&gt;9 -->
<g id="edge14" class="edge">
<title>8&#45;&gt;9</title>
<path fill="none" stroke="black" d="M69.02,-577.46C62.02,-568.4 53.06,-556.79 45.21,-546.61"/>
<polygon fill="black" stroke="black" points="47.83,-544.27 38.95,-538.49 42.29,-548.55 47.83,-544.27"/>
</g>
<!-- 38 -->
<g id="node39" class="node">
<title>38</title>
<ellipse fill="none" stroke="black" cx="99" cy="-522" rx="27" ry="18"/>
<text text-anchor="middle" x="99" y="-518.3" font-family="Times,serif" font-size="14.00">38</text>
</g>
<!-- 8&#45;&gt;38 -->
<g id="edge13" class="edge">
<title>8&#45;&gt;38</title>
<path fill="none" stroke="black" d="M85.36,-576.05C87.39,-568.14 89.86,-558.54 92.14,-549.69"/>
<polygon fill="black" stroke="black" points="95.58,-550.35 94.68,-539.79 88.8,-548.6 95.58,-550.35"/>
</g>
<!-- 39 -->
<g id="node40" class="node">
<title>39</title>
<ellipse fill="none" stroke="black" cx="27" cy="-450" rx="27" ry="18"/>
<text text-anchor="middle" x="27" y="-446.3" font-family="Times,serif" font-size="14.00">39</text>
</g>
<!-- 9&#45;&gt;39 -->
<g id="edge15" class="edge">
<title>9&#45;&gt;39</title>
<path fill="none" stroke="black" d="M27,-503.7C27,-495.98 27,-486.71 27,-478.11"/>
<polygon fill="black" stroke="black" points="30.5,-478.1 27,-468.1 23.5,-478.1 30.5,-478.1"/>
</g>
<!-- 40 -->
<g id="node41" class="node">
<title>40</title>
<ellipse fill="none" stroke="black" cx="99" cy="-450" rx="27" ry="18"/>
<text text-anchor="middle" x="99" y="-446.3" font-family="Times,serif" font-size="14.00">40</text>
</g>
<!-- 9&#45;&gt;40 -->
<g id="edge16" class="edge">
<title>9&#45;&gt;40</title>
<path fill="none" stroke="black" d="M41.57,-506.83C51.75,-496.94 65.52,-483.55 77.03,-472.36"/>
<polygon fill="black" stroke="black" points="79.47,-474.87 84.2,-465.38 74.59,-469.85 79.47,-474.87"/>
</g>
<!-- 11 -->
<g id="node12" class="node">
<title>11</title>
<ellipse fill="none" stroke="black" cx="436" cy="-1314" rx="27" ry="18"/>
<text text-anchor="middle" x="436" y="-1310.3" font-family="Times,serif" font-size="14.00">11</text>
</g>
<!-- 10&#45;&gt;11 -->
<g id="edge17" class="edge">
<title>10&#45;&gt;11</title>
<path fill="none" stroke="black" d="M463.65,-1368.76C459.29,-1360.28 453.85,-1349.71 448.96,-1340.2"/>
<polygon fill="black" stroke="black" points="451.99,-1338.44 444.3,-1331.15 445.77,-1341.64 451.99,-1338.44"/>
</g>
<!-- 73 -->
<g id="node74" class="node">
<title>73</title>
<ellipse fill="none" stroke="black" cx="508" cy="-1314" rx="27" ry="18"/>
<text text-anchor="middle" x="508" y="-1310.3" font-family="Times,serif" font-size="14.00">73</text>
</g>
<!-- 10&#45;&gt;73 -->
<g id="edge18" class="edge">
<title>10&#45;&gt;73</title>
<path fill="none" stroke="black" d="M480.35,-1368.76C484.71,-1360.28 490.15,-1349.71 495.04,-1340.2"/>
<polygon fill="black" stroke="black" points="498.23,-1341.64 499.7,-1331.15 492.01,-1338.44 498.23,-1341.64"/>
</g>
<!-- 12 -->
<g id="node13" class="node">
<title>12</title>
<ellipse fill="none" stroke="black" cx="364" cy="-1242" rx="27" ry="18"/>
<text text-anchor="middle" x="364" y="-1238.3" font-family="Times,serif" font-size="14.00">12</text>
</g>
<!-- 11&#45;&gt;12 -->
<g id="edge19" class="edge">
<title>11&#45;&gt;12</title>
<path fill="none" stroke="black" d="M421.43,-1298.83C411.25,-1288.94 397.48,-1275.55 385.97,-1264.36"/>
<polygon fill="black" stroke="black" points="388.41,-1261.85 378.8,-1257.38 383.53,-1266.87 388.41,-1261.85"/>
</g>
<!-- 42 -->
<g id="node43" class="node">
<title>42</title>
<ellipse fill="none" stroke="black" cx="436" cy="-1242" rx="27" ry="18"/>
<text text-anchor="middle" x="436" y="-1238.3" font-family="Times,serif" font-size="14.00">42</text>
</g>
<!-- 11&#45;&gt;42 -->
<g id="edge20" class="edge">
<title>11&#45;&gt;42</title>
<path fill="none" stroke="black" d="M436,-1295.7C436,-1287.98 436,-1278.71 436,-1270.11"/>
<polygon fill="black" stroke="black" points="439.5,-1270.1 436,-1260.1 432.5,-1270.1 439.5,-1270.1"/>
</g>
<!-- 13 -->
<g id="node14" class="node">
<title>13</title>
<ellipse fill="none" stroke="black" cx="364" cy="-1170" rx="27" ry="18"/>
<text text-anchor="middle" x="364" y="-1166.3" font-family="Times,serif" font-size="14.00">13</text>
</g>
<!-- 12&#45;&gt;13 -->
<g id="edge22" class="edge">
<title>12&#45;&gt;13</title>
<path fill="none" stroke="black" d="M364,-1223.7C364,-1215.98 364,-1206.71 364,-1198.11"/>
<polygon fill="black" stroke="black" points="367.5,-1198.1 364,-1188.1 360.5,-1198.1 367.5,-1198.1"/>
</g>
<!-- 43 -->
<g id="node44" class="node">
<title>43</title>
<ellipse fill="none" stroke="black" cx="436" cy="-1170" rx="27" ry="18"/>
<text text-anchor="middle" x="436" y="-1166.3" font-family="Times,serif" font-size="14.00">43</text>
</g>
<!-- 12&#45;&gt;43 -->
<g id="edge21" class="edge">
<title>12&#45;&gt;43</title>
<path fill="none" stroke="black" d="M378.57,-1226.83C388.75,-1216.94 402.52,-1203.55 414.03,-1192.36"/>
<polygon fill="black" stroke="black" points="416.47,-1194.87 421.2,-1185.38 411.59,-1189.85 416.47,-1194.87"/>
</g>
<!-- 14 -->
<g id="node15" class="node">
<title>14</title>
<ellipse fill="none" stroke="black" cx="292" cy="-1098" rx="27" ry="18"/>
<text text-anchor="middle" x="292" y="-1094.3" font-family="Times,serif" font-size="14.00">14</text>
</g>
<!-- 13&#45;&gt;14 -->
<g id="edge24" class="edge">
<title>13&#45;&gt;14</title>
<path fill="none" stroke="black" d="M349.43,-1154.83C339.25,-1144.94 325.48,-1131.55 313.97,-1120.36"/>
<polygon fill="black" stroke="black" points="316.41,-1117.85 306.8,-1113.38 311.53,-1122.87 316.41,-1117.85"/>
</g>
<!-- 44 -->
<g id="node45" class="node">
<title>44</title>
<ellipse fill="none" stroke="black" cx="364" cy="-1098" rx="27" ry="18"/>
<text text-anchor="middle" x="364" y="-1094.3" font-family="Times,serif" font-size="14.00">44</text>
</g>
<!-- 13&#45;&gt;44 -->
<g id="edge23" class="edge">
<title>13&#45;&gt;44</title>
<path fill="none" stroke="black" d="M364,-1151.7C364,-1143.98 364,-1134.71 364,-1126.11"/>
<polygon fill="black" stroke="black" points="367.5,-1126.1 364,-1116.1 360.5,-1126.1 367.5,-1126.1"/>
</g>
<!-- 15 -->
<g id="node16" class="node">
<title>15</title>
<ellipse fill="none" stroke="black" cx="292" cy="-1026" rx="27" ry="18"/>
<text text-anchor="middle" x="292" y="-1022.3" font-family="Times,serif" font-size="14.00">15</text>
</g>
<!-- 14&#45;&gt;15 -->
<g id="edge25" class="edge">
<title>14&#45;&gt;15</title>
<path fill="none" stroke="black" d="M292,-1079.7C292,-1071.98 292,-1062.71 292,-1054.11"/>
<polygon fill="black" stroke="black" points="295.5,-1054.1 292,-1044.1 288.5,-1054.1 295.5,-1054.1"/>
</g>
<!-- 71 -->
<g id="node72" class="node">
<title>71</title>
<ellipse fill="none" stroke="black" cx="364" cy="-1026" rx="27" ry="18"/>
<text text-anchor="middle" x="364" y="-1022.3" font-family="Times,serif" font-size="14.00">71</text>
</g>
<!-- 14&#45;&gt;71 -->
<g id="edge26" class="edge">
<title>14&#45;&gt;71</title>
<path fill="none" stroke="black" d="M306.57,-1082.83C316.75,-1072.94 330.52,-1059.55 342.03,-1048.36"/>
<polygon fill="black" stroke="black" points="344.47,-1050.87 349.2,-1041.38 339.59,-1045.85 344.47,-1050.87"/>
</g>
<!-- 16 -->
<g id="node17" class="node">
<title>16</title>
<ellipse fill="none" stroke="black" cx="220" cy="-954" rx="27" ry="18"/>
<text text-anchor="middle" x="220" y="-950.3" font-family="Times,serif" font-size="14.00">16</text>
</g>
<!-- 15&#45;&gt;16 -->
<g id="edge28" class="edge">
<title>15&#45;&gt;16</title>
<path fill="none" stroke="black" d="M277.43,-1010.83C267.25,-1000.94 253.48,-987.55 241.97,-976.36"/>
<polygon fill="black" stroke="black" points="244.41,-973.85 234.8,-969.38 239.53,-978.87 244.41,-973.85"/>
</g>
<!-- 46 -->
<g id="node47" class="node">
<title>46</title>
<ellipse fill="none" stroke="black" cx="292" cy="-954" rx="27" ry="18"/>
<text text-anchor="middle" x="292" y="-950.3" font-family="Times,serif" font-size="14.00">46</text>
</g>
<!-- 15&#45;&gt;46 -->
<g id="edge27" class="edge">
<title>15&#45;&gt;46</title>
<path fill="none" stroke="black" d="M292,-1007.7C292,-999.98 292,-990.71 292,-982.11"/>
<polygon fill="black" stroke="black" points="295.5,-982.1 292,-972.1 288.5,-982.1 295.5,-982.1"/>
</g>
<!-- 17 -->
<g id="node18" class="node">
<title>17</title>
<ellipse fill="none" stroke="black" cx="220" cy="-882" rx="27" ry="18"/>
<text text-anchor="middle" x="220" y="-878.3" font-family="Times,serif" font-size="14.00">17</text>
</g>
<!-- 16&#45;&gt;17 -->
<g id="edge29" class="edge">
<title>16&#45;&gt;17</title>
<path fill="none" stroke="black" d="M220,-935.7C220,-927.98 220,-918.71 220,-910.11"/>
<polygon fill="black" stroke="black" points="223.5,-910.1 220,-900.1 216.5,-910.1 223.5,-910.1"/>
</g>
<!-- 47 -->
<g id="node48" class="node">
<title>47</title>
<ellipse fill="none" stroke="black" cx="292" cy="-882" rx="27" ry="18"/>
<text text-anchor="middle" x="292" y="-878.3" font-family="Times,serif" font-size="14.00">47</text>
</g>
<!-- 16&#45;&gt;47 -->
<g id="edge30" class="edge">
<title>16&#45;&gt;47</title>
<path fill="none" stroke="black" d="M234.57,-938.83C244.75,-928.94 258.52,-915.55 270.03,-904.36"/>
<polygon fill="black" stroke="black" points="272.47,-906.87 277.2,-897.38 267.59,-901.85 272.47,-906.87"/>
</g>
<!-- 17&#45;&gt;5 -->
<g id="edge32" class="edge">
<title>17&#45;&gt;5</title>
<path fill="none" stroke="black" d="M206.12,-866.5C196.86,-856.83 184.53,-843.94 174.07,-833.02"/>
<polygon fill="black" stroke="black" points="176.31,-830.29 166.86,-825.49 171.25,-835.13 176.31,-830.29"/>
</g>
<!-- 48 -->
<g id="node49" class="node">
<title>48</title>
<ellipse fill="none" stroke="black" cx="225" cy="-810" rx="27" ry="18"/>
<text text-anchor="middle" x="225" y="-806.3" font-family="Times,serif" font-size="14.00">48</text>
</g>
<!-- 17&#45;&gt;48 -->
<g id="edge31" class="edge">
<title>17&#45;&gt;48</title>
<path fill="none" stroke="black" d="M221.24,-863.7C221.79,-855.98 222.45,-846.71 223.06,-838.11"/>
<polygon fill="black" stroke="black" points="226.56,-838.33 223.78,-828.1 219.57,-837.83 226.56,-838.33"/>
</g>
<!-- 18 -->
<g id="node19" class="node">
<title>18</title>
<ellipse fill="none" stroke="black" cx="580" cy="-1314" rx="27" ry="18"/>
<text text-anchor="middle" x="580" y="-1310.3" font-family="Times,serif" font-size="14.00">18</text>
</g>
<!-- 75 -->
<g id="node76" class="node">
<title>75</title>
<ellipse fill="none" stroke="black" cx="580" cy="-1242" rx="27" ry="18"/>
<text text-anchor="middle" x="580" y="-1238.3" font-family="Times,serif" font-size="14.00">75</text>
</g>
<!-- 18&#45;&gt;75 -->
<g id="edge33" class="edge">
<title>18&#45;&gt;75</title>
<path fill="none" stroke="black" d="M580,-1295.7C580,-1287.98 580,-1278.71 580,-1270.11"/>
<polygon fill="black" stroke="black" points="583.5,-1270.1 580,-1260.1 576.5,-1270.1 583.5,-1270.1"/>
</g>
<!-- 19 -->
<g id="node20" class="node">
<title>19</title>
<ellipse fill="none" stroke="black" cx="508" cy="-1170" rx="27" ry="18"/>
<text text-anchor="middle" x="508" y="-1166.3" font-family="Times,serif" font-size="14.00">19</text>
</g>
<!-- 31 -->
<g id="node32" class="node">
<title>31</title>
<ellipse fill="none" stroke="black" cx="508" cy="-1098" rx="27" ry="18"/>
<text text-anchor="middle" x="508" y="-1094.3" font-family="Times,serif" font-size="14.00">31</text>
</g>
<!-- 19&#45;&gt;31 -->
<g id="edge34" class="edge">
<title>19&#45;&gt;31</title>
<path fill="none" stroke="black" d="M508,-1151.7C508,-1143.98 508,-1134.71 508,-1126.11"/>
<polygon fill="black" stroke="black" points="511.5,-1126.1 508,-1116.1 504.5,-1126.1 511.5,-1126.1"/>
</g>
<!-- 20 -->
<g id="node21" class="node">
<title>20</title>
<ellipse fill="none" stroke="black" cx="279" cy="-522" rx="27" ry="18"/>
<text text-anchor="middle" x="279" y="-518.3" font-family="Times,serif" font-size="14.00">20</text>
</g>
<!-- 53 -->
<g id="node54" class="node">
<title>53</title>
<ellipse fill="none" stroke="black" cx="279" cy="-450" rx="27" ry="18"/>
<text text-anchor="middle" x="279" y="-446.3" font-family="Times,serif" font-size="14.00">53</text>
</g>
<!-- 20&#45;&gt;53 -->
<g id="edge35" class="edge">
<title>20&#45;&gt;53</title>
<path fill="none" stroke="black" d="M279,-503.7C279,-495.98 279,-486.71 279,-478.11"/>
<polygon fill="black" stroke="black" points="282.5,-478.1 279,-468.1 275.5,-478.1 282.5,-478.1"/>
</g>
<!-- 21 -->
<g id="node22" class="node">
<title>21</title>
<ellipse fill="none" stroke="black" cx="171" cy="-306" rx="27" ry="18"/>
<text text-anchor="middle" x="171" y="-302.3" font-family="Times,serif" font-size="14.00">21</text>
</g>
<!-- 23 -->
<g id="node24" class="node">
<title>23</title>
<ellipse fill="none" stroke="black" cx="279" cy="-234" rx="27" ry="18"/>
<text text-anchor="middle" x="279" y="-230.3" font-family="Times,serif" font-size="14.00">23</text>
</g>
<!-- 21&#45;&gt;23 -->
<g id="edge36" class="edge">
<title>21&#45;&gt;23</title>
<path fill="none" stroke="black" d="M189.81,-292.81C207,-281.67 232.62,-265.06 251.99,-252.5"/>
<polygon fill="black" stroke="black" points="253.92,-255.43 260.4,-247.05 250.11,-249.56 253.92,-255.43"/>
</g>
<!-- 22 -->
<g id="node23" class="node">
<title>22</title>
<ellipse fill="none" stroke="black" cx="431" cy="-738" rx="27" ry="18"/>
<text text-anchor="middle" x="431" y="-734.3" font-family="Times,serif" font-size="14.00">22</text>
</g>
<!-- 63 -->
<g id="node64" class="node">
<title>63</title>
<ellipse fill="none" stroke="black" cx="422" cy="-666" rx="27" ry="18"/>
<text text-anchor="middle" x="422" y="-662.3" font-family="Times,serif" font-size="14.00">63</text>
</g>
<!-- 22&#45;&gt;63 -->
<g id="edge37" class="edge">
<title>22&#45;&gt;63</title>
<path fill="none" stroke="black" d="M428.82,-720.05C427.83,-712.35 426.63,-703.03 425.52,-694.36"/>
<polygon fill="black" stroke="black" points="428.97,-693.75 424.22,-684.28 422.02,-694.64 428.97,-693.75"/>
</g>
<!-- 24 -->
<g id="node25" class="node">
<title>24</title>
<ellipse fill="none" stroke="black" cx="315" cy="-162" rx="27" ry="18"/>
<text text-anchor="middle" x="315" y="-158.3" font-family="Times,serif" font-size="14.00">24</text>
</g>
<!-- 23&#45;&gt;24 -->
<g id="edge38" class="edge">
<title>23&#45;&gt;24</title>
<path fill="none" stroke="black" d="M287.35,-216.76C291.71,-208.28 297.15,-197.71 302.04,-188.2"/>
<polygon fill="black" stroke="black" points="305.23,-189.64 306.7,-179.15 299.01,-186.44 305.23,-189.64"/>
</g>
<!-- 24&#45;&gt;2 -->
<g id="edge39" class="edge">
<title>24&#45;&gt;2</title>
<path fill="none" stroke="black" d="M315,-143.7C315,-135.98 315,-126.71 315,-118.11"/>
<polygon fill="black" stroke="black" points="318.5,-118.1 315,-108.1 311.5,-118.1 318.5,-118.1"/>
</g>
<!-- 25 -->
<g id="node26" class="node">
<title>25</title>
<ellipse fill="none" stroke="black" cx="436" cy="-1026" rx="27" ry="18"/>
<text text-anchor="middle" x="436" y="-1022.3" font-family="Times,serif" font-size="14.00">25</text>
</g>
<!-- 56 -->
<g id="node57" class="node">
<title>56</title>
<ellipse fill="none" stroke="black" cx="436" cy="-954" rx="27" ry="18"/>
<text text-anchor="middle" x="436" y="-950.3" font-family="Times,serif" font-size="14.00">56</text>
</g>
<!-- 25&#45;&gt;56 -->
<g id="edge40" class="edge">
<title>25&#45;&gt;56</title>
<path fill="none" stroke="black" d="M436,-1007.7C436,-999.98 436,-990.71 436,-982.11"/>
<polygon fill="black" stroke="black" points="439.5,-982.1 436,-972.1 432.5,-982.1 439.5,-982.1"/>
</g>
<!-- 26 -->
<g id="node27" class="node">
<title>26</title>
<ellipse fill="none" stroke="black" cx="364" cy="-882" rx="27" ry="18"/>
<text text-anchor="middle" x="364" y="-878.3" font-family="Times,serif" font-size="14.00">26</text>
</g>
<!-- 32 -->
<g id="node33" class="node">
<title>32</title>
<ellipse fill="none" stroke="black" cx="431" cy="-810" rx="27" ry="18"/>
<text text-anchor="middle" x="431" y="-806.3" font-family="Times,serif" font-size="14.00">32</text>
</g>
<!-- 26&#45;&gt;32 -->
<g id="edge41" class="edge">
<title>26&#45;&gt;32</title>
<path fill="none" stroke="black" d="M377.88,-866.5C387.14,-856.83 399.47,-843.94 409.93,-833.02"/>
<polygon fill="black" stroke="black" points="412.75,-835.13 417.14,-825.49 407.69,-830.29 412.75,-835.13"/>
</g>
<!-- 27 -->
<g id="node28" class="node">
<title>27</title>
<ellipse fill="none" stroke="black" cx="297" cy="-738" rx="27" ry="18"/>
<text text-anchor="middle" x="297" y="-734.3" font-family="Times,serif" font-size="14.00">27</text>
</g>
<!-- 51 -->
<g id="node52" class="node">
<title>51</title>
<ellipse fill="none" stroke="black" cx="297" cy="-666" rx="27" ry="18"/>
<text text-anchor="middle" x="297" y="-662.3" font-family="Times,serif" font-size="14.00">51</text>
</g>
<!-- 27&#45;&gt;51 -->
<g id="edge42" class="edge">
<title>27&#45;&gt;51</title>
<path fill="none" stroke="black" d="M297,-719.7C297,-711.98 297,-702.71 297,-694.11"/>
<polygon fill="black" stroke="black" points="300.5,-694.1 297,-684.1 293.5,-694.1 300.5,-694.1"/>
</g>
<!-- 28 -->
<g id="node29" class="node">
<title>28</title>
<ellipse fill="none" stroke="black" cx="225" cy="-594" rx="27" ry="18"/>
<text text-anchor="middle" x="225" y="-590.3" font-family="Times,serif" font-size="14.00">28</text>
</g>
<!-- 28&#45;&gt;20 -->
<g id="edge43" class="edge">
<title>28&#45;&gt;20</title>
<path fill="none" stroke="black" d="M236.98,-577.46C243.98,-568.4 252.94,-556.79 260.79,-546.61"/>
<polygon fill="black" stroke="black" points="263.71,-548.55 267.05,-538.49 258.17,-544.27 263.71,-548.55"/>
</g>
<!-- 29 -->
<g id="node30" class="node">
<title>29</title>
<ellipse fill="none" stroke="black" cx="171" cy="-450" rx="27" ry="18"/>
<text text-anchor="middle" x="171" y="-446.3" font-family="Times,serif" font-size="14.00">29</text>
</g>
<!-- 49 -->
<g id="node50" class="node">
<title>49</title>
<ellipse fill="none" stroke="black" cx="171" cy="-378" rx="27" ry="18"/>
<text text-anchor="middle" x="171" y="-374.3" font-family="Times,serif" font-size="14.00">49</text>
</g>
<!-- 29&#45;&gt;49 -->
<g id="edge44" class="edge">
<title>29&#45;&gt;49</title>
<path fill="none" stroke="black" d="M171,-431.7C171,-423.98 171,-414.71 171,-406.11"/>
<polygon fill="black" stroke="black" points="174.5,-406.1 171,-396.1 167.5,-406.1 174.5,-406.1"/>
</g>
<!-- 30 -->
<g id="node31" class="node">
<title>30</title>
<ellipse fill="none" stroke="black" cx="99" cy="-378" rx="27" ry="18"/>
<text text-anchor="middle" x="99" y="-374.3" font-family="Times,serif" font-size="14.00">30</text>
</g>
<!-- 30&#45;&gt;21 -->
<g id="edge45" class="edge">
<title>30&#45;&gt;21</title>
<path fill="none" stroke="black" d="M113.57,-362.83C123.75,-352.94 137.52,-339.55 149.03,-328.36"/>
<polygon fill="black" stroke="black" points="151.47,-330.87 156.2,-321.38 146.59,-325.85 151.47,-330.87"/>
</g>
<!-- 58 -->
<g id="node59" class="node">
<title>58</title>
<ellipse fill="none" stroke="black" cx="508" cy="-1026" rx="27" ry="18"/>
<text text-anchor="middle" x="508" y="-1022.3" font-family="Times,serif" font-size="14.00">58</text>
</g>
<!-- 31&#45;&gt;58 -->
<g id="edge46" class="edge">
<title>31&#45;&gt;58</title>
<path fill="none" stroke="black" d="M508,-1079.7C508,-1071.98 508,-1062.71 508,-1054.11"/>
<polygon fill="black" stroke="black" points="511.5,-1054.1 508,-1044.1 504.5,-1054.1 511.5,-1054.1"/>
</g>
<!-- 32&#45;&gt;22 -->
<g id="edge47" class="edge">
<title>32&#45;&gt;22</title>
<path fill="none" stroke="black" d="M431,-791.7C431,-783.98 431,-774.71 431,-766.11"/>
<polygon fill="black" stroke="black" points="434.5,-766.1 431,-756.1 427.5,-766.1 434.5,-766.1"/>
</g>
<!-- 74 -->
<g id="node75" class="node">
<title>74</title>
<ellipse fill="none" stroke="black" cx="616" cy="-1386" rx="27" ry="18"/>
<text text-anchor="middle" x="616" y="-1382.3" font-family="Times,serif" font-size="14.00">74</text>
</g>
<!-- 33&#45;&gt;74 -->
<g id="edge48" class="edge">
<title>33&#45;&gt;74</title>
<path fill="none" stroke="black" d="M616,-1439.7C616,-1431.98 616,-1422.71 616,-1414.11"/>
<polygon fill="black" stroke="black" points="619.5,-1414.1 616,-1404.1 612.5,-1414.1 619.5,-1414.1"/>
</g>
<!-- 34&#45;&gt;18 -->
<g id="edge49" class="edge">
<title>34&#45;&gt;18</title>
<path fill="none" stroke="black" d="M552.35,-1368.76C556.71,-1360.28 562.15,-1349.71 567.04,-1340.2"/>
<polygon fill="black" stroke="black" points="570.23,-1341.64 571.7,-1331.15 564.01,-1338.44 570.23,-1341.64"/>
</g>
<!-- 35 -->
<g id="node36" class="node">
<title>35</title>
<ellipse fill="none" stroke="black" cx="225" cy="-666" rx="27" ry="18"/>
<text text-anchor="middle" x="225" y="-662.3" font-family="Times,serif" font-size="14.00">35</text>
</g>
<!-- 35&#45;&gt;28 -->
<g id="edge50" class="edge">
<title>35&#45;&gt;28</title>
<path fill="none" stroke="black" d="M225,-647.7C225,-639.98 225,-630.71 225,-622.11"/>
<polygon fill="black" stroke="black" points="228.5,-622.1 225,-612.1 221.5,-622.1 228.5,-622.1"/>
</g>
<!-- 36&#45;&gt;28 -->
<g id="edge51" class="edge">
<title>36&#45;&gt;28</title>
<path fill="none" stroke="black" d="M167.57,-650.83C177.75,-640.94 191.52,-627.55 203.03,-616.36"/>
<polygon fill="black" stroke="black" points="205.47,-618.87 210.2,-609.38 200.59,-613.85 205.47,-618.87"/>
</g>
<!-- 50 -->
<g id="node51" class="node">
<title>50</title>
<ellipse fill="none" stroke="black" cx="171" cy="-522" rx="27" ry="18"/>
<text text-anchor="middle" x="171" y="-518.3" font-family="Times,serif" font-size="14.00">50</text>
</g>
<!-- 37&#45;&gt;50 -->
<g id="edge52" class="edge">
<title>37&#45;&gt;50</title>
<path fill="none" stroke="black" d="M157.36,-576.05C159.39,-568.14 161.86,-558.54 164.14,-549.69"/>
<polygon fill="black" stroke="black" points="167.58,-550.35 166.68,-539.79 160.8,-548.6 167.58,-550.35"/>
</g>
<!-- 38&#45;&gt;29 -->
<g id="edge53" class="edge">
<title>38&#45;&gt;29</title>
<path fill="none" stroke="black" d="M113.57,-506.83C123.75,-496.94 137.52,-483.55 149.03,-472.36"/>
<polygon fill="black" stroke="black" points="151.47,-474.87 156.2,-465.38 146.59,-469.85 151.47,-474.87"/>
</g>
<!-- 39&#45;&gt;30 -->
<g id="edge54" class="edge">
<title>39&#45;&gt;30</title>
<path fill="none" stroke="black" d="M41.57,-434.83C51.75,-424.94 65.52,-411.55 77.03,-400.36"/>
<polygon fill="black" stroke="black" points="79.47,-402.87 84.2,-393.38 74.59,-397.85 79.47,-402.87"/>
</g>
<!-- 40&#45;&gt;30 -->
<g id="edge55" class="edge">
<title>40&#45;&gt;30</title>
<path fill="none" stroke="black" d="M99,-431.7C99,-423.98 99,-414.71 99,-406.11"/>
<polygon fill="black" stroke="black" points="102.5,-406.1 99,-396.1 95.5,-406.1 102.5,-406.1"/>
</g>
<!-- 41 -->
<g id="node42" class="node">
<title>41</title>
<ellipse fill="none" stroke="black" cx="508" cy="-1242" rx="27" ry="18"/>
<text text-anchor="middle" x="508" y="-1238.3" font-family="Times,serif" font-size="14.00">41</text>
</g>
<!-- 41&#45;&gt;19 -->
<g id="edge56" class="edge">
<title>41&#45;&gt;19</title>
<path fill="none" stroke="black" d="M508,-1223.7C508,-1215.98 508,-1206.71 508,-1198.11"/>
<polygon fill="black" stroke="black" points="511.5,-1198.1 508,-1188.1 504.5,-1198.1 511.5,-1198.1"/>
</g>
<!-- 42&#45;&gt;19 -->
<g id="edge57" class="edge">
<title>42&#45;&gt;19</title>
<path fill="none" stroke="black" d="M450.57,-1226.83C460.75,-1216.94 474.52,-1203.55 486.03,-1192.36"/>
<polygon fill="black" stroke="black" points="488.47,-1194.87 493.2,-1185.38 483.59,-1189.85 488.47,-1194.87"/>
</g>
<!-- 72 -->
<g id="node73" class="node">
<title>72</title>
<ellipse fill="none" stroke="black" cx="436" cy="-1098" rx="27" ry="18"/>
<text text-anchor="middle" x="436" y="-1094.3" font-family="Times,serif" font-size="14.00">72</text>
</g>
<!-- 43&#45;&gt;72 -->
<g id="edge58" class="edge">
<title>43&#45;&gt;72</title>
<path fill="none" stroke="black" d="M436,-1151.7C436,-1143.98 436,-1134.71 436,-1126.11"/>
<polygon fill="black" stroke="black" points="439.5,-1126.1 436,-1116.1 432.5,-1126.1 439.5,-1126.1"/>
</g>
<!-- 44&#45;&gt;25 -->
<g id="edge59" class="edge">
<title>44&#45;&gt;25</title>
<path fill="none" stroke="black" d="M378.57,-1082.83C388.75,-1072.94 402.52,-1059.55 414.03,-1048.36"/>
<polygon fill="black" stroke="black" points="416.47,-1050.87 421.2,-1041.38 411.59,-1045.85 416.47,-1050.87"/>
</g>
<!-- 45 -->
<g id="node46" class="node">
<title>45</title>
<ellipse fill="none" stroke="black" cx="364" cy="-954" rx="27" ry="18"/>
<text text-anchor="middle" x="364" y="-950.3" font-family="Times,serif" font-size="14.00">45</text>
</g>
<!-- 45&#45;&gt;26 -->
<g id="edge60" class="edge">
<title>45&#45;&gt;26</title>
<path fill="none" stroke="black" d="M364,-935.7C364,-927.98 364,-918.71 364,-910.11"/>
<polygon fill="black" stroke="black" points="367.5,-910.1 364,-900.1 360.5,-910.1 367.5,-910.1"/>
</g>
<!-- 46&#45;&gt;26 -->
<g id="edge61" class="edge">
<title>46&#45;&gt;26</title>
<path fill="none" stroke="black" d="M306.57,-938.83C316.75,-928.94 330.52,-915.55 342.03,-904.36"/>
<polygon fill="black" stroke="black" points="344.47,-906.87 349.2,-897.38 339.59,-901.85 344.47,-906.87"/>
</g>
<!-- 70 -->
<g id="node71" class="node">
<title>70</title>
<ellipse fill="none" stroke="black" cx="297" cy="-810" rx="27" ry="18"/>
<text text-anchor="middle" x="297" y="-806.3" font-family="Times,serif" font-size="14.00">70</text>
</g>
<!-- 47&#45;&gt;70 -->
<g id="edge62" class="edge">
<title>47&#45;&gt;70</title>
<path fill="none" stroke="black" d="M293.24,-863.7C293.79,-855.98 294.45,-846.71 295.06,-838.11"/>
<polygon fill="black" stroke="black" points="298.56,-838.33 295.78,-828.1 291.57,-837.83 298.56,-838.33"/>
</g>
<!-- 48&#45;&gt;27 -->
<g id="edge63" class="edge">
<title>48&#45;&gt;27</title>
<path fill="none" stroke="black" d="M239.57,-794.83C249.75,-784.94 263.52,-771.55 275.03,-760.36"/>
<polygon fill="black" stroke="black" points="277.47,-762.87 282.2,-753.38 272.59,-757.85 277.47,-762.87"/>
</g>
<!-- 49&#45;&gt;21 -->
<g id="edge64" class="edge">
<title>49&#45;&gt;21</title>
<path fill="none" stroke="black" d="M171,-359.7C171,-351.98 171,-342.71 171,-334.11"/>
<polygon fill="black" stroke="black" points="174.5,-334.1 171,-324.1 167.5,-334.1 174.5,-334.1"/>
</g>
<!-- 50&#45;&gt;29 -->
<g id="edge65" class="edge">
<title>50&#45;&gt;29</title>
<path fill="none" stroke="black" d="M171,-503.7C171,-495.98 171,-486.71 171,-478.11"/>
<polygon fill="black" stroke="black" points="174.5,-478.1 171,-468.1 167.5,-478.1 174.5,-478.1"/>
</g>
<!-- 52 -->
<g id="node53" class="node">
<title>52</title>
<ellipse fill="none" stroke="black" cx="297" cy="-594" rx="27" ry="18"/>
<text text-anchor="middle" x="297" y="-590.3" font-family="Times,serif" font-size="14.00">52</text>
</g>
<!-- 51&#45;&gt;52 -->
<g id="edge66" class="edge">
<title>51&#45;&gt;52</title>
<path fill="none" stroke="black" d="M297,-647.7C297,-639.98 297,-630.71 297,-622.11"/>
<polygon fill="black" stroke="black" points="300.5,-622.1 297,-612.1 293.5,-622.1 300.5,-622.1"/>
</g>
<!-- 52&#45;&gt;20 -->
<g id="edge67" class="edge">
<title>52&#45;&gt;20</title>
<path fill="none" stroke="black" d="M292.64,-576.05C290.61,-568.14 288.14,-558.54 285.86,-549.69"/>
<polygon fill="black" stroke="black" points="289.2,-548.6 283.32,-539.79 282.42,-550.35 289.2,-548.6"/>
</g>
<!-- 54 -->
<g id="node55" class="node">
<title>54</title>
<ellipse fill="none" stroke="black" cx="279" cy="-378" rx="27" ry="18"/>
<text text-anchor="middle" x="279" y="-374.3" font-family="Times,serif" font-size="14.00">54</text>
</g>
<!-- 53&#45;&gt;54 -->
<g id="edge68" class="edge">
<title>53&#45;&gt;54</title>
<path fill="none" stroke="black" d="M279,-431.7C279,-423.98 279,-414.71 279,-406.11"/>
<polygon fill="black" stroke="black" points="282.5,-406.1 279,-396.1 275.5,-406.1 282.5,-406.1"/>
</g>
<!-- 55 -->
<g id="node56" class="node">
<title>55</title>
<ellipse fill="none" stroke="black" cx="279" cy="-306" rx="27" ry="18"/>
<text text-anchor="middle" x="279" y="-302.3" font-family="Times,serif" font-size="14.00">55</text>
</g>
<!-- 54&#45;&gt;55 -->
<g id="edge69" class="edge">
<title>54&#45;&gt;55</title>
<path fill="none" stroke="black" d="M279,-359.7C279,-351.98 279,-342.71 279,-334.11"/>
<polygon fill="black" stroke="black" points="282.5,-334.1 279,-324.1 275.5,-334.1 282.5,-334.1"/>
</g>
<!-- 55&#45;&gt;23 -->
<g id="edge70" class="edge">
<title>55&#45;&gt;23</title>
<path fill="none" stroke="black" d="M279,-287.7C279,-279.98 279,-270.71 279,-262.11"/>
<polygon fill="black" stroke="black" points="282.5,-262.1 279,-252.1 275.5,-262.1 282.5,-262.1"/>
</g>
<!-- 57 -->
<g id="node58" class="node">
<title>57</title>
<ellipse fill="none" stroke="black" cx="436" cy="-882" rx="27" ry="18"/>
<text text-anchor="middle" x="436" y="-878.3" font-family="Times,serif" font-size="14.00">57</text>
</g>
<!-- 56&#45;&gt;57 -->
<g id="edge71" class="edge">
<title>56&#45;&gt;57</title>
<path fill="none" stroke="black" d="M436,-935.7C436,-927.98 436,-918.71 436,-910.11"/>
<polygon fill="black" stroke="black" points="439.5,-910.1 436,-900.1 432.5,-910.1 439.5,-910.1"/>
</g>
<!-- 57&#45;&gt;32 -->
<g id="edge72" class="edge">
<title>57&#45;&gt;32</title>
<path fill="none" stroke="black" d="M434.76,-863.7C434.21,-855.98 433.55,-846.71 432.94,-838.11"/>
<polygon fill="black" stroke="black" points="436.43,-837.83 432.22,-828.1 429.44,-838.33 436.43,-837.83"/>
</g>
<!-- 59 -->
<g id="node60" class="node">
<title>59</title>
<ellipse fill="none" stroke="black" cx="508" cy="-954" rx="27" ry="18"/>
<text text-anchor="middle" x="508" y="-950.3" font-family="Times,serif" font-size="14.00">59</text>
</g>
<!-- 58&#45;&gt;59 -->
<g id="edge73" class="edge">
<title>58&#45;&gt;59</title>
<path fill="none" stroke="black" d="M508,-1007.7C508,-999.98 508,-990.71 508,-982.11"/>
<polygon fill="black" stroke="black" points="511.5,-982.1 508,-972.1 504.5,-982.1 511.5,-982.1"/>
</g>
<!-- 60 -->
<g id="node61" class="node">
<title>60</title>
<ellipse fill="none" stroke="black" cx="508" cy="-882" rx="27" ry="18"/>
<text text-anchor="middle" x="508" y="-878.3" font-family="Times,serif" font-size="14.00">60</text>
</g>
<!-- 59&#45;&gt;60 -->
<g id="edge74" class="edge">
<title>59&#45;&gt;60</title>
<path fill="none" stroke="black" d="M508,-935.7C508,-927.98 508,-918.71 508,-910.11"/>
<polygon fill="black" stroke="black" points="511.5,-910.1 508,-900.1 504.5,-910.1 511.5,-910.1"/>
</g>
<!-- 62 -->
<g id="node63" class="node">
<title>62</title>
<ellipse fill="none" stroke="black" cx="506" cy="-810" rx="27" ry="18"/>
<text text-anchor="middle" x="506" y="-806.3" font-family="Times,serif" font-size="14.00">62</text>
</g>
<!-- 60&#45;&gt;62 -->
<g id="edge75" class="edge">
<title>60&#45;&gt;62</title>
<path fill="none" stroke="black" d="M507.51,-863.7C507.29,-855.98 507.02,-846.71 506.77,-838.11"/>
<polygon fill="black" stroke="black" points="510.27,-838 506.49,-828.1 503.28,-838.2 510.27,-838"/>
</g>
<!-- 61&#45;&gt;35 -->
<g id="edge76" class="edge">
<title>61&#45;&gt;35</title>
<path fill="none" stroke="black" d="M225,-719.7C225,-711.98 225,-702.71 225,-694.11"/>
<polygon fill="black" stroke="black" points="228.5,-694.1 225,-684.1 221.5,-694.1 228.5,-694.1"/>
</g>
<!-- 62&#45;&gt;22 -->
<g id="edge77" class="edge">
<title>62&#45;&gt;22</title>
<path fill="none" stroke="black" d="M490.82,-794.83C480.15,-784.87 465.68,-771.37 453.65,-760.14"/>
<polygon fill="black" stroke="black" points="455.85,-757.41 446.15,-753.14 451.08,-762.53 455.85,-757.41"/>
</g>
<!-- 64 -->
<g id="node65" class="node">
<title>64</title>
<ellipse fill="none" stroke="black" cx="421" cy="-594" rx="27" ry="18"/>
<text text-anchor="middle" x="421" y="-590.3" font-family="Times,serif" font-size="14.00">64</text>
</g>
<!-- 63&#45;&gt;64 -->
<g id="edge78" class="edge">
<title>63&#45;&gt;64</title>
<path fill="none" stroke="black" d="M421.75,-647.7C421.64,-639.98 421.51,-630.71 421.39,-622.11"/>
<polygon fill="black" stroke="black" points="424.89,-622.05 421.24,-612.1 417.89,-622.15 424.89,-622.05"/>
</g>
<!-- 65 -->
<g id="node66" class="node">
<title>65</title>
<ellipse fill="none" stroke="black" cx="420" cy="-522" rx="27" ry="18"/>
<text text-anchor="middle" x="420" y="-518.3" font-family="Times,serif" font-size="14.00">65</text>
</g>
<!-- 64&#45;&gt;65 -->
<g id="edge79" class="edge">
<title>64&#45;&gt;65</title>
<path fill="none" stroke="black" d="M420.75,-575.7C420.64,-567.98 420.51,-558.71 420.39,-550.11"/>
<polygon fill="black" stroke="black" points="423.89,-550.05 420.24,-540.1 416.89,-550.15 423.89,-550.05"/>
</g>
<!-- 66 -->
<g id="node67" class="node">
<title>66</title>
<ellipse fill="none" stroke="black" cx="418" cy="-450" rx="27" ry="18"/>
<text text-anchor="middle" x="418" y="-446.3" font-family="Times,serif" font-size="14.00">66</text>
</g>
<!-- 65&#45;&gt;66 -->
<g id="edge80" class="edge">
<title>65&#45;&gt;66</title>
<path fill="none" stroke="black" d="M419.51,-503.7C419.29,-495.98 419.02,-486.71 418.77,-478.11"/>
<polygon fill="black" stroke="black" points="422.27,-478 418.49,-468.1 415.28,-478.2 422.27,-478"/>
</g>
<!-- 67 -->
<g id="node68" class="node">
<title>67</title>
<ellipse fill="none" stroke="black" cx="414" cy="-378" rx="27" ry="18"/>
<text text-anchor="middle" x="414" y="-374.3" font-family="Times,serif" font-size="14.00">67</text>
</g>
<!-- 66&#45;&gt;67 -->
<g id="edge81" class="edge">
<title>66&#45;&gt;67</title>
<path fill="none" stroke="black" d="M417.01,-431.7C416.57,-423.98 416.04,-414.71 415.55,-406.11"/>
<polygon fill="black" stroke="black" points="419.04,-405.89 414.98,-396.1 412.05,-406.29 419.04,-405.89"/>
</g>
<!-- 68 -->
<g id="node69" class="node">
<title>68</title>
<ellipse fill="none" stroke="black" cx="378" cy="-306" rx="27" ry="18"/>
<text text-anchor="middle" x="378" y="-302.3" font-family="Times,serif" font-size="14.00">68</text>
</g>
<!-- 67&#45;&gt;68 -->
<g id="edge82" class="edge">
<title>67&#45;&gt;68</title>
<path fill="none" stroke="black" d="M405.65,-360.76C401.29,-352.28 395.85,-341.71 390.96,-332.2"/>
<polygon fill="black" stroke="black" points="393.99,-330.44 386.3,-323.15 387.77,-333.64 393.99,-330.44"/>
</g>
<!-- 69 -->
<g id="node70" class="node">
<title>69</title>
<ellipse fill="none" stroke="black" cx="360" cy="-234" rx="27" ry="18"/>
<text text-anchor="middle" x="360" y="-230.3" font-family="Times,serif" font-size="14.00">69</text>
</g>
<!-- 68&#45;&gt;69 -->
<g id="edge83" class="edge">
<title>68&#45;&gt;69</title>
<path fill="none" stroke="black" d="M373.64,-288.05C371.61,-280.14 369.14,-270.54 366.86,-261.69"/>
<polygon fill="black" stroke="black" points="370.2,-260.6 364.32,-251.79 363.42,-262.35 370.2,-260.6"/>
</g>
<!-- 69&#45;&gt;24 -->
<g id="edge84" class="edge">
<title>69&#45;&gt;24</title>
<path fill="none" stroke="black" d="M349.79,-217.12C344.15,-208.34 337.03,-197.26 330.7,-187.42"/>
<polygon fill="black" stroke="black" points="333.52,-185.34 325.17,-178.82 327.63,-189.13 333.52,-185.34"/>
</g>
<!-- 70&#45;&gt;27 -->
<g id="edge85" class="edge">
<title>70&#45;&gt;27</title>
<path fill="none" stroke="black" d="M297,-791.7C297,-783.98 297,-774.71 297,-766.11"/>
<polygon fill="black" stroke="black" points="300.5,-766.1 297,-756.1 293.5,-766.1 300.5,-766.1"/>
</g>
<!-- 71&#45;&gt;45 -->
<g id="edge86" class="edge">
<title>71&#45;&gt;45</title>
<path fill="none" stroke="black" d="M364,-1007.7C364,-999.98 364,-990.71 364,-982.11"/>
<polygon fill="black" stroke="black" points="367.5,-982.1 364,-972.1 360.5,-982.1 367.5,-982.1"/>
</g>
<!-- 72&#45;&gt;25 -->
<g id="edge87" class="edge">
<title>72&#45;&gt;25</title>
<path fill="none" stroke="black" d="M436,-1079.7C436,-1071.98 436,-1062.71 436,-1054.11"/>
<polygon fill="black" stroke="black" points="439.5,-1054.1 436,-1044.1 432.5,-1054.1 439.5,-1054.1"/>
</g>
<!-- 73&#45;&gt;41 -->
<g id="edge88" class="edge">
<title>73&#45;&gt;41</title>
<path fill="none" stroke="black" d="M508,-1295.7C508,-1287.98 508,-1278.71 508,-1270.11"/>
<polygon fill="black" stroke="black" points="511.5,-1270.1 508,-1260.1 504.5,-1270.1 511.5,-1270.1"/>
</g>
<!-- 74&#45;&gt;18 -->
<g id="edge89" class="edge">
<title>74&#45;&gt;18</title>
<path fill="none" stroke="black" d="M607.65,-1368.76C603.29,-1360.28 597.85,-1349.71 592.96,-1340.2"/>
<polygon fill="black" stroke="black" points="595.99,-1338.44 588.3,-1331.15 589.77,-1341.64 595.99,-1338.44"/>
</g>
<!-- 76 -->
<g id="node77" class="node">
<title>76</title>
<ellipse fill="none" stroke="black" cx="580" cy="-1170" rx="27" ry="18"/>
<text text-anchor="middle" x="580" y="-1166.3" font-family="Times,serif" font-size="14.00">76</text>
</g>
<!-- 75&#45;&gt;76 -->
<g id="edge90" class="edge">
<title>75&#45;&gt;76</title>
<path fill="none" stroke="black" d="M580,-1223.7C580,-1215.98 580,-1206.71 580,-1198.11"/>
<polygon fill="black" stroke="black" points="583.5,-1198.1 580,-1188.1 576.5,-1198.1 583.5,-1198.1"/>
</g>
<!-- 76&#45;&gt;31 -->
<g id="edge91" class="edge">
<title>76&#45;&gt;31</title>
<path fill="none" stroke="black" d="M565.43,-1154.83C555.25,-1144.94 541.48,-1131.55 529.97,-1120.36"/>
<polygon fill="black" stroke="black" points="532.41,-1117.85 522.8,-1113.38 527.53,-1122.87 532.41,-1117.85"/>
</g>
</g>
</svg>
