<?xml version="1.0" encoding="UTF-8" standalone="no"?>
<!DOCTYPE svg PUBLIC "-//W3C//DTD SVG 1.1//EN"
 "http://www.w3.org/Graphics/SVG/1.1/DTD/svg11.dtd">
<!-- Generated by graphviz version 2.43.0 (0)
 -->
<!-- Title: G Pages: 1 -->
<svg width="278pt" height="548pt"
 viewBox="0.00 0.00 278.00 548.00" xmlns="http://www.w3.org/2000/svg" xmlns:xlink="http://www.w3.org/1999/xlink">
<g id="graph0" class="graph" transform="scale(1 1) rotate(0) translate(4 544)">
<title>G</title>
<polygon fill="white" stroke="transparent" points="-4,4 -4,-544 274,-544 274,4 -4,4"/>
<!-- 0 -->
<g id="node1" class="node">
<title>0</title>
<ellipse fill="none" stroke="black" cx="243" cy="-450" rx="27" ry="18"/>
<text text-anchor="middle" x="243" y="-446.3" font-family="Times,serif" font-size="14.00">0</text>
</g>
<!-- 13 -->
<g id="node14" class="node">
<title>13</title>
<ellipse fill="none" stroke="black" cx="243" cy="-378" rx="27" ry="18"/>
<text text-anchor="middle" x="243" y="-374.3" font-family="Times,serif" font-size="14.00">13</text>
</g>
<!-- 0&#45;&gt;13 -->
<g id="edge1" class="edge">
<title>0&#45;&gt;13</title>
<path fill="none" stroke="black" d="M243,-431.7C243,-423.98 243,-414.71 243,-406.11"/>
<polygon fill="black" stroke="black" points="246.5,-406.1 243,-396.1 239.5,-406.1 246.5,-406.1"/>
</g>
<!-- 1 -->
<g id="node2" class="node">
<title>1</title>
<ellipse fill="none" stroke="black" cx="99" cy="-306" rx="27" ry="18"/>
<text text-anchor="middle" x="99" y="-302.3" font-family="Times,serif" font-size="14.00">1</text>
</g>
<!-- 6 -->
<g id="node7" class="node">
<title>6</title>
<ellipse fill="none" stroke="black" cx="99" cy="-234" rx="27" ry="18"/>
<text text-anchor="middle" x="99" y="-230.3" font-family="Times,serif" font-size="14.00">6</text>
</g>
<!-- 1&#45;&gt;6 -->
<g id="edge2" class="edge">
<title>1&#45;&gt;6</title>
<path fill="none" stroke="black" d="M99,-287.7C99,-279.98 99,-270.71 99,-262.11"/>
<polygon fill="black" stroke="black" points="102.5,-262.1 99,-252.1 95.5,-262.1 102.5,-262.1"/>
</g>
<!-- 2 -->
<g id="node3" class="node">
<title>2</title>
<ellipse fill="none" stroke="black" cx="153" cy="-90" rx="27" ry="18"/>
<text text-anchor="middle" x="153" y="-86.3" font-family="Times,serif" font-size="14.00">2</text>
</g>
<!-- 16 -->
<g id="node17" class="node">
<title>16</title>
<ellipse fill="none" stroke="black" cx="99" cy="-18" rx="27" ry="18"/>
<text text-anchor="middle" x="99" y="-14.3" font-family="Times,serif" font-size="14.00">16</text>
</g>
<!-- 2&#45;&gt;16 -->
<g id="edge3" class="edge">
<title>2&#45;&gt;16</title>
<path fill="none" stroke="black" d="M141.02,-73.46C134.02,-64.4 125.06,-52.79 117.21,-42.61"/>
<polygon fill="black" stroke="black" points="119.83,-40.27 110.95,-34.49 114.29,-44.55 119.83,-40.27"/>
</g>
<!-- 3 -->
<g id="node4" class="node">
<title>3</title>
<ellipse fill="none" stroke="black" cx="27" cy="-234" rx="27" ry="18"/>
<text text-anchor="middle" x="27" y="-230.3" font-family="Times,serif" font-size="14.00">3</text>
</g>
<!-- 14 -->
<g id="node15" class="node">
<title>14</title>
<ellipse fill="none" stroke="black" cx="45" cy="-162" rx="27" ry="18"/>
<text text-anchor="middle" x="45" y="-158.3" font-family="Times,serif" font-size="14.00">14</text>
</g>
<!-- 3&#45;&gt;14 -->
<g id="edge4" class="edge">
<title>3&#45;&gt;14</title>
<path fill="none" stroke="black" d="M31.36,-216.05C33.39,-208.14 35.86,-198.54 38.14,-189.69"/>
<polygon fill="black" stroke="black" points="41.58,-190.35 40.68,-179.79 34.8,-188.6 41.58,-190.35"/>
</g>
<!-- 4 -->
<g id="node5" class="node">
<title>4</title>
<ellipse fill="none" stroke="black" cx="63" cy="-90" rx="27" ry="18"/>
<text text-anchor="middle" x="63" y="-86.3" font-family="Times,serif" font-size="14.00">4</text>
</g>
<!-- 4&#45;&gt;16 -->
<g id="edge5" class="edge">
<title>4&#45;&gt;16</title>
<path fill="none" stroke="black" d="M71.35,-72.76C75.71,-64.28 81.15,-53.71 86.04,-44.2"/>
<polygon fill="black" stroke="black" points="89.23,-45.64 90.7,-35.15 83.01,-42.44 89.23,-45.64"/>
</g>
<!-- 5 -->
<g id="node6" class="node">
<title>5</title>
<ellipse fill="none" stroke="black" cx="243" cy="-306" rx="27" ry="18"/>
<text text-anchor="middle" x="243" y="-302.3" font-family="Times,serif" font-size="14.00">5</text>
</g>
<!-- 7 -->
<g id="node8" class="node">
<title>7</title>
<ellipse fill="none" stroke="black" cx="243" cy="-234" rx="27" ry="18"/>
<text text-anchor="middle" x="243" y="-230.3" font-family="Times,serif" font-size="14.00">7</text>
</g>
<!-- 5&#45;&gt;7 -->
<g id="edge6" class="edge">
<title>5&#45;&gt;7</title>
<path fill="none" stroke="black" d="M243,-287.7C243,-279.98 243,-270.71 243,-262.11"/>
<polygon fill="black" stroke="black" points="246.5,-262.1 243,-252.1 239.5,-262.1 246.5,-262.1"/>
</g>
<!-- 11 -->
<g id="node12" class="node">
<title>11</title>
<ellipse fill="none" stroke="black" cx="153" cy="-162" rx="27" ry="18"/>
<text text-anchor="middle" x="153" y="-158.3" font-family="Times,serif" font-size="14.00">11</text>
</g>
<!-- 6&#45;&gt;11 -->
<g id="edge7" class="edge">
<title>6&#45;&gt;11</title>
<path fill="none" stroke="black" d="M110.98,-217.46C117.98,-208.4 126.94,-196.79 134.79,-186.61"/>
<polygon fill="black" stroke="black" points="137.71,-188.55 141.05,-178.49 132.17,-184.27 137.71,-188.55"/>
</g>
<!-- 15 -->
<g id="node16" class="node">
<title>15</title>
<ellipse fill="none" stroke="black" cx="234" cy="-162" rx="27" ry="18"/>
<text text-anchor="middle" x="234" y="-158.3" font-family="Times,serif" font-size="14.00">15</text>
</g>
<!-- 7&#45;&gt;15 -->
<g id="edge8" class="edge">
<title>7&#45;&gt;15</title>
<path fill="none" stroke="black" d="M240.82,-216.05C239.83,-208.35 238.63,-199.03 237.52,-190.36"/>
<polygon fill="black" stroke="black" points="240.97,-189.75 236.22,-180.28 234.02,-190.64 240.97,-189.75"/>
</g>
<!-- 8 -->
<g id="node9" class="node">
<title>8</title>
<ellipse fill="none" stroke="black" cx="243" cy="-522" rx="27" ry="18"/>
<text text-anchor="middle" x="243" y="-518.3" font-family="Times,serif" font-size="14.00">8</text>
</g>
<!-- 8&#45;&gt;0 -->
<g id="edge9" class="edge">
<title>8&#45;&gt;0</title>
<path fill="none" stroke="black" d="M243,-503.7C243,-495.98 243,-486.71 243,-478.11"/>
<polygon fill="black" stroke="black" points="246.5,-478.1 243,-468.1 239.5,-478.1 246.5,-478.1"/>
</g>
<!-- 9 -->
<g id="node10" class="node">
<title>9</title>
<ellipse fill="none" stroke="black" cx="171" cy="-234" rx="27" ry="18"/>
<text text-anchor="middle" x="171" y="-230.3" font-family="Times,serif" font-size="14.00">9</text>
</g>
<!-- 9&#45;&gt;11 -->
<g id="edge10" class="edge">
<title>9&#45;&gt;11</title>
<path fill="none" stroke="black" d="M166.64,-216.05C164.61,-208.14 162.14,-198.54 159.86,-189.69"/>
<polygon fill="black" stroke="black" points="163.2,-188.6 157.32,-179.79 156.42,-190.35 163.2,-188.6"/>
</g>
<!-- 10 -->
<g id="node11" class="node">
<title>10</title>
<ellipse fill="none" stroke="black" cx="99" cy="-378" rx="27" ry="18"/>
<text text-anchor="middle" x="99" y="-374.3" font-family="Times,serif" font-size="14.00">10</text>
</g>
<!-- 10&#45;&gt;1 -->
<g id="edge11" class="edge">
<title>10&#45;&gt;1</title>
<path fill="none" stroke="black" d="M99,-359.7C99,-351.98 99,-342.71 99,-334.11"/>
<polygon fill="black" stroke="black" points="102.5,-334.1 99,-324.1 95.5,-334.1 102.5,-334.1"/>
</g>
<!-- 11&#45;&gt;2 -->
<g id="edge12" class="edge">
<title>11&#45;&gt;2</title>
<path fill="none" stroke="black" d="M153,-143.7C153,-135.98 153,-126.71 153,-118.11"/>
<polygon fill="black" stroke="black" points="156.5,-118.1 153,-108.1 149.5,-118.1 156.5,-118.1"/>
</g>
<!-- 12 -->
<g id="node13" class="node">
<title>12</title>
<ellipse fill="none" stroke="black" cx="27" cy="-306" rx="27" ry="18"/>
<text text-anchor="middle" x="27" y="-302.3" font-family="Times,serif" font-size="14.00">12</text>
</g>
<!-- 12&#45;&gt;3 -->
<g id="edge13" class="edge">
<title>12&#45;&gt;3</title>
<path fill="none" stroke="black" d="M27,-287.7C27,-279.98 27,-270.71 27,-262.11"/>
<polygon fill="black" stroke="black" points="30.5,-262.1 27,-252.1 23.5,-262.1 30.5,-262.1"/>
</g>
<!-- 13&#45;&gt;5 -->
<g id="edge14" class="edge">
<title>13&#45;&gt;5</title>
<path fill="none" stroke="black" d="M243,-359.7C243,-351.98 243,-342.71 243,-334.11"/>
<polygon fill="black" stroke="black" points="246.5,-334.1 243,-324.1 239.5,-334.1 246.5,-334.1"/>
</g>
<!-- 14&#45;&gt;4 -->
<g id="edge15" class="edge">
<title>14&#45;&gt;4</title>
<path fill="none" stroke="black" d="M49.36,-144.05C51.39,-136.14 53.86,-126.54 56.14,-117.69"/>
<polygon fill="black" stroke="black" points="59.58,-118.35 58.68,-107.79 52.8,-116.6 59.58,-118.35"/>
</g>
<!-- 15&#45;&gt;2 -->
<g id="edge16" class="edge">
<title>15&#45;&gt;2</title>
<path fill="none" stroke="black" d="M218,-147.17C206.24,-137.01 190.06,-123.03 176.79,-111.56"/>
<polygon fill="black" stroke="black" points="178.82,-108.69 168.97,-104.8 174.25,-113.99 178.82,-108.69"/>
</g>
</g>
</svg>
