<?xml version="1.0" encoding="UTF-8" standalone="no"?>
<!DOCTYPE svg PUBLIC "-//W3C//DTD SVG 1.1//EN"
 "http://www.w3.org/Graphics/SVG/1.1/DTD/svg11.dtd">
<!-- Generated by graphviz version 2.43.0 (0)
 -->
<!-- Title: G Pages: 1 -->
<svg width="278pt" height="620pt"
 viewBox="0.00 0.00 278.00 620.00" xmlns="http://www.w3.org/2000/svg" xmlns:xlink="http://www.w3.org/1999/xlink">
<g id="graph0" class="graph" transform="scale(1 1) rotate(0) translate(4 616)">
<title>G</title>
<polygon fill="white" stroke="transparent" points="-4,4 -4,-616 274,-616 274,4 -4,4"/>
<!-- 0 -->
<g id="node1" class="node">
<title>0</title>
<ellipse fill="none" stroke="black" cx="99" cy="-522" rx="27" ry="18"/>
<text text-anchor="middle" x="99" y="-518.3" font-family="Times,serif" font-size="14.00">0</text>
</g>
<!-- 13 -->
<g id="node14" class="node">
<title>13</title>
<ellipse fill="none" stroke="black" cx="99" cy="-450" rx="27" ry="18"/>
<text text-anchor="middle" x="99" y="-446.3" font-family="Times,serif" font-size="14.00">13</text>
</g>
<!-- 0&#45;&gt;13 -->
<g id="edge1" class="edge">
<title>0&#45;&gt;13</title>
<path fill="none" stroke="black" d="M99,-503.7C99,-495.98 99,-486.71 99,-478.11"/>
<polygon fill="black" stroke="black" points="102.5,-478.1 99,-468.1 95.5,-478.1 102.5,-478.1"/>
</g>
<!-- 1 -->
<g id="node2" class="node">
<title>1</title>
<ellipse fill="none" stroke="black" cx="27" cy="-522" rx="27" ry="18"/>
<text text-anchor="middle" x="27" y="-518.3" font-family="Times,serif" font-size="14.00">1</text>
</g>
<!-- 15 -->
<g id="node16" class="node">
<title>15</title>
<ellipse fill="none" stroke="black" cx="27" cy="-450" rx="27" ry="18"/>
<text text-anchor="middle" x="27" y="-446.3" font-family="Times,serif" font-size="14.00">15</text>
</g>
<!-- 1&#45;&gt;15 -->
<g id="edge2" class="edge">
<title>1&#45;&gt;15</title>
<path fill="none" stroke="black" d="M27,-503.7C27,-495.98 27,-486.71 27,-478.11"/>
<polygon fill="black" stroke="black" points="30.5,-478.1 27,-468.1 23.5,-478.1 30.5,-478.1"/>
</g>
<!-- 2 -->
<g id="node3" class="node">
<title>2</title>
<ellipse fill="none" stroke="black" cx="243" cy="-306" rx="27" ry="18"/>
<text text-anchor="middle" x="243" y="-302.3" font-family="Times,serif" font-size="14.00">2</text>
</g>
<!-- 3 -->
<g id="node4" class="node">
<title>3</title>
<ellipse fill="none" stroke="black" cx="171" cy="-234" rx="27" ry="18"/>
<text text-anchor="middle" x="171" y="-230.3" font-family="Times,serif" font-size="14.00">3</text>
</g>
<!-- 2&#45;&gt;3 -->
<g id="edge3" class="edge">
<title>2&#45;&gt;3</title>
<path fill="none" stroke="black" d="M228.43,-290.83C218.25,-280.94 204.48,-267.55 192.97,-256.36"/>
<polygon fill="black" stroke="black" points="195.41,-253.85 185.8,-249.38 190.53,-258.87 195.41,-253.85"/>
</g>
<!-- 5 -->
<g id="node6" class="node">
<title>5</title>
<ellipse fill="none" stroke="black" cx="144" cy="-90" rx="27" ry="18"/>
<text text-anchor="middle" x="144" y="-86.3" font-family="Times,serif" font-size="14.00">5</text>
</g>
<!-- 2&#45;&gt;5 -->
<g id="edge4" class="edge">
<title>2&#45;&gt;5</title>
<path fill="none" stroke="black" d="M237.75,-288C228.18,-258.03 206.44,-194.19 180,-144 174.79,-134.11 168.12,-123.82 161.94,-114.96"/>
<polygon fill="black" stroke="black" points="164.67,-112.75 156,-106.65 158.97,-116.82 164.67,-112.75"/>
</g>
<!-- 4 -->
<g id="node5" class="node">
<title>4</title>
<ellipse fill="none" stroke="black" cx="144" cy="-162" rx="27" ry="18"/>
<text text-anchor="middle" x="144" y="-158.3" font-family="Times,serif" font-size="14.00">4</text>
</g>
<!-- 3&#45;&gt;4 -->
<g id="edge5" class="edge">
<title>3&#45;&gt;4</title>
<path fill="none" stroke="black" d="M164.6,-216.41C161.49,-208.34 157.67,-198.43 154.17,-189.35"/>
<polygon fill="black" stroke="black" points="157.4,-188.03 150.54,-179.96 150.87,-190.55 157.4,-188.03"/>
</g>
<!-- 4&#45;&gt;5 -->
<g id="edge6" class="edge">
<title>4&#45;&gt;5</title>
<path fill="none" stroke="black" d="M144,-143.7C144,-135.98 144,-126.71 144,-118.11"/>
<polygon fill="black" stroke="black" points="147.5,-118.1 144,-108.1 140.5,-118.1 147.5,-118.1"/>
</g>
<!-- 19 -->
<g id="node20" class="node">
<title>19</title>
<ellipse fill="none" stroke="black" cx="144" cy="-18" rx="27" ry="18"/>
<text text-anchor="middle" x="144" y="-14.3" font-family="Times,serif" font-size="14.00">19</text>
</g>
<!-- 5&#45;&gt;19 -->
<g id="edge7" class="edge">
<title>5&#45;&gt;19</title>
<path fill="none" stroke="black" d="M144,-71.7C144,-63.98 144,-54.71 144,-46.11"/>
<polygon fill="black" stroke="black" points="147.5,-46.1 144,-36.1 140.5,-46.1 147.5,-46.1"/>
</g>
<!-- 6 -->
<g id="node7" class="node">
<title>6</title>
<ellipse fill="none" stroke="black" cx="135" cy="-594" rx="27" ry="18"/>
<text text-anchor="middle" x="135" y="-590.3" font-family="Times,serif" font-size="14.00">6</text>
</g>
<!-- 6&#45;&gt;0 -->
<g id="edge10" class="edge">
<title>6&#45;&gt;0</title>
<path fill="none" stroke="black" d="M126.65,-576.76C122.29,-568.28 116.85,-557.71 111.96,-548.2"/>
<polygon fill="black" stroke="black" points="114.99,-546.44 107.3,-539.15 108.77,-549.64 114.99,-546.44"/>
</g>
<!-- 6&#45;&gt;1 -->
<g id="edge11" class="edge">
<title>6&#45;&gt;1</title>
<path fill="none" stroke="black" d="M116.19,-580.81C99,-569.67 73.38,-553.06 54.01,-540.5"/>
<polygon fill="black" stroke="black" points="55.89,-537.56 45.6,-535.05 52.08,-543.43 55.89,-537.56"/>
</g>
<!-- 11 -->
<g id="node12" class="node">
<title>11</title>
<ellipse fill="none" stroke="black" cx="243" cy="-522" rx="27" ry="18"/>
<text text-anchor="middle" x="243" y="-518.3" font-family="Times,serif" font-size="14.00">11</text>
</g>
<!-- 6&#45;&gt;11 -->
<g id="edge9" class="edge">
<title>6&#45;&gt;11</title>
<path fill="none" stroke="black" d="M153.81,-580.81C171,-569.67 196.62,-553.06 215.99,-540.5"/>
<polygon fill="black" stroke="black" points="217.92,-543.43 224.4,-535.05 214.11,-537.56 217.92,-543.43"/>
</g>
<!-- 18 -->
<g id="node19" class="node">
<title>18</title>
<ellipse fill="none" stroke="black" cx="171" cy="-522" rx="27" ry="18"/>
<text text-anchor="middle" x="171" y="-518.3" font-family="Times,serif" font-size="14.00">18</text>
</g>
<!-- 6&#45;&gt;18 -->
<g id="edge8" class="edge">
<title>6&#45;&gt;18</title>
<path fill="none" stroke="black" d="M143.35,-576.76C147.71,-568.28 153.15,-557.71 158.04,-548.2"/>
<polygon fill="black" stroke="black" points="161.23,-549.64 162.7,-539.15 155.01,-546.44 161.23,-549.64"/>
</g>
<!-- 7 -->
<g id="node8" class="node">
<title>7</title>
<ellipse fill="none" stroke="black" cx="99" cy="-378" rx="27" ry="18"/>
<text text-anchor="middle" x="99" y="-374.3" font-family="Times,serif" font-size="14.00">7</text>
</g>
<!-- 14 -->
<g id="node15" class="node">
<title>14</title>
<ellipse fill="none" stroke="black" cx="99" cy="-234" rx="27" ry="18"/>
<text text-anchor="middle" x="99" y="-230.3" font-family="Times,serif" font-size="14.00">14</text>
</g>
<!-- 7&#45;&gt;14 -->
<g id="edge12" class="edge">
<title>7&#45;&gt;14</title>
<path fill="none" stroke="black" d="M99,-359.87C99,-335.67 99,-291.21 99,-262.39"/>
<polygon fill="black" stroke="black" points="102.5,-262.19 99,-252.19 95.5,-262.19 102.5,-262.19"/>
</g>
<!-- 8 -->
<g id="node9" class="node">
<title>8</title>
<ellipse fill="none" stroke="black" cx="243" cy="-450" rx="27" ry="18"/>
<text text-anchor="middle" x="243" y="-446.3" font-family="Times,serif" font-size="14.00">8</text>
</g>
<!-- 17 -->
<g id="node18" class="node">
<title>17</title>
<ellipse fill="none" stroke="black" cx="243" cy="-378" rx="27" ry="18"/>
<text text-anchor="middle" x="243" y="-374.3" font-family="Times,serif" font-size="14.00">17</text>
</g>
<!-- 8&#45;&gt;17 -->
<g id="edge13" class="edge">
<title>8&#45;&gt;17</title>
<path fill="none" stroke="black" d="M243,-431.7C243,-423.98 243,-414.71 243,-406.11"/>
<polygon fill="black" stroke="black" points="246.5,-406.1 243,-396.1 239.5,-406.1 246.5,-406.1"/>
</g>
<!-- 9 -->
<g id="node10" class="node">
<title>9</title>
<ellipse fill="none" stroke="black" cx="27" cy="-378" rx="27" ry="18"/>
<text text-anchor="middle" x="27" y="-374.3" font-family="Times,serif" font-size="14.00">9</text>
</g>
<!-- 16 -->
<g id="node17" class="node">
<title>16</title>
<ellipse fill="none" stroke="black" cx="58" cy="-162" rx="27" ry="18"/>
<text text-anchor="middle" x="58" y="-158.3" font-family="Times,serif" font-size="14.00">16</text>
</g>
<!-- 9&#45;&gt;16 -->
<g id="edge14" class="edge">
<title>9&#45;&gt;16</title>
<path fill="none" stroke="black" d="M29.48,-359.85C34.86,-322.74 47.61,-234.75 54.08,-190.05"/>
<polygon fill="black" stroke="black" points="57.58,-190.33 55.55,-179.94 50.65,-189.33 57.58,-190.33"/>
</g>
<!-- 10 -->
<g id="node11" class="node">
<title>10</title>
<ellipse fill="none" stroke="black" cx="171" cy="-450" rx="27" ry="18"/>
<text text-anchor="middle" x="171" y="-446.3" font-family="Times,serif" font-size="14.00">10</text>
</g>
<!-- 12 -->
<g id="node13" class="node">
<title>12</title>
<ellipse fill="none" stroke="black" cx="171" cy="-306" rx="27" ry="18"/>
<text text-anchor="middle" x="171" y="-302.3" font-family="Times,serif" font-size="14.00">12</text>
</g>
<!-- 10&#45;&gt;12 -->
<g id="edge15" class="edge">
<title>10&#45;&gt;12</title>
<path fill="none" stroke="black" d="M171,-431.87C171,-407.67 171,-363.21 171,-334.39"/>
<polygon fill="black" stroke="black" points="174.5,-334.19 171,-324.19 167.5,-334.19 174.5,-334.19"/>
</g>
<!-- 11&#45;&gt;8 -->
<g id="edge16" class="edge">
<title>11&#45;&gt;8</title>
<path fill="none" stroke="black" d="M243,-503.7C243,-495.98 243,-486.71 243,-478.11"/>
<polygon fill="black" stroke="black" points="246.5,-478.1 243,-468.1 239.5,-478.1 246.5,-478.1"/>
</g>
<!-- 12&#45;&gt;3 -->
<g id="edge17" class="edge">
<title>12&#45;&gt;3</title>
<path fill="none" stroke="black" d="M171,-287.7C171,-279.98 171,-270.71 171,-262.11"/>
<polygon fill="black" stroke="black" points="174.5,-262.1 171,-252.1 167.5,-262.1 174.5,-262.1"/>
</g>
<!-- 13&#45;&gt;7 -->
<g id="edge18" class="edge">
<title>13&#45;&gt;7</title>
<path fill="none" stroke="black" d="M99,-431.7C99,-423.98 99,-414.71 99,-406.11"/>
<polygon fill="black" stroke="black" points="102.5,-406.1 99,-396.1 95.5,-406.1 102.5,-406.1"/>
</g>
<!-- 14&#45;&gt;4 -->
<g id="edge19" class="edge">
<title>14&#45;&gt;4</title>
<path fill="none" stroke="black" d="M109.21,-217.12C114.85,-208.34 121.97,-197.26 128.3,-187.42"/>
<polygon fill="black" stroke="black" points="131.37,-189.13 133.83,-178.82 125.48,-185.34 131.37,-189.13"/>
</g>
<!-- 15&#45;&gt;9 -->
<g id="edge20" class="edge">
<title>15&#45;&gt;9</title>
<path fill="none" stroke="black" d="M27,-431.7C27,-423.98 27,-414.71 27,-406.11"/>
<polygon fill="black" stroke="black" points="30.5,-406.1 27,-396.1 23.5,-406.1 30.5,-406.1"/>
</g>
<!-- 16&#45;&gt;5 -->
<g id="edge21" class="edge">
<title>16&#45;&gt;5</title>
<path fill="none" stroke="black" d="M74.58,-147.5C87.31,-137.14 105.09,-122.67 119.46,-110.97"/>
<polygon fill="black" stroke="black" points="121.92,-113.48 127.47,-104.46 117.5,-108.05 121.92,-113.48"/>
</g>
<!-- 17&#45;&gt;2 -->
<g id="edge22" class="edge">
<title>17&#45;&gt;2</title>
<path fill="none" stroke="black" d="M243,-359.7C243,-351.98 243,-342.71 243,-334.11"/>
<polygon fill="black" stroke="black" points="246.5,-334.1 243,-324.1 239.5,-334.1 246.5,-334.1"/>
</g>
<!-- 18&#45;&gt;10 -->
<g id="edge23" class="edge">
<title>18&#45;&gt;10</title>
<path fill="none" stroke="black" d="M171,-503.7C171,-495.98 171,-486.71 171,-478.11"/>
<polygon fill="black" stroke="black" points="174.5,-478.1 171,-468.1 167.5,-478.1 174.5,-478.1"/>
</g>
</g>
</svg>
